{
.appVersion = "3228";
.formatVersion = 3;
axes = (
{
name = Weight;
tag = wght;
},
{
name = Italic;
tag = ital;
}
);
customParameters = (
{
name = fsType;
value = (
);
},
{
name = "Enforce Compatibility Check";
value = 1;
},
{
name = "Variable Font Origin";
value = "6E59A8CF-B173-4F95-974A-A2EBEECFA9BB";
},
{
name = "gasp Table";
value = {
};
},
{
name = "Axis Mappings";
value = {
ital = {
0 = 0;
1 = 1;
};
wght = {
100 = 100;
200 = 228;
300 = 324;
400 = 420;
500 = 504;
600 = 624;
700 = 732;
800 = 828;
900 = 900;
};
};
},
{
name = panose;
value = (
2,
11,
10,
4,
4,
2,
0,
0,
2,
3
);
},
{
name = "Use Typo Metrics";
value = 1;
},
{
name = "Export morx Table";
value = 1;
},
{
name = "meta Table";
value = (
{
data = Latn;
tag = dlng;
},
{
data = Latn;
tag = slng;
}
);
}
);
date = "2020-03-28 06:10:06 +0000";
familyName = Urbanist;
featurePrefixes = (
{
code = "languagesystem DFLT dflt;
languagesystem DFLT MAH;

languagesystem latn dflt;
languagesystem latn AZE;
languagesystem latn CRT;
languagesystem latn KAZ;
languagesystem latn TAT;
languagesystem latn TRK;
languagesystem latn ROM;
languagesystem latn MOL;
languagesystem latn MAH;
languagesystem latn CAT;
languagesystem latn NLD;
";
name = Languagesystems;
}
);
features = (
{
automatic = 1;
code = "feature locl;
feature subs;
feature sinf;
feature sups;
feature frac;
feature ordn;
feature case;
feature calt;
";
tag = aalt;
},
{
automatic = 1;
code = "lookup ccmp_Other_1 {
	@CombiningTopAccents = [acutecomb brevecomb caroncomb circumflexcomb commaturnedabovecomb dieresiscomb dotaccentcomb gravecomb hungarumlautcomb macroncomb ringcomb tildecomb];
	lookupflag UseMarkFilteringSet @CombiningTopAccents;
	sub i' @CombiningTopAccents by idotless;
	sub j' @CombiningTopAccents by jdotless;
} ccmp_Other_1;

lookup ccmp_latn_1 {
	lookupflag 0;
	sub fi by f i;
	sub fl by f l;
} ccmp_latn_1;

script latn;
lookup ccmp_latn_1;
";
tag = ccmp;
},
{
code = "script latn;
language AZE;
lookup locl_latn_0 {
	sub i by idotaccent;

glyphs = (
{
glyphname = A;
kernLeft = A;
kernRight = A;
lastChange = "2023-12-28 07:56:32 +0000";
layers = (
{
anchors = (
{
name = bottom;
pos = (667,0);
},
{
name = ogonek;
pos = (1344,0);
},
{
name = top;
pos = (667,1400);
}
);
hints = (
{
horizontal = 1;
origin = (0,0);
target = up;
type = BottomGhost;
},
{
horizontal = 1;
origin = (0,2);
target = (1,2);
type = Stem;
},
{
horizontal = 1;
origin = (0,7);
target = down;
type = TopGhost;
}
);
layerId = "10BC12B3-5274-42E3-B5BC-F74F362F0DF4";
shapes = (
{
closed = 1;
nodes = (
(-10,0,l),
(308,0,l),
(388,220,l),
(946,220,l),
(1026,0,l),
(1344,0,l),
(836,1400,l),
(498,1400,l)
);
},
{
closed = 1;
nodes = (
(666,984,l),
(836,520,l),
(498,520,l)
);
}
);
width = 1334;
},
{
anchors = (
{
name = bottom;
pos = (576,0);
},
{
name = ogonek;
pos = (1132,0);
},
{
name = top;
pos = (576,1400);
}
);
hints = (
{
horizontal = 1;
origin = (0,0);
target = up;
type = BottomGhost;
},
{
horizontal = 1;
origin = (0,2);
target = (1,2);
type = Stem;
},
{
horizontal = 1;
origin = (0,7);
target = (1,0);
type = Stem;
}
);
layerId = "9AF1F7D9-E035-453E-B2A8-46DE370997D0";
shapes = (
{
closed = 1;
nodes = (
(20,0,l),
(84,0,l),
(208,340,l),
(944,340,l),
(1068,0,l),
(1132,0,l),
(622,1400,l),
(530,1400,l)
);
},
{
closed = 1;
nodes = (
(576,1350,l),
(922,400,l),
(230,400,l)
);
}
);
width = 1152;
},
{
anchors = (
{
name = bottom;
pos = (435,0);
},
{
name = ogonek;
pos = (991,0);
},
{
name = top;
pos = (632,1400);
}
);
hints = (
{
horizontal = 1;
origin = (0,0);
target = up;
type = BottomGhost;
},
{
horizontal = 1;
origin = (0,2);
target = (1,2);
type = Stem;
},
{
horizontal = 1;
origin = (0,7);
target = (1,0);
type = Stem;
}
);
layerId = m003;
shapes = (
{
closed = 1;
nodes = (
(-121,0,l),
(-57,0,l),
(115,340,l),
(851,340,l),
(927,0,l),
(991,0,l),
(678,1400,l),
(586,1400,l)
);
},
{
closed = 1;
nodes = (
(625,1350,l),
(838,400,l),
(146,400,l)
);
}
);
width = 1152;
},
{
anchors = (
{
name = bottom;
pos = (526,0);
},
{
name = ogonek;
pos = (1203,0);
},
{
name = top;
pos = (723,1400);
}
);
hints = (
{
horizontal = 1;
origin = (0,0);
target = up;
type = BottomGhost;
},
{
horizontal = 1;
origin = (0,2);
target = (1,2);
type = Stem;
},
{
horizontal = 1;
origin = (0,7);
target = down;
type = TopGhost;
}
);
layerId = m004;
shapes = (
{
closed = 1;
nodes = (
(-151,0,l),
(167,0,l),
(278,220,l),
(836,220,l),
(885,0,l),
(1203,0,l),
(892,1400,l),
(554,1400,l)
);
},
{
closed = 1;
nodes = (
(664,984,l),
(769,520,l),
(431,520,l)
);
}
);
width = 1334;
},
{
anchors = (
{
name = bottom;
pos = (471,0);
},
{
name = ogonek;
pos = (1076,0);
},
{
name = top;
pos = (668,1400);
}
);
hints = (
{
horizontal = 1;
origin = (0,0);
target = up;
type = BottomGhost;
},
{
horizontal = 1;
origin = (0,2);
target = (1,2);
type = Stem;
},
{
horizontal = 1;
origin = (0,7);
target = (1,0);
type = Stem;
}
);
layerId = "79A30733-E9D0-406C-A133-0F4AF5F1D98D";
shapes = (
{
closed = 1;
nodes = (
(-133,0,l),
(33,0,l),
(180,292,l),
(845,292,l),
(910,0,l),
(1076,0,l),
(764,1400,l),
(573,1400,l)
);
},
{
closed = 1;
nodes = (
(641,1204,l),
(810,448,l),
(260,448,l)
);
}
);
width = 1224.8;
},
{
anchors = (
{
name = bottom;
pos = (612,0);
},
{
name = ogonek;
pos = (1217,0);
},
{
name = top;
pos = (612,1400);
}
);
hints = (
{
horizontal = 1;
origin = (0,0);
target = up;
type = BottomGhost;
},
{
horizontal = 1;
origin = (0,2);
target = (1,2);
type = Stem;
},
{
horizontal = 1;
origin = (0,7);
target = (1,0);
type = Stem;
}
);
layerId = "6E59A8CF-B173-4F95-974A-A2EBEECFA9BB";
shapes = (
{
closed = 1;
nodes = (
(8,0,l),
(174,0,l),
(280,292,l),
(945,292,l),
(1051,0,l),
(1217,0,l),
(708,1400,l),
(517,1400,l)
);
},
{
closed = 1;
nodes = (
(612,1204,l),
(888,448,l),
(337,448,l)
);
}
);
width = 1224.8;
}
);
unicode = 65;
},
{
glyphname = AE;
kernLeft = A;
kernRight = E;
lastChange = "2023-12-28 07:56:32 +0000";
layers = (
{
anchors = (
{
name = bottom;
pos = (715,0);
},
{
name = top;
pos = (959,1400);
}
);
hints = (
{
horizontal = 1;
origin = (0,15);
target = (0,6);
type = Stem;
},
{
horizontal = 1;
origin = (0,7);
target = (0,10);
type = Stem;
},
{
horizontal = 1;
origin = (0,14);
target = (1,0);
type = Stem;
},
{
horizontal = 1;
origin = (0,1);
target = (1,3);
type = Stem;
},
{
origin = (0,3);
target = (0,6);
type = Stem;
}
);
layerId = "10BC12B3-5274-42E3-B5BC-F74F362F0DF4";
shapes = (
{
closed = 1;
nodes = (
(258,0,l),
(338,220,l),
(718,220,l),
(718,0,l),
(1470,0,l),
(1470,300,l),
(1018,300,l),
(1018,550,l),
(1374,550,l),
(1374,850,l),
(1018,850,l),
(1018,1100,l),
(1470,1100,l),
(1470,1400,l),
(448,1400,l),
(-60,0,l)
);
},
{
closed = 1;
nodes = (
(658,1100,l),
(718,1100,l),
(718,520,l),
(448,520,l)
);
}
);
width = 1510;
},
{
anchors = (
{
name = bottom;
pos = (677,0);
},
{
name = top;
pos = (922,1400);
}
);
hints = (
{
horizontal = 1;
origin = (0,15);
target = (0,6);
type = Stem;
},
{
horizontal = 1;
origin = (0,1);
target = (1,3);
type = Stem;
},
{
horizontal = 1;
origin = (0,7);
target = (0,10);
type = Stem;
},
{
horizontal = 1;
origin = (0,14);
target = (1,0);
type = Stem;
},
{
origin = (0,3);
target = (0,6);
type = Stem;
}
);
layerId = "9AF1F7D9-E035-453E-B2A8-46DE370997D0";
shapes = (
{
closed = 1;
nodes = (
(34,0,l),
(158,340,l),
(672,340,l),
(672,0,l),
(1364,0,l),
(1364,60,l),
(732,60,l),
(732,670,l),
(1268,670,l),
(1268,730,l),
(732,730,l),
(732,1340,l),
(1364,1340,l),
(1364,1400,l),
(480,1400,l),
(-30,0,l)
);
},
{
closed = 1;
nodes = (
(524,1340,l),
(672,1340,l),
(672,400,l),
(180,400,l)
);
}
);
width = 1414;
},
{
anchors = (
{
name = bottom;
pos = (536,0);
},
{
name = top;
pos = (978,1400);
}
);
hints = (
{
horizontal = 1;
origin = (0,15);
target = (0,6);
type = Stem;
},
{
horizontal = 1;
origin = (0,1);
target = (1,3);
type = Stem;
},
{
horizontal = 1;
origin = (0,7);
target = (0,10);
type = Stem;
},
{
horizontal = 1;
origin = (0,14);
target = (1,0);
type = Stem;
},
{
origin = (0,3);
target = (0,6);
type = Stem;
}
);
layerId = m003;
shapes = (
{
closed = 1;
nodes = (
(-107,0,l),
(65,340,l),
(579,340,l),
(531,0,l),
(1223,0,l),
(1232,60,l),
(600,60,l),
(686,670,l),
(1222,670,l),
(1230,730,l),
(694,730,l),
(780,1340,l),
(1412,1340,l),
(1420,1400,l),
(536,1400,l),
(-171,0,l)
);
},
{
closed = 1;
nodes = (
(572,1340,l),
(720,1340,l),
(588,400,l),
(96,400,l)
);
}
);
width = 1414;
},
{
anchors = (
{
name = bottom;
pos = (574,0);
},
{
name = top;
pos = (1015,1400);
}
);
hints = (
{
horizontal = 1;
origin = (0,15);
target = (0,6);
type = Stem;
},
{
horizontal = 1;
origin = (0,7);
target = (0,10);
type = Stem;
},
{
horizontal = 1;
origin = (0,14);
target = (1,0);
type = Stem;
},
{
horizontal = 1;
origin = (0,1);
target = (1,3);
type = Stem;
},
{
origin = (0,3);
target = (0,6);
type = Stem;
}
);
layerId = m004;
shapes = (
{
closed = 1;
nodes = (
(117,0,l),
(228,220,l),
(608,220,l),
(577,0,l),
(1329,0,l),
(1372,300,l),
(920,300,l),
(955,550,l),
(1311,550,l),
(1353,850,l),
(997,850,l),
(1032,1100,l),
(1484,1100,l),
(1526,1400,l),
(504,1400,l),
(-201,0,l)
);
},
{
closed = 1;
nodes = (
(672,1100,l),
(732,1100,l),
(651,520,l),
(381,520,l)
);
}
);
width = 1510;
},
{
anchors = (
{
name = bottom;
pos = (551,0);
},
{
name = top;
pos = (993,1400);
}
);
hints = (
{
horizontal = 1;
origin = (0,15);
target = (0,6);
type = Stem;
},
{
horizontal = 1;
origin = (0,1);
target = (1,3);
type = Stem;
},
{
horizontal = 1;
origin = (0,7);
target = (0,10);
type = Stem;
},
{
horizontal = 1;
origin = (0,14);
target = (1,0);
type = Stem;
},
{
origin = (0,3);
target = (0,6);
type = Stem;
}
);
layerId = "79A30733-E9D0-406C-A133-0F4AF5F1D98D";
shapes = (
{
closed = 1;
nodes = (
(-17,0,l),
(130,292,l),
(591,292,l),
(549,0,l),
(1265,0,l),
(1288,156,l),
(728,156,l),
(794,622,l),
(1258,622,l),
(1279,778,l),
(815,778,l),
(881,1244,l),
(1441,1244,l),
(1462,1400,l),
(523,1400,l),
(-183,0,l)
);
},
{
closed = 1;
nodes = (
(612,1244,l),
(725,1244,l),
(613,448,l),
(210,448,l)
);
}
);
width = 1452.4;
},
{
anchors = (
{
name = bottom;
pos = (692,0);
},
{
name = top;
pos = (937,1400);
}
);
hints = (
{
horizontal = 1;
origin = (0,15);
target = (0,6);
type = Stem;
},
{
horizontal = 1;
origin = (0,1);
target = (1,3);
type = Stem;
},
{
horizontal = 1;
origin = (0,7);
target = (0,10);
type = Stem;
},
{
horizontal = 1;
origin = (0,14);
target = (1,0);
type = Stem;
},
{
origin = (0,3);
target = (0,6);
type = Stem;
}
);
layerId = "6E59A8CF-B173-4F95-974A-A2EBEECFA9BB";
shapes = (
{
closed = 1;
nodes = (
(124,0,l),
(230,292,l),
(690,292,l),
(690,0,l),
(1406,0,l),
(1406,156,l),
(846,156,l),
(846,622,l),
(1310,622,l),
(1310,778,l),
(846,778,l),
(846,1244,l),
(1406,1244,l),
(1406,1400,l),
(467,1400,l),
(-42,0,l)
);
},
{
closed = 1;
nodes = (
(578,1244,l),
(690,1244,l),
(690,448,l),
(287,448,l)
);
}
);
width = 1452.4;
}
);
metricLeft = "=A-50";
metricRight = E;
unicode = 198;
},
{
glyphname = B;
kernLeft = H;
kernRight = B;
lastChange = "2023-12-28 07:56:32 +0000";
layers = (
{
anchors = (
{
name = bottom;
pos = (573,0);
},
{
name = center;
pos = (573,700);
},
{
name = top;
pos = (573,1400);
}
);
hints = (
{
horizontal = 1;
place = (0,254);
type = Stem;
},
{
horizontal = 1;
place = (625,250);
type = Stem;
},
{
horizontal = 1;
place = (1400,256);
type = Stem;
},
{
place = (120,300);
type = Stem;
},
{
place = (760,300);
type = Stem;
},
{
place = (860,266);
type = Stem;
}
);
layerId = "10BC12B3-5274-42E3-B5BC-F74F362F0DF4";
shapes = (
{
closed = 1;
nodes = (
(696,0,ls),
(917,0,o),
(1096,179,o),
(1096,400,cs),
(1096,574,o),
(985,723,o),
(829,777,c),
(934,833,o),
(1006,943,o),
(1006,1070,cs),
(1006,1252,o),
(858,1400,o),
(676,1400,cs),
(90,1400,l),
(90,0,l)
);
},
{
closed = 1;
nodes = (
(389,625,l),
(645,625,ls),
(747,625,o),
(830,542,o),
(830,436,cs),
(830,333,o),
(747,250,o),
(645,250,cs),
(389,250,l)
);
},
{
closed = 1;
nodes = (
(389,1150,l),
(596,1150,ls),
(670,1150,o),
(730,1090,o),
(730,1010,cs),
(730,935,o),
(670,875,o),
(596,875,cs),
(389,875,l)
);
}
);
width = 1126;
},
{
anchors = (
{
name = bottom;
pos = (515,0);
},
{
name = center;
pos = (515,700);
},
{
name = top;
pos = (515,1400);
}
);
hints = (
{
horizontal = 1;
place = (0,60);
type = Stem;
},
{
horizontal = 1;
place = (740,60);
type = Stem;
},
{
horizontal = 1;
place = (1340,60);
type = Stem;
},
{
place = (120,60);
type = Stem;
},
{
place = (930,60);
type = Stem;
},
{
place = (852,60);
type = Stem;
}
);
layerId = "9AF1F7D9-E035-453E-B2A8-46DE370997D0";
shapes = (
{
closed = 1;
nodes = (
(570,0,ls),
(791,0,o),
(970,179,o),
(970,400,cs),
(970,572,o),
(862,718,o),
(710,775,c),
(818,829,o),
(892,941,o),
(892,1070,cs),
(892,1252,o),
(744,1400,o),
(562,1400,cs),
(100,1400,l),
(100,0,l)
);
},
{
closed = 1;
nodes = (
(160,740,l),
(570,740,ls),
(753,740,o),
(910,594,o),
(910,400,cs),
(910,205,o),
(752,60,o),
(570,60,cs),
(160,60,l)
);
},
{
closed = 1;
nodes = (
(160,1340,l),
(562,1340,ls),
(712,1340,o),
(832,1219,o),
(832,1070,cs),
(832,918,o),
(709,800,o),
(562,800,cs),
(160,800,l)
);
}
);
width = 1030;
},
{
anchors = (
{
name = bottom;
pos = (374,0);
},
{
name = center;
pos = (473,700);
},
{
name = top;
pos = (571,1400);
}
);
hints = (
{
horizontal = 1;
place = (-141,-81);
type = Stem;
},
{
horizontal = 1;
place = (599,-81);
type = Stem;
},
{
horizontal = 1;
place = (1199,-81);
type = Stem;
},
{
place = (-21,-81);
type = Stem;
},
{
place = (789,-81);
type = Stem;
},
{
place = (711,-81);
type = Stem;
}
);
layerId = m003;
shapes = (
{
closed = 1;
nodes = (
(429,0,ls),
(650,0,o),
(855,179,o),
(886,400,cs),
(910,572,o),
(822,718,o),
(678,775,c),
(794,829,o),
(884,941,o),
(902,1070,cs),
(927,1252,o),
(800,1400,o),
(618,1400,cs),
(156,1400,l),
(-41,0,l)
);
},
{
closed = 1;
nodes = (
(123,740,l),
(533,740,ls),
(716,740,o),
(853,594,o),
(826,400,cs),
(798,205,o),
(620,60,o),
(438,60,cs),
(28,60,l)
);
},
{
closed = 1;
nodes = (
(208,1340,l),
(610,1340,ls),
(760,1340,o),
(863,1219,o),
(842,1070,cs),
(820,918,o),
(681,800,o),
(534,800,cs),
(132,800,l)
);
}
);
width = 1030;
},
{
anchors = (
{
name = bottom;
pos = (432,0);
},
{
name = center;
pos = (531,700);
},
{
name = top;
pos = (629,1400);
}
);
hints = (
{
horizontal = 1;
place = (-141,113);
type = Stem;
},
{
horizontal = 1;
place = (484,109);
type = Stem;
},
{
horizontal = 1;
place = (1259,115);
type = Stem;
},
{
place = (-21,159);
type = Stem;
},
{
place = (619,159);
type = Stem;
},
{
place = (719,125);
type = Stem;
}
);
layerId = m004;
shapes = (
{
closed = 1;
nodes = (
(555,0,ls),
(776,0,o),
(981,179,o),
(1012,400,cs),
(1036,574,o),
(946,723,o),
(798,777,c),
(911,833,o),
(998,943,o),
(1016,1070,cs),
(1041,1252,o),
(914,1400,o),
(732,1400,cs),
(146,1400,l),
(-51,0,l)
);
},
{
closed = 1;
nodes = (
(336,625,l),
(592,625,ls),
(694,625,o),
(766,542,o),
(751,436,cs),
(736,333,o),
(642,250,o),
(540,250,cs),
(284,250,l)
);
},
{
closed = 1;
nodes = (
(410,1150,l),
(617,1150,ls),
(691,1150,o),
(743,1090,o),
(731,1010,cs),
(721,935,o),
(652,875,o),
(578,875,cs),
(371,875,l)
);
}
);
width = 1126;
},
{
anchors = (
{
name = bottom;
pos = (397,0);
},
{
name = center;
pos = (496,700);
},
{
name = top;
pos = (594,1400);
}
);
hints = (
{
horizontal = 1;
place = (-141,-3);
type = Stem;
},
{
horizontal = 1;
place = (553,-4.1);
type = Stem;
},
{
horizontal = 1;
place = (1223,-3);
type = Stem;
},
{
place = (-21,15);
type = Stem;
},
{
place = (761,1);
type = Stem;
},
{
place = (674,15);
type = Stem;
}
);
layerId = "79A30733-E9D0-406C-A133-0F4AF5F1D98D";
shapes = (
{
closed = 1;
nodes = (
(479,0,ls),
(700,0,o),
(905,179,o),
(936,400,cs),
(960,573,o),
(872,720,o),
(726,776,c),
(841,831,o),
(930,942,o),
(948,1070,cs),
(973,1252,o),
(846,1400,o),
(664,1400,cs),
(152,1400,l),
(-45,0,l)
);
},
{
closed = 1;
nodes = (
(208,694,l),
(557,694,ls),
(707,694,o),
(818,573,o),
(796,414,cs),
(773,256,o),
(629,136,o),
(479,136,cs),
(130,136,l)
);
},
{
closed = 1;
nodes = (
(289,1264,l),
(613,1264,ls),
(732,1264,o),
(815,1167,o),
(798,1046,cs),
(780,925,o),
(669,830,o),
(552,830,cs),
(228,830,l)
);
}
);
width = 1068.4;
},
{
anchors = (
{
name = bottom;
pos = (538,0);
},
{
name = center;
pos = (538,700);
},
{
name = top;
pos = (538,1400);
}
);
hints = (
{
horizontal = 1;
place = (0,138);
type = Stem;
},
{
horizontal = 1;
place = (694,136);
type = Stem;
},
{
horizontal = 1;
place = (1364,138);
type = Stem;
},
{
place = (120,156);
type = Stem;
},
{
place = (902,142);
type = Stem;
},
{
place = (815,156);
type = Stem;
}
);
layerId = "6E59A8CF-B173-4F95-974A-A2EBEECFA9BB";
shapes = (
{
closed = 1;
nodes = (
(620,0,ls),
(841,0,o),
(1020,179,o),
(1020,400,cs),
(1020,573,o),
(911,720,o),
(758,776,c),
(864,831,o),
(938,942,o),
(938,1070,cs),
(938,1252,o),
(790,1400,o),
(608,1400,cs),
(96,1400,l),
(96,0,l)
);
},
{
closed = 1;
nodes = (
(252,694,l),
(600,694,ls),
(751,694,o),
(878,573,o),
(878,414,cs),
(878,256,o),
(750,136,o),
(600,136,cs),
(252,136,l)
);
},
{
closed = 1;
nodes = (
(252,1264,l),
(576,1264,ls),
(695,1264,o),
(791,1167,o),
(791,1046,cs),
(791,925,o),
(693,830,o),
(576,830,cs),
(252,830,l)
);
}
);
width = 1068.4;
}
);
metricLeft = H;
unicode = 66;
},
{
glyphname = C;
kernLeft = O;
kernRight = C;
lastChange = "2023-12-28 07:56:48 +0000";
layers = (
{
anchors = (
{
name = bottom;
pos = (718,0);
},
{
name = top;
pos = (718,1400);
}
);
hints = (
{
horizontal = 1;
origin = (0,25);
target = (0,6);
type = Stem;
},
{
horizontal = 1;
origin = (0,19);
target = (0,12);
type = Stem;
},
{
origin = (0,22);
target = (0,9);
type = Stem;
}
);
layerId = "10BC12B3-5274-42E3-B5BC-F74F362F0DF4";
shapes = (
{
closed = 1;
nodes = (
(944,-26,o),
(1142,88,o),
(1268,262,c),
(1000,408,l),
(930,326,o),
(830,274,o),
(718,274,cs),
(504,274,o),
(330,466,o),
(330,700,cs),
(330,936,o),
(504,1126,o),
(718,1126,cs),
(830,1126,o),
(930,1074,o),
(1000,994,c),
(1268,1138,l),
(1142,1312,o),
(944,1426,o),
(718,1426,cs),
(338,1426,o),
(30,1102,o),
(30,700,cs),
(30,300,o),
(338,-26,o),
(718,-26,cs)
);
}
);
width = 1298;
},
{
anchors = (
{
name = bottom;
pos = (738,0);
},
{
name = top;
pos = (738,1400);
}
);
hints = (
{
horizontal = 1;
origin = (0,25);
target = (0,6);
type = Stem;
},
{
horizontal = 1;
origin = (0,19);
target = (0,12);
type = Stem;
},
{
origin = (0,22);
target = (0,9);
type = Stem;
}
);
layerId = "9AF1F7D9-E035-453E-B2A8-46DE370997D0";
shapes = (
{
closed = 1;
nodes = (
(964,-26,o),
(1162,86,o),
(1288,262,c),
(1236,290,l),
(1126,138,o),
(942,34,o),
(738,34,cs),
(392,34,o),
(110,332,o),
(110,700,cs),
(110,1058,o),
(386,1366,o),
(738,1366,cs),
(932,1366,o),
(1122,1266,o),
(1236,1108,c),
(1288,1136,l),
(1162,1312,o),
(964,1426,o),
(738,1426,cs),
(358,1426,o),
(50,1100,o),
(50,700,cs),
(50,298,o),
(358,-26,o),
(738,-26,cs)
);
}
);
width = 1338;
},
{
anchors = (
{
name = bottom;
pos = (597,0);
},
{
name = top;
pos = (794,1400);
}
);
hints = (
{
horizontal = 1;
origin = (0,25);
target = (0,6);
type = Stem;
},
{
horizontal = 1;
origin = (0,19);
target = (0,12);
type = Stem;
},
{
origin = (0,22);
target = (0,9);
type = Stem;
}
);
layerId = m003;
shapes = (
{
closed = 1;
nodes = (
(820,-26,o),
(1034,86,o),
(1184,262,c),
(1136,290,l),
(1005,138,o),
(806,34,o),
(602,34,cs),
(256,34,o),
(16,332,o),
(68,700,cs),
(118,1058,o),
(437,1366,o),
(789,1366,cs),
(983,1366,o),
(1159,1266,o),
(1251,1108,c),
(1307,1136,l),
(1206,1312,o),
(1024,1426,o),
(798,1426,cs),
(418,1426,o),
(64,1100,o),
(8,700,cs),
(-49,298,o),
(214,-26,o),
(594,-26,cs)
);
}
);
width = 1338;
},
{
anchors = (
{
name = bottom;
pos = (577,0);
},
{
name = top;
pos = (774,1400);
}
);
hints = (
{
horizontal = 1;
origin = (0,25);
target = (0,6);
type = Stem;
},
{
horizontal = 1;
origin = (0,19);
target = (0,12);
type = Stem;
},
{
origin = (0,22);
target = (0,9);
type = Stem;
}
);
layerId = m004;
shapes = (
{
closed = 1;
nodes = (
(800,-26,o),
(1014,88,o),
(1164,262,c),
(917,408,l),
(835,326,o),
(728,274,o),
(616,274,cs),
(402,274,o),
(255,466,o),
(288,700,cs),
(321,936,o),
(522,1126,o),
(736,1126,cs),
(848,1126,o),
(940,1074,o),
(999,994,c),
(1287,1138,l),
(1186,1312,o),
(1004,1426,o),
(778,1426,cs),
(398,1426,o),
(44,1102,o),
(-12,700,cs),
(-68,300,o),
(194,-26,o),
(574,-26,cs)
);
}
);
width = 1297;
},
{
anchors = (
{
name = bottom;
pos = (589,0);
},
{
name = top;
pos = (786,1400);
}
);
hints = (
{
horizontal = 1;
origin = (0,25);
target = (0,6);
type = Stem;
},
{
horizontal = 1;
origin = (0,19);
target = (0,12);
type = Stem;
},
{
origin = (0,22);
target = (0,9);
type = Stem;
}
);
layerId = "79A30733-E9D0-406C-A133-0F4AF5F1D98D";
shapes = (
{
closed = 1;
nodes = (
(812,-26,o),
(1026,87,o),
(1176,262,c),
(1048,337,l),
(937,213,o),
(775,130,o),
(608,130,cs),
(314,130,o),
(112,386,o),
(156,700,cs),
(199,1009,o),
(471,1270,o),
(768,1270,cs),
(929,1270,o),
(1071,1189,o),
(1150,1062,c),
(1299,1137,l),
(1198,1312,o),
(1016,1426,o),
(790,1426,cs),
(410,1426,o),
(56,1101,o),
(0,700,cs),
(-57,299,o),
(206,-26,o),
(586,-26,cs)
);
}
);
width = 1321;
},
{
anchors = (
{
name = bottom;
pos = (730,0);
},
{
name = top;
pos = (730,1400);
}
);
hints = (
{
horizontal = 1;
origin = (0,25);
target = (0,6);
type = Stem;
},
{
horizontal = 1;
origin = (0,19);
target = (0,12);
type = Stem;
},
{
origin = (0,22);
target = (0,9);
type = Stem;
}
);
layerId = "6E59A8CF-B173-4F95-974A-A2EBEECFA9BB";
shapes = (
{
closed = 1;
nodes = (
(956,-26,o),
(1154,87,o),
(1280,262,c),
(1142,337,l),
(1048,213,o),
(897,130,o),
(730,130,cs),
(437,130,o),
(198,386,o),
(198,700,cs),
(198,1009,o),
(433,1270,o),
(730,1270,cs),
(891,1270,o),
(1045,1189,o),
(1142,1062,c),
(1280,1137,l),
(1154,1312,o),
(956,1426,o),
(730,1426,cs),
(350,1426,o),
(42,1101,o),
(42,700,cs),
(42,299,o),
(350,-26,o),
(730,-26,cs)
);
}
);
width = 1322;
}
);
metricLeft = O;
metricRight = "=O";
unicode = 67;
},
{
glyphname = D;
kernLeft = H;
kernRight = O;
lastChange = "2023-12-28 07:56:32 +0000";
layers = (
{
anchors = (
{
name = bottom;
pos = (622,0);
},
{
name = center;
pos = (642,700);
},
{
name = hbar;
pos = (304,750);
},
{
name = top;
pos = (622,1400);
}
);
hints = (
{
horizontal = 1;
origin = (0,8);
target = (1,8);
type = Stem;
},
{
horizontal = 1;
origin = (0,7);
target = (1,0);
type = Stem;
},
{
origin = (0,8);
target = (1,8);
type = Stem;
},
{
origin = (1,4);
target = (0,3);
type = Stem;
}
);
layerId = "10BC12B3-5274-42E3-B5BC-F74F362F0DF4";
shapes = (
{
closed = 1;
nodes = (
(554,0,ls),
(940,0,o),
(1254,314,o),
(1254,700,cs),
(1254,1086,o),
(940,1400,o),
(554,1400,cs),
(90,1400,l),
(90,0,l)
);
},
{
closed = 1;
nodes = (
(390,1100,l),
(554,1100,ls),
(772,1100,o),
(954,920,o),
(954,700,cs),
(954,478,o),
(770,300,o),
(554,300,cs),
(390,300,l)
);
}
);
width = 1284;
},
{
anchors = (
{
name = bottom;
pos = (652,0);
},
{
name = center;
pos = (651,700);
},
{
name = hbar;
pos = (284,750);
},
{
name = top;
pos = (632,1400);
}
);
hints = (
{
horizontal = 1;
origin = (0,8);
target = (1,8);
type = Stem;
},
{
horizontal = 1;
origin = (0,7);
target = (1,0);
type = Stem;
},
{
origin = (0,8);
target = (1,8);
type = Stem;
},
{
origin = (1,4);
target = (0,3);
type = Stem;
}
);
layerId = "9AF1F7D9-E035-453E-B2A8-46DE370997D0";
shapes = (
{
closed = 1;
nodes = (
(562,0,ls),
(950,0,o),
(1262,314,o),
(1262,700,cs),
(1262,1086,o),
(950,1400,o),
(562,1400,cs),
(100,1400,l),
(100,0,l)
);
},
{
closed = 1;
nodes = (
(160,1340,l),
(562,1340,ls),
(916,1340,o),
(1202,1054,o),
(1202,700,cs),
(1202,346,o),
(918,60,o),
(562,60,cs),
(160,60,l)
);
}
);
width = 1312;
},
{
anchors = (
{
name = bottom;
pos = (511,0);
},
{
name = center;
pos = (609,700);
},
{
name = hbar;
pos = (249,750);
},
{
name = top;
pos = (688,1400);
}
);
hints = (
{
horizontal = 1;
origin = (0,8);
target = (1,8);
type = Stem;
},
{
horizontal = 1;
origin = (0,7);
target = (1,0);
type = Stem;
},
{
origin = (0,8);
target = (1,8);
type = Stem;
},
{
origin = (1,4);
target = (0,3);
type = Stem;
}
);
layerId = m003;
shapes = (
{
closed = 1;
nodes = (
(421,0,ls),
(809,0,o),
(1166,314,o),
(1220,700,cs),
(1274,1086,o),
(1006,1400,o),
(618,1400,cs),
(156,1400,l),
(-41,0,l)
);
},
{
closed = 1;
nodes = (
(208,1340,l),
(610,1340,ls),
(964,1340,o),
(1210,1054,o),
(1160,700,cs),
(1110,346,o),
(786,60,o),
(430,60,cs),
(28,60,l)
);
}
);
width = 1312;
},
{
anchors = (
{
name = bottom;
pos = (481,0);
},
{
name = center;
pos = (600,700);
},
{
name = hbar;
pos = (269,750);
},
{
name = top;
pos = (678,1400);
}
);
hints = (
{
horizontal = 1;
origin = (0,8);
target = (1,8);
type = Stem;
},
{
horizontal = 1;
origin = (0,7);
target = (1,0);
type = Stem;
},
{
origin = (0,8);
target = (1,8);
type = Stem;
},
{
origin = (1,4);
target = (0,3);
type = Stem;
}
);
layerId = m004;
shapes = (
{
closed = 1;
nodes = (
(413,0,ls),
(799,0,o),
(1158,314,o),
(1212,700,cs),
(1266,1086,o),
(996,1400,o),
(610,1400,cs),
(146,1400,l),
(-51,0,l)
);
},
{
closed = 1;
nodes = (
(404,1100,l),
(568,1100,ls),
(786,1100,o),
(943,920,o),
(912,700,cs),
(881,478,o),
(672,300,o),
(456,300,cs),
(292,300,l)
);
}
);
width = 1284;
},
{
anchors = (
{
name = bottom;
pos = (499,0);
},
{
name = center;
pos = (605,700);
},
{
name = hbar;
pos = (257,750);
},
{
name = top;
pos = (684,1400);
}
);
hints = (
{
horizontal = 1;
origin = (0,8);
target = (1,8);
type = Stem;
},
{
horizontal = 1;
origin = (0,7);
target = (1,0);
type = Stem;
},
{
origin = (0,8);
target = (1,8);
type = Stem;
},
{
origin = (1,4);
target = (0,3);
type = Stem;
}
);
layerId = "79A30733-E9D0-406C-A133-0F4AF5F1D98D";
shapes = (
{
closed = 1;
nodes = (
(418,0,ls),
(805,0,o),
(1163,314,o),
(1217,700,cs),
(1271,1086,o),
(1002,1400,o),
(615,1400,cs),
(152,1400,l),
(-45,0,l)
);
},
{
closed = 1;
nodes = (
(286,1244,l),
(593,1244,ls),
(893,1244,o),
(1103,1000,o),
(1061,700,cs),
(1018,399,o),
(740,156,o),
(440,156,cs),
(134,156,l)
);
}
);
width = 1300.8;
},
{
anchors = (
{
name = bottom;
pos = (640,0);
},
{
name = center;
pos = (647,700);
},
{
name = hbar;
pos = (292,750);
},
{
name = top;
pos = (628,1400);
}
);
hints = (
{
horizontal = 1;
origin = (0,8);
target = (1,8);
type = Stem;
},
{
horizontal = 1;
origin = (0,7);
target = (1,0);
type = Stem;
},
{
origin = (0,8);
target = (1,8);
type = Stem;
},
{
origin = (1,4);
target = (0,3);
type = Stem;
}
);
layerId = "6E59A8CF-B173-4F95-974A-A2EBEECFA9BB";
shapes = (
{
closed = 1;
nodes = (
(559,0,ls),
(946,0,o),
(1259,314,o),
(1259,700,cs),
(1259,1086,o),
(946,1400,o),
(559,1400,cs),
(96,1400,l),
(96,0,l)
);
},
{
closed = 1;
nodes = (
(252,1244,l),
(559,1244,ls),
(858,1244,o),
(1103,1000,o),
(1103,700,cs),
(1103,399,o),
(859,156,o),
(559,156,cs),
(252,156,l)
);
}
);
width = 1300.8;
}
);
metricLeft = H;
metricRight = O;
unicode = 68;
},
{
glyphname = E;
kernLeft = H;
kernRight = E;
lastChange = "2023-12-28 07:56:32 +0000";
layers = (
{
anchors = (
{
name = bottom;
pos = (526,0);
},
{
name = ogonek;
pos = (880,0);
},
{
name = top;
pos = (526,1400);
},
{
name = topleft;
pos = (-10,1400);
}
);
hints = (
{
horizontal = 1;
origin = (0,11);
target = (0,2);
type = Stem;
},
{
horizontal = 1;
origin = (0,3);
target = (0,6);
type = Stem;
},
{
horizontal = 1;
origin = (0,10);
target = (0,7);
type = Stem;
},
{
origin = (0,11);
target = (0,2);
type = Stem;
}
);
layerId = "10BC12B3-5274-42E3-B5BC-F74F362F0DF4";
shapes = (
{
closed = 1;
nodes = (
(972,0,l),
(972,300,l),
(390,300,l),
(390,600,l),
(831,600,l),
(831,900,l),
(390,900,l),
(390,1100,l),
(972,1100,l),
(972,1400,l),
(90,1400,l),
(90,0,l)
);
}
);
width = 1012;
},
{
anchors = (
{
name = bottom;
pos = (506,0);
},
{
name = ogonek;
pos = (803,0);
},
{
name = top;
pos = (506,1400);
},
{
name = topleft;
pos = (0,1400);
}
);
hints = (
{
horizontal = 1;
origin = (0,11);
target = (0,2);
type = Stem;
},
{
horizontal = 1;
origin = (0,3);
target = (0,6);
type = Stem;
},
{
horizontal = 1;
origin = (0,10);
target = (0,7);
type = Stem;
},
{
origin = (0,11);
target = (0,2);
type = Stem;
}
);
layerId = "9AF1F7D9-E035-453E-B2A8-46DE370997D0";
shapes = (
{
closed = 1;
nodes = (
(932,0,l),
(932,60,l),
(160,60,l),
(160,720,l),
(816,720,l),
(816,780,l),
(160,780,l),
(160,1340,l),
(932,1340,l),
(932,1400,l),
(100,1400,l),
(100,0,l)
);
}
);
width = 982;
},
{
anchors = (
{
name = bottom;
pos = (365,0);
},
{
name = ogonek;
pos = (662,0);
},
{
name = top;
pos = (562,1400);
},
{
name = topleft;
pos = (56,1400);
}
);
hints = (
{
horizontal = 1;
origin = (0,11);
target = (0,2);
type = Stem;
},
{
horizontal = 1;
origin = (0,3);
target = (0,6);
type = Stem;
},
{
horizontal = 1;
origin = (0,10);
target = (0,7);
type = Stem;
},
{
origin = (0,11);
target = (0,2);
type = Stem;
}
);
layerId = m003;
shapes = (
{
closed = 1;
nodes = (
(791,0,l),
(800,60,l),
(28,60,l),
(121,720,l),
(777,720,l),
(785,780,l),
(129,780,l),
(208,1340,l),
(980,1340,l),
(988,1400,l),
(156,1400,l),
(-41,0,l)
);
}
);
width = 982;
},
{
anchors = (
{
name = bottom;
pos = (385,0);
},
{
name = ogonek;
pos = (739,0);
},
{
name = top;
pos = (582,1400);
},
{
name = topleft;
pos = (46,1400);
}
);
hints = (
{
horizontal = 1;
origin = (0,11);
target = (0,2);
type = Stem;
},
{
horizontal = 1;
origin = (0,3);
target = (0,6);
type = Stem;
},
{
horizontal = 1;
origin = (0,10);
target = (0,7);
type = Stem;
},
{
origin = (0,11);
target = (0,2);
type = Stem;
}
);
layerId = m004;
shapes = (
{
closed = 1;
nodes = (
(831,0,l),
(874,300,l),
(292,300,l),
(334,600,l),
(775,600,l),
(817,900,l),
(376,900,l),
(404,1100,l),
(986,1100,l),
(1028,1400,l),
(146,1400,l),
(-51,0,l)
);
}
);
width = 1012;
},
{
anchors = (
{
name = bottom;
pos = (373,0);
},
{
name = ogonek;
pos = (693,0);
},
{
name = top;
pos = (570,1400);
},
{
name = topleft;
pos = (52,1400);
}
);
hints = (
{
horizontal = 1;
origin = (0,11);
target = (0,2);
type = Stem;
},
{
horizontal = 1;
origin = (0,3);
target = (0,6);
type = Stem;
},
{
horizontal = 1;
origin = (0,10);
target = (0,7);
type = Stem;
},
{
origin = (0,11);
target = (0,2);
type = Stem;
}
);
layerId = "79A30733-E9D0-406C-A133-0F4AF5F1D98D";
shapes = (
{
closed = 1;
nodes = (
(807,0,l),
(830,156,l),
(134,156,l),
(206,672,l),
(776,672,l),
(798,828,l),
(228,828,l),
(286,1244,l),
(982,1244,l),
(1004,1400,l),
(152,1400,l),
(-45,0,l)
);
}
);
width = 994;
},
{
anchors = (
{
name = bottom;
pos = (514,0);
},
{
name = ogonek;
pos = (834,0);
},
{
name = top;
pos = (514,1400);
},
{
name = topleft;
pos = (-4,1400);
}
);
hints = (
{
horizontal = 1;
origin = (0,11);
target = (0,2);
type = Stem;
},
{
horizontal = 1;
origin = (0,3);
target = (0,6);
type = Stem;
},
{
horizontal = 1;
origin = (0,10);
target = (0,7);
type = Stem;
},
{
origin = (0,11);
target = (0,2);
type = Stem;
}
);
layerId = "6E59A8CF-B173-4F95-974A-A2EBEECFA9BB";
shapes = (
{
closed = 1;
nodes = (
(948,0,l),
(948,156,l),
(252,156,l),
(252,672,l),
(822,672,l),
(822,828,l),
(252,828,l),
(252,1244,l),
(948,1244,l),
(948,1400,l),
(96,1400,l),
(96,0,l)
);
}
);
width = 994;
}
);
metricLeft = H;
unicode = 69;
},
{
glyphname = Schwa;
kernLeft = O;
kernRight = O;
lastChange = "2023-12-28 07:56:48 +0000";
layers = (
{
anchors = (
{
name = bottom;
pos = (738,0);
},
{
name = top;
pos = (738,1400);
}
);
layerId = "9AF1F7D9-E035-453E-B2A8-46DE370997D0";
shapes = (
{
closed = 1;
nodes = (
(1118,-26,o),
(1426,300,o),
(1426,700,cs),
(1426,1100,o),
(1118,1426,o),
(736,1426,cs),
(512,1426,o),
(312,1312,o),
(186,1138,c),
(240,1108,l),
(360,1272,o),
(546,1366,o),
(736,1366,cs),
(1102,1366,o),
(1385,1044,o),
(1364,642,c),
(50,642,l),
(74,272,o),
(376,-26,o),
(736,-26,cs)
);
},
{
closed = 1;
nodes = (
(422,34,o),
(164,282,o),
(118,582,c),
(1356,582,l),
(1303,273,o),
(1046,34,o),
(736,34,cs)
);
}
);
width = 1476;
},
{
anchors = (
{
name = bottom;
pos = (719,0);
},
{
name = top;
pos = (719,1400);
}
);
layerId = "10BC12B3-5274-42E3-B5BC-F74F362F0DF4";
shapes = (
{
closed = 1;
nodes = (
(1111,-26,o),
(1407,304,o),
(1407,702,cs),
(1407,1130,o),
(1069,1424,o),
(713,1424,cs),
(519,1424,o),
(321,1338,o),
(169,1136,c),
(437,992,l),
(519,1084,o),
(619,1126,o),
(717,1126,cs),
(906,1126,o),
(1085,971,o),
(1106,740,c),
(31,740,l),
(11,322,o),
(323,-26,o),
(719,-26,cs)
);
},
{
closed = 1;
nodes = (
(593,274,o),
(467,338,o),
(385,480,c),
(1053,480,l),
(985,356,o),
(859,274,o),
(715,274,cs)
);
}
);
width = 1437;
},
{
anchors = (
{
name = bottom;
pos = (597,0);
},
{
name = top;
pos = (794,1400);
}
);
layerId = m003;
shapes = (
{
closed = 1;
nodes = (
(974,-26,o),
(1328,300,o),
(1384,700,cs),
(1440,1100,o),
(1178,1426,o),
(796,1426,cs),
(572,1426,o),
(356,1312,o),
(205,1138,c),
(255,1108,l),
(398,1272,o),
(597,1366,o),
(787,1366,cs),
(1153,1366,o),
(1391,1044,o),
(1314,642,c),
(0,642,l),
(-28,272,o),
(232,-26,o),
(592,-26,cs)
);
},
{
closed = 1;
nodes = (
(286,34,o),
(63,282,o),
(59,582,c),
(1297,582,l),
(1201,273,o),
(910,34,o),
(600,34,cs)
);
}
);
width = 1476;
},
{
anchors = (
{
name = bottom;
pos = (579,0);
},
{
name = top;
pos = (776,1400);
}
);
layerId = m004;
shapes = (
{
closed = 1;
nodes = (
(968,-26,o),
(1310,304,o),
(1366,702,cs),
(1426,1130,o),
(1130,1424,o),
(774,1424,cs),
(580,1424,o),
(370,1338,o),
(189,1136,c),
(437,992,l),
(532,1084,o),
(638,1126,o),
(736,1126,cs),
(925,1126,o),
(1082,971,o),
(1070,740,c),
(-5,740,l),
(-83,322,o),
(180,-26,o),
(576,-26,cs)
);
},
{
closed = 1;
nodes = (
(492,274,o),
(375,338,o),
(313,480,c),
(981,480,l),
(895,356,o),
(758,274,o),
(614,274,cs)
);
}
);
width = 1438;
},
{
anchors = (
{
name = bottom;
pos = (588,0);
},
{
name = top;
pos = (785,1400);
}
);
layerId = "79A30733-E9D0-406C-A133-0F4AF5F1D98D";
shapes = (
{
closed = 1;
nodes = (
(970,-26,o),
(1319,302,o),
(1375,701,cs),
(1433,1112,o),
(1157,1425,o),
(786,1425,cs),
(574,1425,o),
(360,1322,o),
(197,1137,c),
(326,1062,l),
(450,1197,o),
(612,1270,o),
(765,1270,cs),
(1060,1270,o),
(1266,1015,o),
(1215,681,c),
(-3,681,l),
(-51,292,o),
(210,-26,o),
(584,-26,cs)
);
},
{
closed = 1;
nodes = (
(367,130,o),
(186,304,o),
(159,541,c),
(1169,541,l),
(1077,306,o),
(848,130,o),
(604,130,cs)
);
}
);
width = 1459;
},
{
anchors = (
{
name = bottom;
pos = (730,0);
},
{
name = top;
pos = (730,1400);
}
);
layerId = "6E59A8CF-B173-4F95-974A-A2EBEECFA9BB";
shapes = (
{
closed = 1;
nodes = (
(1115,-26,o),
(1418,302,o),
(1418,701,cs),
(1418,1112,o),
(1098,1425,o),
(727,1425,cs),
(515,1425,o),
(316,1322,o),
(179,1137,c),
(319,1062,l),
(424,1197,o),
(575,1270,o),
(728,1270,cs),
(1024,1270,o),
(1265,1015,o),
(1261,681,c),
(42,681,l),
(49,292,o),
(355,-26,o),
(729,-26,cs)
);
},
{
closed = 1;
nodes = (
(490,130,o),
(285,304,o),
(225,541,c),
(1235,541,l),
(1176,306,o),
(971,130,o),
(728,130,cs)
);
}
);
width = 1460.4;
}
);
metricLeft = O;
metricRight = O;
unicode = 399;
},
{
glyphname = F;
kernLeft = H;
kernRight = F;
lastChange = "2023-12-28 22:41:43 +0000";
layers = (
{
anchors = (
{
name = bottom;
pos = (456,0);
},
{
name = top;
pos = (456,1400);
}
);
hints = (
{
horizontal = 1;
origin = (0,9);
target = up;
type = BottomGhost;
},
{
horizontal = 1;
origin = (0,1);
target = (0,4);
type = Stem;
},
{
horizontal = 1;
origin = (0,8);
target = (0,5);
type = Stem;
},
{
origin = (0,9);
target = (0,0);
type = Stem;
}
);
layerId = "10BC12B3-5274-42E3-B5BC-F74F362F0DF4";
shapes = (
{
closed = 1;
nodes = (
(390,0,l),
(390,600,l),
(831,600,l),
(831,900,l),
(390,900,l),
(390,1100,l),
(952,1100,l),
(952,1400,l),
(90,1400,l),
(90,0,l)
);
}
);
width = 972;
},
{
anchors = (
{
name = bottom;
pos = (456,0);
},
{
name = top;
pos = (456,1400);
}
);
hints = (
{
horizontal = 1;
origin = (0,9);
target = up;
type = BottomGhost;
},
{
horizontal = 1;
origin = (0,1);
target = (0,4);
type = Stem;
},
{
horizontal = 1;
origin = (0,8);
target = (0,5);
type = Stem;
},
{
origin = (0,9);
target = (0,0);
type = Stem;
}
);
layerId = "9AF1F7D9-E035-453E-B2A8-46DE370997D0";
shapes = (
{
closed = 1;
nodes = (
(160,0,l),
(160,720,l),
(816,720,l),
(816,780,l),
(160,780,l),
(160,1340,l),
(912,1340,l),
(912,1400,l),
(100,1400,l),
(100,0,l)
);
}
);
width = 932;
},
{
anchors = (
{
name = bottom;
pos = (315,0);
},
{
name = top;
pos = (512,1400);
}
);
hints = (
{
horizontal = 1;
origin = (0,9);
target = up;
type = BottomGhost;
},
{
horizontal = 1;
origin = (0,1);
target = (0,4);
type = Stem;
},
{
horizontal = 1;
origin = (0,8);
target = (0,5);
type = Stem;
},
{
origin = (0,9);
target = (0,0);
type = Stem;
}
);
layerId = m003;
shapes = (
{
closed = 1;
nodes = (
(19,0,l),
(121,720,l),
(777,720,l),
(785,780,l),
(129,780,l),
(208,1340,l),
(960,1340,l),
(968,1400,l),
(156,1400,l),
(-41,0,l)
);
}
);
width = 932;
},
{
anchors = (
{
name = bottom;
pos = (315,0);
},
{
name = top;
pos = (512,1400);
}
);
hints = (
{
horizontal = 1;
origin = (0,9);
target = up;
type = BottomGhost;
},
{
horizontal = 1;
origin = (0,1);
target = (0,4);
type = Stem;
},
{
horizontal = 1;
origin = (0,8);
target = (0,5);
type = Stem;
},
{
origin = (0,9);
target = (0,0);
type = Stem;
}
);
layerId = m004;
shapes = (
{
closed = 1;
nodes = (
(249,0,l),
(334,600,l),
(775,600,l),
(817,900,l),
(376,900,l),
(404,1100,l),
(966,1100,l),
(1008,1400,l),
(146,1400,l),
(-51,0,l)
);
}
);
width = 972;
},
{
anchors = (
{
name = bottom;
pos = (315,0);
},
{
name = top;
pos = (512,1400);
}
);
hints = (
{
horizontal = 1;
origin = (0,9);
target = up;
type = BottomGhost;
},
{
horizontal = 1;
origin = (0,1);
target = (0,4);
type = Stem;
},
{
horizontal = 1;
origin = (0,8);
target = (0,5);
type = Stem;
},
{
origin = (0,9);
target = (0,0);
type = Stem;
}
);
layerId = "79A30733-E9D0-406C-A133-0F4AF5F1D98D";
shapes = (
{
closed = 1;
nodes = (
(111,0,l),
(206,672,l),
(776,672,l),
(798,828,l),
(228,828,l),
(286,1244,l),
(962,1244,l),
(984,1400,l),
(152,1400,l),
(-45,0,l)
);
}
);
width = 948;
},
{
anchors = (
{
name = bottom;
pos = (456,0);
},
{
name = top;
pos = (456,1400);
}
);
hints = (
{
horizontal = 1;
origin = (0,9);
target = up;
type = BottomGhost;
},
{
horizontal = 1;
origin = (0,1);
target = (0,4);
type = Stem;
},
{
horizontal = 1;
origin = (0,8);
target = (0,5);
type = Stem;
},
{
origin = (0,9);
target = (0,0);
type = Stem;
}
);
layerId = "6E59A8CF-B173-4F95-974A-A2EBEECFA9BB";
shapes = (
{
closed = 1;
nodes = (
(252,0,l),
(252,672,l),
(822,672,l),
(822,828,l),
(252,828,l),
(252,1244,l),
(928,1244,l),
(928,1400,l),
(96,1400,l),
(96,0,l)
);
}
);
width = 948;
}
);
metricLeft = H;
unicode = 70;
},
{
glyphname = G;
kernLeft = O;
kernRight = O;
lastChange = "2023-12-28 07:56:49 +0000";
layers = (
{
anchors = (
{
name = bottom;
pos = (719,0);
},
{
name = top;
pos = (719,1400);
}
);
hints = (
{
horizontal = 1;
origin = (0,27);
target = (0,8);
type = Stem;
},
{
horizontal = 1;
origin = (0,4);
target = (0,3);
type = Stem;
},
{
horizontal = 1;
origin = (0,21);
target = (0,14);
type = Stem;
},
{
origin = (0,24);
target = (0,11);
type = Stem;
}
);
layerId = "10BC12B3-5274-42E3-B5BC-F74F362F0DF4";
shapes = (
{
closed = 1;
nodes = (
(1114,-26,o),
(1426,322,o),
(1406,740,c),
(814,740,l),
(814,480,l),
(1052,480,l),
(970,338,o),
(844,274,o),
(722,274,cs),
(506,274,o),
(330,460,o),
(330,696,cs),
(330,952,o),
(520,1126,o),
(720,1126,cs),
(818,1126,o),
(918,1084,o),
(1000,992,c),
(1268,1136,l),
(1116,1338,o),
(918,1424,o),
(724,1424,cs),
(368,1424,o),
(30,1130,o),
(30,702,cs),
(30,304,o),
(326,-26,o),
(718,-26,cs)
);
}
);
width = 1437;
},
{
anchors = (
{
name = bottom;
pos = (738,0);
},
{
name = top;
pos = (740,1400);
}
);
hints = (
{
horizontal = 1;
origin = (0,27);
target = (0,8);
type = Stem;
},
{
horizontal = 1;
origin = (0,4);
target = (0,3);
type = Stem;
},
{
horizontal = 1;
origin = (0,21);
target = (0,14);
type = Stem;
},
{
origin = (0,24);
target = (0,11);
type = Stem;
}
);
layerId = "9AF1F7D9-E035-453E-B2A8-46DE370997D0";
shapes = (
{
closed = 1;
nodes = (
(1100,-26,o),
(1402,272,o),
(1426,642,c),
(886,642,l),
(886,582,l),
(1358,582,l),
(1312,282,o),
(1054,34,o),
(740,34,cs),
(392,34,o),
(110,336,o),
(110,700,cs),
(110,1058,o),
(388,1366,o),
(740,1366,cs),
(930,1366,o),
(1116,1272,o),
(1236,1108,c),
(1290,1138,l),
(1164,1312,o),
(964,1426,o),
(740,1426,cs),
(358,1426,o),
(50,1100,o),
(50,700,cs),
(50,300,o),
(358,-26,o),
(740,-26,cs)
);
}
);
width = 1476;
},
{
anchors = (
{
name = bottom;
pos = (597,0);
},
{
name = top;
pos = (796,1400);
}
);
hints = (
{
horizontal = 1;
origin = (0,27);
target = (0,8);
type = Stem;
},
{
horizontal = 1;
origin = (0,4);
target = (0,3);
type = Stem;
},
{
horizontal = 1;
origin = (0,21);
target = (0,14);
type = Stem;
},
{
origin = (0,24);
target = (0,11);
type = Stem;
}
);
layerId = m003;
shapes = (
{
closed = 1;
nodes = (
(956,-26,o),
(1300,272,o),
(1376,642,c),
(836,642,l),
(827,582,l),
(1299,582,l),
(1211,282,o),
(918,34,o),
(604,34,cs),
(256,34,o),
(17,336,o),
(68,700,cs),
(118,1058,o),
(439,1366,o),
(791,1366,cs),
(981,1366,o),
(1154,1272,o),
(1251,1108,c),
(1309,1138,l),
(1208,1312,o),
(1024,1426,o),
(800,1426,cs),
(418,1426,o),
(64,1100,o),
(8,700,cs),
(-48,300,o),
(214,-26,o),
(596,-26,cs)
);
}
);
width = 1476;
},
{
anchors = (
{
name = bottom;
pos = (578,0);
},
{
name = top;
pos = (775,1400);
}
);
hints = (
{
horizontal = 1;
origin = (0,27);
target = (0,8);
type = Stem;
},
{
horizontal = 1;
origin = (0,4);
target = (0,3);
type = Stem;
},
{
horizontal = 1;
origin = (0,21);
target = (0,14);
type = Stem;
},
{
origin = (0,24);
target = (0,11);
type = Stem;
}
);
layerId = m004;
shapes = (
{
closed = 1;
nodes = (
(970,-26,o),
(1331,322,o),
(1369,740,c),
(777,740,l),
(741,480,l),
(979,480,l),
(877,338,o),
(742,274,o),
(620,274,cs),
(404,274,o),
(254,460,o),
(287,696,cs),
(323,952,o),
(538,1126,o),
(738,1126,cs),
(836,1126,o),
(930,1084,o),
(999,992,c),
(1287,1136,l),
(1164,1338,o),
(978,1424,o),
(784,1424,cs),
(428,1424,o),
(48,1130,o),
(-12,702,cs),
(-68,304,o),
(182,-26,o),
(574,-26,cs)
);
}
);
width = 1436;
},
{
anchors = (
{
name = bottom;
pos = (589,0);
},
{
name = top;
pos = (788,1400);
}
);
hints = (
{
horizontal = 1;
origin = (0,27);
target = (0,8);
type = Stem;
},
{
horizontal = 1;
origin = (0,4);
target = (0,3);
type = Stem;
},
{
horizontal = 1;
origin = (0,21);
target = (0,14);
type = Stem;
},
{
origin = (0,24);
target = (0,11);
type = Stem;
}
);
layerId = "79A30733-E9D0-406C-A133-0F4AF5F1D98D";
shapes = (
{
closed = 1;
nodes = (
(962,-26,o),
(1312,292,o),
(1373,681,c),
(812,681,l),
(793,541,l),
(1171,541,l),
(1077,304,o),
(848,130,o),
(610,130,cs),
(315,130,o),
(112,386,o),
(156,698,cs),
(200,1016,o),
(479,1270,o),
(770,1270,cs),
(923,1270,o),
(1064,1197,o),
(1150,1062,c),
(1300,1137,l),
(1190,1322,o),
(1006,1425,o),
(794,1425,cs),
(422,1425,o),
(58,1112,o),
(0,701,cs),
(-56,302,o),
(201,-26,o),
(587,-26,cs)
);
}
);
width = 1460;
},
{
anchors = (
{
name = bottom;
pos = (730,0);
},
{
name = top;
pos = (732,1400);
}
);
hints = (
{
horizontal = 1;
origin = (0,27);
target = (0,8);
type = Stem;
},
{
horizontal = 1;
origin = (0,4);
target = (0,3);
type = Stem;
},
{
horizontal = 1;
origin = (0,21);
target = (0,14);
type = Stem;
},
{
origin = (0,24);
target = (0,11);
type = Stem;
}
);
layerId = "6E59A8CF-B173-4F95-974A-A2EBEECFA9BB";
shapes = (
{
closed = 1;
nodes = (
(1106,-26,o),
(1412,292,o),
(1418,681,c),
(857,681,l),
(857,541,l),
(1236,541,l),
(1175,304,o),
(970,130,o),
(733,130,cs),
(438,130,o),
(198,386,o),
(198,698,cs),
(198,1016,o),
(441,1270,o),
(732,1270,cs),
(885,1270,o),
(1037,1197,o),
(1142,1062,c),
(1281,1137,l),
(1145,1322,o),
(946,1425,o),
(734,1425,cs),
(362,1425,o),
(42,1112,o),
(42,701,cs),
(42,302,o),
(345,-26,o),
(731,-26,cs)
);
}
);
width = 1460.4;
}
);
metricLeft = O;
metricRight = O;
unicode = 71;
},
{
glyphname = H;
kernLeft = H;
kernRight = H;
lastChange = "2023-12-28 07:56:32 +0000";
layers = (
{
anchors = (
{
name = bottom;
pos = (638,0);
},
{
name = center;
pos = (638,700);
},
{
name = hbar;
pos = (638,1160);
},
{
name = top;
pos = (638,1400);
},
{
name = topleft;
pos = (-10,1400);
}
);
hints = (
{
horizontal = 1;
origin = (0,4);
target = up;
type = BottomGhost;
},
{
horizontal = 1;
origin = (0,6);
target = (0,1);
type = Stem;
},
{
horizontal = 1;
origin = (0,3);
target = down;
type = TopGhost;
},
{
origin = (0,4);
target = (0,5);
type = Stem;
},
{
origin = (0,8);
target = (0,9);
type = Stem;
}
);
layerId = "10BC12B3-5274-42E3-B5BC-F74F362F0DF4";
shapes = (
{
closed = 1;
nodes = (
(886,900,l),
(390,900,l),
(390,1400,l),
(90,1400,l),
(90,0,l),
(390,0,l),
(390,600,l),
(886,600,l),
(886,0,l),
(1186,0,l),
(1186,1400,l),
(886,1400,l)
);
}
);
width = 1276;
},
{
anchors = (
{
name = bottom;
pos = (587,0);
},
{
name = center;
pos = (587,700);
},
{
name = hbar;
pos = (587,1200);
},
{
name = top;
pos = (587,1400);
},
{
name = topleft;
pos = (0,1400);
}
);
hints = (
{
horizontal = 1;
origin = (0,4);
target = up;
type = BottomGhost;
},
{
horizontal = 1;
origin = (0,6);
target = (0,1);
type = Stem;
},
{
horizontal = 1;
origin = (0,3);
target = down;
type = TopGhost;
},
{
origin = (0,4);
target = (0,5);
type = Stem;
},
{
origin = (0,8);
target = (0,9);
type = Stem;
}
);
layerId = "9AF1F7D9-E035-453E-B2A8-46DE370997D0";
shapes = (
{
closed = 1;
nodes = (
(1014,780,l),
(160,780,l),
(160,1400,l),
(100,1400,l),
(100,0,l),
(160,0,l),
(160,720,l),
(1014,720,l),
(1014,0,l),
(1074,0,l),
(1074,1400,l),
(1014,1400,l)
);
}
);
width = 1174;
},
{
anchors = (
{
name = bottom;
pos = (446,0);
},
{
name = center;
pos = (545,700);
},
{
name = hbar;
pos = (615,1200);
},
{
name = top;
pos = (643,1400);
},
{
name = topleft;
pos = (56,1400);
}
);
hints = (
{
horizontal = 1;
origin = (0,4);
target = up;
type = BottomGhost;
},
{
horizontal = 1;
origin = (0,6);
target = (0,1);
type = Stem;
},
{
horizontal = 1;
origin = (0,3);
target = down;
type = TopGhost;
},
{
origin = (0,4);
target = (0,5);
type = Stem;
},
{
origin = (0,8);
target = (0,9);
type = Stem;
}
);
layerId = m003;
shapes = (
{
closed = 1;
nodes = (
(983,780,l),
(129,780,l),
(216,1400,l),
(156,1400,l),
(-41,0,l),
(19,0,l),
(121,720,l),
(975,720,l),
(873,0,l),
(933,0,l),
(1130,1400,l),
(1070,1400,l)
);
}
);
width = 1174;
},
{
anchors = (
{
name = bottom;
pos = (497,0);
},
{
name = center;
pos = (596,700);
},
{
name = hbar;
pos = (660,1160);
},
{
name = top;
pos = (694,1400);
},
{
name = topleft;
pos = (46,1400);
}
);
hints = (
{
horizontal = 1;
origin = (0,4);
target = up;
type = BottomGhost;
},
{
horizontal = 1;
origin = (0,6);
target = (0,1);
type = Stem;
},
{
horizontal = 1;
origin = (0,3);
target = down;
type = TopGhost;
},
{
origin = (0,4);
target = (0,5);
type = Stem;
},
{
origin = (0,8);
target = (0,9);
type = Stem;
}
);
layerId = m004;
shapes = (
{
closed = 1;
nodes = (
(872,900,l),
(376,900,l),
(446,1400,l),
(146,1400,l),
(-51,0,l),
(249,0,l),
(334,600,l),
(830,600,l),
(745,0,l),
(1045,0,l),
(1242,1400,l),
(942,1400,l)
);
}
);
width = 1276;
},
{
anchors = (
{
name = bottom;
pos = (466,0);
},
{
name = center;
pos = (565,700);
},
{
name = hbar;
pos = (633,1184);
},
{
name = top;
pos = (663,1400);
},
{
name = topleft;
pos = (52,1400);
}
);
hints = (
{
horizontal = 1;
origin = (0,4);
target = up;
type = BottomGhost;
},
{
horizontal = 1;
origin = (0,6);
target = (0,1);
type = Stem;
},
{
horizontal = 1;
origin = (0,3);
target = down;
type = TopGhost;
},
{
origin = (0,4);
target = (0,5);
type = Stem;
},
{
origin = (0,8);
target = (0,9);
type = Stem;
}
);
layerId = "79A30733-E9D0-406C-A133-0F4AF5F1D98D";
shapes = (
{
closed = 1;
nodes = (
(939,828,l),
(228,828,l),
(308,1400,l),
(152,1400,l),
(-45,0,l),
(111,0,l),
(206,672,l),
(917,672,l),
(822,0,l),
(978,0,l),
(1175,1400,l),
(1019,1400,l)
);
}
);
width = 1214.8;
},
{
anchors = (
{
name = bottom;
pos = (607,0);
},
{
name = center;
pos = (607,700);
},
{
name = hbar;
pos = (607,1184);
},
{
name = top;
pos = (607,1400);
},
{
name = topleft;
pos = (-4,1400);
}
);
hints = (
{
horizontal = 1;
origin = (0,4);
target = up;
type = BottomGhost;
},
{
horizontal = 1;
origin = (0,6);
target = (0,1);
type = Stem;
},
{
horizontal = 1;
origin = (0,3);
target = down;
type = TopGhost;
},
{
origin = (0,4);
target = (0,5);
type = Stem;
},
{
origin = (0,8);
target = (0,9);
type = Stem;
}
);
layerId = "6E59A8CF-B173-4F95-974A-A2EBEECFA9BB";
shapes = (
{
closed = 1;
nodes = (
(963,828,l),
(252,828,l),
(252,1400,l),
(96,1400,l),
(96,0,l),
(252,0,l),
(252,672,l),
(963,672,l),
(963,0,l),
(1119,0,l),
(1119,1400,l),
(963,1400,l)
);
}
);
width = 1214.8;
}
);
unicode = 72;
},
{
glyphname = I;
kernLeft = H;
kernRight = H;
lastChange = "2023-12-28 07:56:32 +0000";
layers = (
{
anchors = (
{
name = bottom;
pos = (260,0);
},
{
name = ogonek;
pos = (410,0);
},
{
name = top;
pos = (260,1400);
},
{
name = topleft;
pos = (-20,1400);
}
);
hints = (
{
horizontal = 1;
origin = (0,3);
target = up;
type = BottomGhost;
},
{
horizontal = 1;
origin = (0,2);
target = down;
type = TopGhost;
},
{
origin = (0,3);
target = (0,0);
type = Stem;
}
);
layerId = "10BC12B3-5274-42E3-B5BC-F74F362F0DF4";
shapes = (
{
closed = 1;
nodes = (
(410,0,l),
(410,1400,l),
(110,1400,l),
(110,0,l)
);
}
);
width = 520;
},
{
anchors = (
{
name = bottom;
pos = (150,0);
},
{
name = ogonek;
pos = (180,0);
},
{
name = top;
pos = (150,1400);
},
{
name = topleft;
pos = (-10,1400);
}
);
hints = (
{
horizontal = 1;
origin = (0,3);
target = up;
type = BottomGhost;
},
{
horizontal = 1;
origin = (0,2);
target = down;
type = TopGhost;
},
{
origin = (0,3);
target = (0,0);
type = Stem;
}
);
layerId = "9AF1F7D9-E035-453E-B2A8-46DE370997D0";
shapes = (
{
closed = 1;
nodes = (
(180,0,l),
(180,1400,l),
(120,1400,l),
(120,0,l)
);
}
);
width = 300;
},
{
anchors = (
{
name = bottom;
pos = (9,0);
},
{
name = ogonek;
pos = (39,0);
},
{
name = top;
pos = (206,1400);
},
{
name = topleft;
pos = (46,1400);
}
);
hints = (
{
horizontal = 1;
origin = (0,3);
target = up;
type = BottomGhost;
},
{
horizontal = 1;
origin = (0,2);
target = down;
type = TopGhost;
},
{
origin = (0,3);
target = (0,0);
type = Stem;
}
);
layerId = m003;
shapes = (
{
closed = 1;
nodes = (
(39,0,l),
(236,1400,l),
(176,1400,l),
(-21,0,l)
);
}
);
width = 300;
},
{
anchors = (
{
name = bottom;
pos = (119,0);
},
{
name = ogonek;
pos = (269,0);
},
{
name = top;
pos = (316,1400);
},
{
name = topleft;
pos = (36,1400);
}
);
hints = (
{
horizontal = 1;
origin = (0,3);
target = up;
type = BottomGhost;
},
{
horizontal = 1;
origin = (0,2);
target = down;
type = TopGhost;
},
{
origin = (0,3);
target = (0,0);
type = Stem;
}
);
layerId = m004;
shapes = (
{
closed = 1;
nodes = (
(269,0,l),
(466,1400,l),
(166,1400,l),
(-31,0,l)
);
}
);
width = 520;
},
{
anchors = (
{
name = bottom;
pos = (53,0);
},
{
name = ogonek;
pos = (131,0);
},
{
name = top;
pos = (250,1400);
},
{
name = topleft;
pos = (42,1400);
}
);
hints = (
{
horizontal = 1;
origin = (0,3);
target = up;
type = BottomGhost;
},
{
horizontal = 1;
origin = (0,2);
target = down;
type = TopGhost;
},
{
origin = (0,3);
target = (0,0);
type = Stem;
}
);
layerId = "79A30733-E9D0-406C-A133-0F4AF5F1D98D";
shapes = (
{
closed = 1;
nodes = (
(131,0,l),
(328,1400,l),
(172,1400,l),
(-25,0,l)
);
}
);
width = 388;
},
{
anchors = (
{
name = bottom;
pos = (194,0);
},
{
name = ogonek;
pos = (272,0);
},
{
name = top;
pos = (194,1400);
},
{
name = topleft;
pos = (-14,1400);
}
);
hints = (
{
horizontal = 1;
origin = (0,3);
target = up;
type = BottomGhost;
},
{
horizontal = 1;
origin = (0,2);
target = down;
type = TopGhost;
},
{
origin = (0,3);
target = (0,0);
type = Stem;
}
);
layerId = "6E59A8CF-B173-4F95-974A-A2EBEECFA9BB";
shapes = (
{
closed = 1;
nodes = (
(272,0,l),
(272,1400,l),
(116,1400,l),
(116,0,l)
);
}
);
width = 388;
}
);
metricLeft = "=H+20";
metricRight = "=H+20";
unicode = 73;
},
{
glyphname = J;
kernLeft = J;
kernRight = J;
lastChange = "2023-12-28 07:56:32 +0000";
layers = (
{
anchors = (
{
name = bottom;
pos = (437,0);
},
{
name = top;
pos = (634,1400);
}
);
hints = (
{
horizontal = 1;
origin = (0,15);
target = (0,8);
type = Stem;
},
{
horizontal = 1;
origin = (0,4);
target = down;
type = TopGhost;
},
{
origin = (0,5);
target = (0,2);
type = Stem;
}
);
layerId = "10BC12B3-5274-42E3-B5BC-F74F362F0DF4";
shapes = (
{
closed = 1;
nodes = (
(572,-26,o),
(784,186,o),
(784,446,cs),
(784,1400,l),
(484,1400,l),
(484,446,ls),
(484,352,o),
(406,274,o),
(312,274,cs),
(260,274,o),
(224,296,o),
(202,314,c),
(10,84,l),
(94,12,o),
(202,-26,o),
(312,-26,cs)
);
}
);
width = 874;
},
{
anchors = (
{
name = bottom;
pos = (339,0);
},
{
name = top;
pos = (558,1400);
}
);
hints = (
{
horizontal = 1;
origin = (0,15);
target = (0,8);
type = Stem;
},
{
horizontal = 1;
origin = (0,4);
target = down;
type = TopGhost;
},
{
origin = (0,5);
target = (0,2);
type = Stem;
}
);
layerId = "9AF1F7D9-E035-453E-B2A8-46DE370997D0";
shapes = (
{
closed = 1;
nodes = (
(430,-26,o),
(588,152,o),
(588,346,cs),
(588,1400,l),
(528,1400,l),
(528,346,ls),
(528,184,o),
(396,34,o),
(234,34,cs),
(166,34,o),
(100,58,o),
(48,102,c),
(10,56,l),
(74,0,o),
(152,-26,o),
(234,-26,cs)
);
}
);
width = 688;
},
{
anchors = (
{
name = bottom;
pos = (198,0);
},
{
name = top;
pos = (614,1400);
}
);
hints = (
{
horizontal = 1;
origin = (0,15);
target = (0,8);
type = Stem;
},
{
horizontal = 1;
origin = (0,4);
target = down;
type = TopGhost;
},
{
origin = (0,5);
target = (0,2);
type = Stem;
}
);
layerId = m003;
shapes = (
{
closed = 1;
nodes = (
(286,-26,o),
(469,152,o),
(496,346,cs),
(644,1400,l),
(584,1400,l),
(436,346,ls),
(413,184,o),
(260,34,o),
(98,34,cs),
(30,34,o),
(-32,58,o),
(-78,102,c),
(-123,56,l),
(-67,0,o),
(8,-26,o),
(90,-26,cs)
);
}
);
width = 688;
},
{
anchors = (
{
name = bottom;
pos = (296,0);
},
{
name = top;
pos = (690,1400);
}
);
hints = (
{
horizontal = 1;
origin = (0,15);
target = (0,8);
type = Stem;
},
{
horizontal = 1;
origin = (0,4);
target = down;
type = TopGhost;
},
{
origin = (0,5);
target = (0,2);
type = Stem;
}
);
layerId = m004;
shapes = (
{
closed = 1;
nodes = (
(428,-26,o),
(670,186,o),
(706,446,cs),
(840,1400,l),
(540,1400,l),
(406,446,ls),
(393,352,o),
(304,274,o),
(210,274,cs),
(158,274,o),
(125,296,o),
(106,314,c),
(-119,84,l),
(-45,12,o),
(58,-26,o),
(168,-26,cs)
);
}
);
width = 874;
},
{
anchors = (
{
name = bottom;
pos = (237,0);
},
{
name = top;
pos = (644,1400);
}
);
hints = (
{
horizontal = 1;
origin = (0,15);
target = (0,8);
type = Stem;
},
{
horizontal = 1;
origin = (0,4);
target = down;
type = TopGhost;
},
{
origin = (0,5);
target = (0,2);
type = Stem;
}
);
layerId = "79A30733-E9D0-406C-A133-0F4AF5F1D98D";
shapes = (
{
closed = 1;
nodes = (
(343,-26,o),
(549,166,o),
(580,386,cs),
(722,1400,l),
(566,1400,l),
(424,386,ls),
(405,251,o),
(278,130,o),
(143,130,cs),
(81,130,o),
(31,153,o),
(-4,187,c),
(-121,67,l),
(-58,5,o),
(28,-26,o),
(121,-26,cs)
);
}
);
width = 762.4;
},
{
anchors = (
{
name = bottom;
pos = (378,0);
},
{
name = top;
pos = (588,1400);
}
);
hints = (
{
horizontal = 1;
origin = (0,15);
target = (0,8);
type = Stem;
},
{
horizontal = 1;
origin = (0,4);
target = down;
type = TopGhost;
},
{
origin = (0,5);
target = (0,2);
type = Stem;
}
);
layerId = "6E59A8CF-B173-4F95-974A-A2EBEECFA9BB";
shapes = (
{
closed = 1;
nodes = (
(487,-26,o),
(666,166,o),
(666,386,cs),
(666,1400,l),
(510,1400,l),
(510,386,ls),
(510,251,o),
(400,130,o),
(265,130,cs),
(204,130,o),
(150,153,o),
(110,187,c),
(10,67,l),
(82,5,o),
(172,-26,o),
(265,-26,cs)
);
}
);
width = 762.4;
}
);
metricRight = H;
unicode = 74;
},
{
glyphname = K;
kernLeft = H;
kernRight = K;
lastChange = "2023-12-28 07:56:32 +0000";
layers = (
{
anchors = (
{
name = bottom;
pos = (585,0);
},
{
name = top;
pos = (585,1400);
}
);
hints = (
{
horizontal = 1;
origin = (0,6);
target = up;
type = BottomGhost;
},
{
horizontal = 1;
origin = (0,5);
target = down;
type = TopGhost;
},
{
origin = (0,6);
target = (0,7);
type = Stem;
}
);
layerId = "10BC12B3-5274-42E3-B5BC-F74F362F0DF4";
shapes = (
{
closed = 1;
nodes = (
(626,740,l),
(1180,1400,l),
(788,1400,l),
(390,924,l),
(390,1400,l),
(90,1400,l),
(90,0,l),
(390,0,l),
(390,458,l),
(430,506,l),
(788,0,l),
(1180,0,l)
);
}
);
width = 1180;
},
{
anchors = (
{
name = bottom;
pos = (472,0);
},
{
name = top;
pos = (472,1400);
}
);
hints = (
{
horizontal = 1;
origin = (0,6);
target = up;
type = BottomGhost;
},
{
horizontal = 1;
origin = (0,5);
target = down;
type = TopGhost;
},
{
origin = (0,6);
target = (0,7);
type = Stem;
}
);
layerId = "9AF1F7D9-E035-453E-B2A8-46DE370997D0";
shapes = (
{
closed = 1;
nodes = (
(358,738,l),
(914,1400,l),
(836,1400,l),
(160,594,l),
(160,1400,l),
(100,1400,l),
(100,0,l),
(160,0,l),
(160,500,l),
(318,690,l),
(828,0,l),
(904,0,l)
);
}
);
width = 914;
},
{
anchors = (
{
name = bottom;
pos = (331,0);
},
{
name = top;
pos = (528,1400);
}
);
hints = (
{
horizontal = 1;
origin = (0,6);
target = up;
type = BottomGhost;
},
{
horizontal = 1;
origin = (0,5);
target = down;
type = TopGhost;
},
{
origin = (0,6);
target = (0,7);
type = Stem;
}
);
layerId = m003;
shapes = (
{
closed = 1;
nodes = (
(321,738,l),
(970,1400,l),
(892,1400,l),
(103,594,l),
(216,1400,l),
(156,1400,l),
(-41,0,l),
(19,0,l),
(90,500,l),
(274,690,l),
(687,0,l),
(763,0,l)
);
}
);
width = 914;
},
{
anchors = (
{
name = bottom;
pos = (444,0);
},
{
name = top;
pos = (641,1400);
}
);
hints = (
{
horizontal = 1;
origin = (0,6);
target = up;
type = BottomGhost;
},
{
horizontal = 1;
origin = (0,5);
target = down;
type = TopGhost;
},
{
origin = (0,6);
target = (0,7);
type = Stem;
}
);
layerId = m004;
shapes = (
{
closed = 1;
nodes = (
(589,740,l),
(1236,1400,l),
(844,1400,l),
(379,924,l),
(446,1400,l),
(146,1400,l),
(-51,0,l),
(249,0,l),
(314,458,l),
(361,506,l),
(647,0,l),
(1039,0,l)
);
}
);
width = 1180;
},
{
anchors = (
{
name = bottom;
pos = (376,0);
},
{
name = top;
pos = (573,1400);
}
);
hints = (
{
horizontal = 1;
origin = (0,6);
target = up;
type = BottomGhost;
},
{
horizontal = 1;
origin = (0,5);
target = down;
type = TopGhost;
},
{
origin = (0,6);
target = (0,7);
type = Stem;
}
);
layerId = "79A30733-E9D0-406C-A133-0F4AF5F1D98D";
shapes = (
{
closed = 1;
nodes = (
(428,739,l),
(1076,1400,l),
(873,1400,l),
(213,726,l),
(308,1400,l),
(152,1400,l),
(-45,0,l),
(111,0,l),
(180,483,l),
(309,616,l),
(671,0,l),
(873,0,l)
);
}
);
width = 1020.4;
},
{
anchors = (
{
name = bottom;
pos = (517,0);
},
{
name = top;
pos = (517,1400);
}
);
hints = (
{
horizontal = 1;
origin = (0,6);
target = up;
type = BottomGhost;
},
{
horizontal = 1;
origin = (0,5);
target = down;
type = TopGhost;
},
{
origin = (0,6);
target = (0,7);
type = Stem;
}
);
layerId = "6E59A8CF-B173-4F95-974A-A2EBEECFA9BB";
shapes = (
{
closed = 1;
nodes = (
(465,739,l),
(1020,1400,l),
(817,1400,l),
(252,726,l),
(252,1400,l),
(96,1400,l),
(96,0,l),
(252,0,l),
(252,483,l),
(363,616,l),
(812,0,l),
(1014,0,l)
);
}
);
width = 1020.4;
}
);
metricLeft = H;
unicode = 75;
},
{
glyphname = L;
kernLeft = H;
kernRight = L;
lastChange = "2023-12-28 07:56:32 +0000";
layers = (
{
anchors = (
{
name = bottom;
pos = (515,0);
},
{
name = center;
pos = (505,700);
},
{
name = top;
pos = (240,1400);
},
{
name = topright;
pos = (574,1102);
}
);
hints = (
{
horizontal = 1;
origin = (0,5);
target = (0,2);
type = Stem;
},
{
horizontal = 1;
origin = (0,4);
target = down;
type = TopGhost;
},
{
origin = (0,5);
target = (0,2);
type = Stem;
}
);
layerId = "10BC12B3-5274-42E3-B5BC-F74F362F0DF4";
shapes = (
{
closed = 1;
nodes = (
(940,0,l),
(940,300,l),
(390,300,l),
(390,1400,l),
(90,1400,l),
(90,0,l)
);
}
);
width = 960;
},
{
anchors = (
{
name = bottom;
pos = (481,0);
},
{
name = center;
pos = (471,700);
},
{
name = top;
pos = (130,1400);
},
{
name = topright;
pos = (429,1102);
}
);
hints = (
{
horizontal = 1;
origin = (0,5);
target = (0,2);
type = Stem;
},
{
horizontal = 1;
origin = (0,4);
target = down;
type = TopGhost;
},
{
origin = (0,5);
target = (0,2);
type = Stem;
}
);
layerId = "9AF1F7D9-E035-453E-B2A8-46DE370997D0";
shapes = (
{
closed = 1;
nodes = (
(850,0,l),
(850,60,l),
(160,60,l),
(160,1400,l),
(100,1400,l),
(100,0,l)
);
}
);
width = 870;
},
{
anchors = (
{
name = bottom;
pos = (340,0);
},
{
name = center;
pos = (429,700);
},
{
name = top;
pos = (186,1400);
},
{
name = topright;
pos = (443,1102);
}
);
hints = (
{
horizontal = 1;
origin = (0,5);
target = (0,2);
type = Stem;
},
{
horizontal = 1;
origin = (0,4);
target = down;
type = TopGhost;
},
{
origin = (0,5);
target = (0,2);
type = Stem;
}
);
layerId = m003;
shapes = (
{
closed = 1;
nodes = (
(709,0,l),
(718,60,l),
(28,60,l),
(216,1400,l),
(156,1400,l),
(-41,0,l)
);
}
);
width = 870;
},
{
anchors = (
{
name = bottom;
pos = (374,0);
},
{
name = center;
pos = (463,700);
},
{
name = top;
pos = (296,1400);
},
{
name = topright;
pos = (588,1102);
}
);
hints = (
{
horizontal = 1;
origin = (0,5);
target = (0,2);
type = Stem;
},
{
horizontal = 1;
origin = (0,4);
target = down;
type = TopGhost;
},
{
origin = (0,5);
target = (0,2);
type = Stem;
}
);
layerId = m004;
shapes = (
{
closed = 1;
nodes = (
(799,0,l),
(842,300,l),
(292,300,l),
(446,1400,l),
(146,1400,l),
(-51,0,l)
);
}
);
width = 960;
},
{
anchors = (
{
name = bottom;
pos = (354,0);
},
{
name = center;
pos = (443,700);
},
{
name = top;
pos = (230,1400);
},
{
name = topright;
pos = (501,1102);
}
);
hints = (
{
horizontal = 1;
origin = (0,5);
target = (0,2);
type = Stem;
},
{
horizontal = 1;
origin = (0,4);
target = down;
type = TopGhost;
},
{
origin = (0,5);
target = (0,2);
type = Stem;
}
);
layerId = "79A30733-E9D0-406C-A133-0F4AF5F1D98D";
shapes = (
{
closed = 1;
nodes = (
(745,0,l),
(768,156,l),
(134,156,l),
(308,1400,l),
(152,1400,l),
(-45,0,l)
);
}
);
width = 906;
},
{
anchors = (
{
name = bottom;
pos = (495,0);
},
{
name = center;
pos = (485,700);
},
{
name = top;
pos = (174,1400);
},
{
name = topright;
pos = (487,1102);
}
);
hints = (
{
horizontal = 1;
origin = (0,5);
target = (0,2);
type = Stem;
},
{
horizontal = 1;
origin = (0,4);
target = down;
type = TopGhost;
},
{
origin = (0,5);
target = (0,2);
type = Stem;
}
);
layerId = "6E59A8CF-B173-4F95-974A-A2EBEECFA9BB";
shapes = (
{
closed = 1;
nodes = (
(886,0,l),
(886,156,l),
(252,156,l),
(252,1400,l),
(96,1400,l),
(96,0,l)
);
}
);
width = 906;
}
);
metricLeft = H;
unicode = 76;
},
{
glyphname = Lslash;
kernLeft = H;
kernRight = L;
lastChange = "2023-12-28 07:56:48 +0000";
layers = (
{
layerId = "9AF1F7D9-E035-453E-B2A8-46DE370997D0";
shapes = (
{
closed = 1;
nodes = (
(198,1400,l),
(198,687,l),
(20,584,l),
(50,532,l),
(198,618,l),
(198,0,l),
(948,0,l),
(948,60,l),
(258,60,l),
(258,652,l),
(686,900,l),
(656,952,l),
(258,722,l),
(258,1400,l)
);
}
);
width = 968;
},
{
layerId = "10BC12B3-5274-42E3-B5BC-F74F362F0DF4";
shapes = (
{
closed = 1;
nodes = (
(249,1400,l),
(249,826,l),
(10,688,l),
(160,428,l),
(249,479,l),
(249,0,l),
(1099,0,l),
(1099,300,l),
(549,300,l),
(549,652,l),
(981,902,l),
(831,1161,l),
(549,999,l),
(549,1400,l)
);
}
);
width = 1119;
},
{
layerId = m003;
shapes = (
{
closed = 1;
nodes = (
(253,1400,l),
(153,687,l),
(-39,584,l),
(-17,532,l),
(143,618,l),
(56,0,l),
(806,0,l),
(815,60,l),
(125,60,l),
(208,652,l),
(671,900,l),
(648,952,l),
(218,722,l),
(313,1400,l)
);
}
);
width = 967;
},
{
layerId = m004;
shapes = (
{
closed = 1;
nodes = (
(304,1400,l),
(224,826,l),
(-35,688,l),
(79,428,l),
(175,479,l),
(107,0,l),
(957,0,l),
(1000,300,l),
(450,300,l),
(499,652,l),
(966,902,l),
(853,1161,l),
(548,999,l),
(604,1400,l)
);
}
);
width = 1118;
},
{
layerId = "79A30733-E9D0-406C-A133-0F4AF5F1D98D";
shapes = (
{
closed = 1;
nodes = (
(273,1400,l),
(181,743,l),
(-37,626,l),
(21,490,l),
(156,562,l),
(76,0,l),
(866,0,l),
(889,156,l),
(255,156,l),
(324,652,l),
(789,901,l),
(730,1036,l),
(350,833,l),
(429,1400,l)
);
}
);
width = 1027;
},
{
layerId = "6E59A8CF-B173-4F95-974A-A2EBEECFA9BB";
shapes = (
{
closed = 1;
nodes = (
(218,1400,l),
(218,743,l),
(16,626,l),
(94,490,l),
(218,562,l),
(218,0,l),
(1008,0,l),
(1008,156,l),
(374,156,l),
(374,652,l),
(804,901,l),
(726,1036,l),
(374,833,l),
(374,1400,l)
);
}
);
width = 1028.4;
}
);
metricLeft = "=H-80";
metricRight = L;
unicode = 321;
},
{
glyphname = M;
kernLeft = M;
kernRight = M;
lastChange = "2023-12-28 07:56:48 +0000";
layers = (
{
anchors = (
{
name = bottom;
pos = (872,0);
},
{
name = top;
pos = (872,1400);
}
);
hints = (
{
horizontal = 1;
origin = (0,12);
target = up;
type = BottomGhost;
},
{
horizontal = 1;
origin = (0,11);
target = down;
type = TopGhost;
}
);
layerId = "10BC12B3-5274-42E3-B5BC-F74F362F0DF4";
shapes = (
{
closed = 1;
nodes = (
(336,0,l),
(482,756,l),
(768,0,l),
(976,0,l),
(1262,756,l),
(1408,0,l),
(1714,0,l),
(1442,1400,l),
(1186,1400,l),
(872,574,l),
(558,1400,l),
(302,1400,l),
(30,0,l)
);
}
);
width = 1744;
},
{
anchors = (
{
name = bottom;
pos = (766,0);
},
{
name = top;
pos = (766,1400);
}
);
hints = (
{
horizontal = 1;
origin = (0,12);
target = up;
type = BottomGhost;
},
{
horizontal = 1;
origin = (0,11);
target = down;
type = TopGhost;
}
);
layerId = "9AF1F7D9-E035-453E-B2A8-46DE370997D0";
shapes = (
{
closed = 1;
nodes = (
(100,0,l),
(358,1228,l),
(750,138,l),
(780,138,l),
(1172,1228,l),
(1430,0,l),
(1492,0,l),
(1200,1400,l),
(1174,1400,l),
(766,268,l),
(356,1400,l),
(330,1400,l),
(40,0,l)
);
}
);
width = 1532;
},
{
anchors = (
{
name = bottom;
pos = (625,0);
},
{
name = top;
pos = (822,1400);
}
);
hints = (
{
horizontal = 1;
origin = (0,12);
target = up;
type = BottomGhost;
},
{
horizontal = 1;
origin = (0,11);
target = down;
type = TopGhost;
}
);
layerId = m003;
shapes = (
{
closed = 1;
nodes = (
(-41,0,l),
(390,1228,l),
(629,138,l),
(659,138,l),
(1204,1228,l),
(1289,0,l),
(1351,0,l),
(1256,1400,l),
(1230,1400,l),
(663,268,l),
(412,1400,l),
(386,1400,l),
(-101,0,l)
);
}
);
width = 1531;
},
{
anchors = (
{
name = bottom;
pos = (731,0);
},
{
name = top;
pos = (928,1400);
}
);
hints = (
{
horizontal = 1;
origin = (0,12);
target = up;
type = BottomGhost;
},
{
horizontal = 1;
origin = (0,11);
target = down;
type = TopGhost;
}
);
layerId = m004;
shapes = (
{
closed = 1;
nodes = (
(195,0,l),
(448,756,l),
(627,0,l),
(835,0,l),
(1228,756,l),
(1267,0,l),
(1573,0,l),
(1498,1400,l),
(1242,1400,l),
(812,574,l),
(614,1400,l),
(358,1400,l),
(-111,0,l)
);
}
);
width = 1743;
},
{
anchors = (
{
name = bottom;
pos = (667,0);
},
{
name = top;
pos = (864,1400);
}
);
hints = (
{
horizontal = 1;
origin = (0,12);
target = up;
type = BottomGhost;
},
{
horizontal = 1;
origin = (0,11);
target = down;
type = TopGhost;
}
);
layerId = "79A30733-E9D0-406C-A133-0F4AF5F1D98D";
shapes = (
{
closed = 1;
nodes = (
(53,0,l),
(413,1039,l),
(628,83,l),
(729,83,l),
(1214,1039,l),
(1280,0,l),
(1440,0,l),
(1353,1400,l),
(1235,1400,l),
(723,390,l),
(493,1400,l),
(375,1400,l),
(-105,0,l)
);
}
);
width = 1616;
},
{
anchors = (
{
name = bottom;
pos = (808,0);
},
{
name = top;
pos = (808,1400);
}
);
hints = (
{
horizontal = 1;
origin = (0,12);
target = up;
type = BottomGhost;
},
{
horizontal = 1;
origin = (0,11);
target = down;
type = TopGhost;
}
);
layerId = "6E59A8CF-B173-4F95-974A-A2EBEECFA9BB";
shapes = (
{
closed = 1;
nodes = (
(194,0,l),
(408,1039,l),
(757,83,l),
(858,83,l),
(1208,1039,l),
(1421,0,l),
(1581,0,l),
(1297,1400,l),
(1179,1400,l),
(808,390,l),
(437,1400,l),
(319,1400,l),
(36,0,l)
);
}
);
width = 1616.8;
}
);
metricLeft = "=H-60";
metricRight = "=H-60";
unicode = 77;
},
{
glyphname = N;
kernLeft = H;
kernRight = H;
lastChange = "2023-12-28 07:56:49 +0000";
layers = (
{
anchors = (
{
name = bottom;
pos = (658,0);
},
{
name = bottomright;
pos = (1226,0);
},
{
name = top;
pos = (658,1400);
}
);
hints = (
{
horizontal = 1;
origin = (0,9);
target = up;
type = BottomGhost;
},
{
horizontal = 1;
origin = (0,8);
target = down;
type = TopGhost;
},
{
origin = (0,9);
target = (0,0);
type = Stem;
},
{
origin = (0,6);
target = (0,3);
type = Stem;
}
);
layerId = "10BC12B3-5274-42E3-B5BC-F74F362F0DF4";
shapes = (
{
closed = 1;
nodes = (
(390,0,l),
(390,858,l),
(902,0,l),
(1226,0,l),
(1226,1400,l),
(926,1400,l),
(926,542,l),
(414,1400,l),
(90,1400,l),
(90,0,l)
);
}
);
width = 1316;
},
{
anchors = (
{
name = bottom;
pos = (589,0);
},
{
name = bottomright;
pos = (1078,0);
},
{
name = top;
pos = (589,1400);
}
);
hints = (
{
horizontal = 1;
origin = (0,9);
target = up;
type = BottomGhost;
},
{
horizontal = 1;
origin = (0,8);
target = down;
type = TopGhost;
},
{
origin = (0,9);
target = (0,0);
type = Stem;
},
{
origin = (0,6);
target = (0,3);
type = Stem;
}
);
layerId = "9AF1F7D9-E035-453E-B2A8-46DE370997D0";
shapes = (
{
closed = 1;
nodes = (
(160,0,l),
(160,1292,l),
(1014,0,l),
(1078,0,l),
(1078,1400,l),
(1018,1400,l),
(1018,108,l),
(166,1400,l),
(100,1400,l),
(100,0,l)
);
}
);
width = 1178;
},
{
anchors = (
{
name = bottom;
pos = (448,0);
},
{
name = bottomright;
pos = (937,0);
},
{
name = top;
pos = (645,1400);
}
);
hints = (
{
horizontal = 1;
origin = (0,9);
target = up;
type = BottomGhost;
},
{
horizontal = 1;
origin = (0,8);
target = down;
type = TopGhost;
},
{
origin = (0,9);
target = (0,0);
type = Stem;
},
{
origin = (0,6);
target = (0,3);
type = Stem;
}
);
layerId = m003;
shapes = (
{
closed = 1;
nodes = (
(19,0,l),
(201,1292,l),
(873,0,l),
(937,0,l),
(1134,1400,l),
(1074,1400,l),
(893,108,l),
(222,1400,l),
(156,1400,l),
(-41,0,l)
);
}
);
width = 1178;
},
{
anchors = (
{
name = bottom;
pos = (517,0);
},
{
name = bottomright;
pos = (1085,0);
},
{
name = top;
pos = (714,1400);
}
);
hints = (
{
horizontal = 1;
origin = (0,9);
target = up;
type = BottomGhost;
},
{
horizontal = 1;
origin = (0,8);
target = down;
type = TopGhost;
},
{
origin = (0,9);
target = (0,0);
type = Stem;
},
{
origin = (0,6);
target = (0,3);
type = Stem;
}
);
layerId = m004;
shapes = (
{
closed = 1;
nodes = (
(249,0,l),
(370,858,l),
(761,0,l),
(1085,0,l),
(1282,1400,l),
(982,1400,l),
(862,542,l),
(470,1400,l),
(146,1400,l),
(-51,0,l)
);
}
);
width = 1316;
},
{
anchors = (
{
name = bottom;
pos = (476,0);
},
{
name = bottomright;
pos = (996,0);
},
{
name = top;
pos = (673,1400);
}
);
hints = (
{
horizontal = 1;
origin = (0,9);
target = up;
type = BottomGhost;
},
{
horizontal = 1;
origin = (0,8);
target = down;
type = TopGhost;
},
{
origin = (0,9);
target = (0,0);
type = Stem;
},
{
origin = (0,6);
target = (0,3);
type = Stem;
}
);
layerId = "79A30733-E9D0-406C-A133-0F4AF5F1D98D";
shapes = (
{
closed = 1;
nodes = (
(111,0,l),
(269,1118,l),
(828,0,l),
(996,0,l),
(1193,1400,l),
(1037,1400,l),
(881,282,l),
(321,1400,l),
(152,1400,l),
(-45,0,l)
);
}
);
width = 1233;
},
{
anchors = (
{
name = bottom;
pos = (617,0);
},
{
name = bottomright;
pos = (1137,0);
},
{
name = top;
pos = (617,1400);
}
);
hints = (
{
horizontal = 1;
origin = (0,9);
target = up;
type = BottomGhost;
},
{
horizontal = 1;
origin = (0,8);
target = down;
type = TopGhost;
},
{
origin = (0,9);
target = (0,0);
type = Stem;
},
{
origin = (0,6);
target = (0,3);
type = Stem;
}
);
layerId = "6E59A8CF-B173-4F95-974A-A2EBEECFA9BB";
shapes = (
{
closed = 1;
nodes = (
(252,0,l),
(252,1118,l),
(969,0,l),
(1137,0,l),
(1137,1400,l),
(981,1400,l),
(981,282,l),
(265,1400,l),
(96,1400,l),
(96,0,l)
);
}
);
width = 1233.2;
}
);
metricLeft = H;
metricRight = H;
unicode = 78;
},
{
glyphname = O;
kernLeft = O;
kernRight = O;
lastChange = "2023-12-28 07:56:32 +0000";
layers = (
{
anchors = (
{
name = bottom;
pos = (720,0);
},
{
name = center;
pos = (720,700);
},
{
name = ogonek;
pos = (1336,10);
},
{
name = top;
pos = (720,1400);
},
{
name = topleft;
pos = (-30,1400);
},
{
name = topright;
pos = (1470,1400);
}
);
hints = (
{
horizontal = 1;
origin = (0,11);
target = (1,11);
type = Stem;
},
{
horizontal = 1;
origin = (0,5);
target = (1,5);
type = Stem;
},
{
origin = (0,8);
target = (1,2);
type = Stem;
},
{
origin = (1,8);
target = (0,2);
type = Stem;
}
);
layerId = "10BC12B3-5274-42E3-B5BC-F74F362F0DF4";
shapes = (
{
closed = 1;
nodes = (
(1100,-26,o),
(1410,300,o),
(1410,700,cs),
(1410,1100,o),
(1100,1426,o),
(720,1426,cs),
(340,1426,o),
(30,1100,o),
(30,700,cs),
(30,300,o),
(340,-26,o),
(720,-26,cs)
);
},
{
closed = 1;
nodes = (
(506,274,o),
(330,466,o),
(330,700,cs),
(330,934,o),
(506,1126,o),
(720,1126,cs),
(934,1126,o),
(1110,934,o),
(1110,700,cs),
(1110,466,o),
(934,274,o),
(720,274,cs)
);
}
);
width = 1440;
},
{
anchors = (
{
name = bottom;
pos = (740,0);
},
{
name = center;
pos = (740,700);
},
{
name = ogonek;
pos = (1356,10);
},
{
name = top;
pos = (740,1400);
},
{
name = topleft;
pos = (-10,1400);
},
{
name = topright;
pos = (1490,1400);
}
);
hints = (
{
horizontal = 1;
origin = (0,11);
target = (1,11);
type = Stem;
},
{
horizontal = 1;
origin = (0,5);
target = (1,5);
type = Stem;
},
{
origin = (0,8);
target = (1,2);
type = Stem;
},
{
origin = (1,8);
target = (0,2);
type = Stem;
}
);
layerId = "9AF1F7D9-E035-453E-B2A8-46DE370997D0";
shapes = (
{
closed = 1;
nodes = (
(1120,-26,o),
(1430,300,o),
(1430,700,cs),
(1430,1100,o),
(1120,1426,o),
(740,1426,cs),
(360,1426,o),
(50,1100,o),
(50,700,cs),
(50,300,o),
(360,-26,o),
(740,-26,cs)
);
},
{
closed = 1;
nodes = (
(392,34,o),
(110,334,o),
(110,700,cs),
(110,1060,o),
(388,1366,o),
(740,1366,cs),
(1088,1366,o),
(1370,1064,o),
(1370,700,cs),
(1370,340,o),
(1092,34,o),
(740,34,cs)
);
}
);
width = 1480;
},
{
anchors = (
{
name = bottom;
pos = (599,0);
},
{
name = center;
pos = (698,700);
},
{
name = ogonek;
pos = (1217,10);
},
{
name = top;
pos = (796,1400);
},
{
name = topleft;
pos = (46,1400);
},
{
name = topright;
pos = (1546,1400);
}
);
hints = (
{
horizontal = 1;
origin = (0,11);
target = (1,11);
type = Stem;
},
{
horizontal = 1;
origin = (0,5);
target = (1,5);
type = Stem;
},
{
origin = (0,8);
target = (1,2);
type = Stem;
},
{
origin = (1,8);
target = (0,2);
type = Stem;
}
);
layerId = m003;
shapes = (
{
closed = 1;
nodes = (
(976,-26,o),
(1332,300,o),
(1388,700,cs),
(1444,1100,o),
(1180,1426,o),
(800,1426,cs),
(420,1426,o),
(64,1100,o),
(8,700,cs),
(-48,300,o),
(216,-26,o),
(596,-26,cs)
);
},
{
closed = 1;
nodes = (
(256,34,o),
(16,334,o),
(68,700,cs),
(118,1060,o),
(439,1366,o),
(791,1366,cs),
(1139,1366,o),
(1379,1064,o),
(1328,700,cs),
(1277,340,o),
(956,34,o),
(604,34,cs)
);
}
);
width = 1480;
},
{
anchors = (
{
name = bottom;
pos = (579,0);
},
{
name = center;
pos = (678,700);
},
{
name = ogonek;
pos = (1197,10);
},
{
name = top;
pos = (776,1400);
},
{
name = topleft;
pos = (26,1400);
},
{
name = topright;
pos = (1526,1400);
}
);
hints = (
{
horizontal = 1;
origin = (0,11);
target = (1,11);
type = Stem;
},
{
horizontal = 1;
origin = (0,5);
target = (1,5);
type = Stem;
},
{
origin = (0,8);
target = (1,2);
type = Stem;
},
{
origin = (1,8);
target = (0,2);
type = Stem;
}
);
layerId = m004;
shapes = (
{
closed = 1;
nodes = (
(956,-26,o),
(1312,300,o),
(1368,700,cs),
(1424,1100,o),
(1160,1426,o),
(780,1426,cs),
(400,1426,o),
(44,1100,o),
(-12,700,cs),
(-68,300,o),
(196,-26,o),
(576,-26,cs)
);
},
{
closed = 1;
nodes = (
(404,274,o),
(255,466,o),
(288,700,cs),
(321,934,o),
(524,1126,o),
(738,1126,cs),
(952,1126,o),
(1101,934,o),
(1068,700,cs),
(1035,466,o),
(832,274,o),
(618,274,cs)
);
}
);
width = 1440;
},
{
anchors = (
{
name = bottom;
pos = (591,0);
},
{
name = center;
pos = (690,700);
},
{
name = ogonek;
pos = (1209,10);
},
{
name = top;
pos = (788,1400);
},
{
name = topleft;
pos = (38,1400);
},
{
name = topright;
pos = (1538,1400);
}
);
hints = (
{
horizontal = 1;
origin = (0,11);
target = (1,11);
type = Stem;
},
{
horizontal = 1;
origin = (0,5);
target = (1,5);
type = Stem;
},
{
origin = (0,8);
target = (1,2);
type = Stem;
},
{
origin = (1,8);
target = (0,2);
type = Stem;
}
);
layerId = "79A30733-E9D0-406C-A133-0F4AF5F1D98D";
shapes = (
{
closed = 1;
nodes = (
(968,-26,o),
(1324,300,o),
(1380,700,cs),
(1436,1100,o),
(1172,1426,o),
(792,1426,cs),
(412,1426,o),
(56,1100,o),
(0,700,cs),
(-56,300,o),
(208,-26,o),
(588,-26,cs)
);
},
{
closed = 1;
nodes = (
(315,130,o),
(112,387,o),
(156,700,cs),
(199,1010,o),
(473,1270,o),
(770,1270,cs),
(1064,1270,o),
(1268,1012,o),
(1224,700,cs),
(1180,390,o),
(906,130,o),
(610,130,cs)
);
}
);
width = 1464;
},
{
anchors = (
{
name = bottom;
pos = (732,0);
},
{
name = center;
pos = (732,700);
},
{
name = ogonek;
pos = (1348,10);
},
{
name = top;
pos = (732,1400);
},
{
name = topleft;
pos = (-18,1400);
},
{
name = topright;
pos = (1482,1400);
}
);
hints = (
{
horizontal = 1;
origin = (0,11);
target = (1,11);
type = Stem;
},
{
horizontal = 1;
origin = (0,5);
target = (1,5);
type = Stem;
},
{
origin = (0,8);
target = (1,2);
type = Stem;
},
{
origin = (1,8);
target = (0,2);
type = Stem;
}
);
layerId = "6E59A8CF-B173-4F95-974A-A2EBEECFA9BB";
shapes = (
{
closed = 1;
nodes = (
(1112,-26,o),
(1422,300,o),
(1422,700,cs),
(1422,1100,o),
(1112,1426,o),
(732,1426,cs),
(352,1426,o),
(42,1100,o),
(42,700,cs),
(42,300,o),
(352,-26,o),
(732,-26,cs)
);
},
{
closed = 1;
nodes = (
(438,130,o),
(198,387,o),
(198,700,cs),
(198,1010,o),
(435,1270,o),
(732,1270,cs),
(1026,1270,o),
(1266,1012,o),
(1266,700,cs),
(1266,390,o),
(1029,130,o),
(732,130,cs)
);
}
);
width = 1464;
}
);
unicode = 79;
},
{
glyphname = Oslash;
kernLeft = O;
kernRight = O;
lastChange = "2023-12-28 07:56:32 +0000";
layers = (
{
anchors = (
{
name = bottom;
pos = (720,0);
},
{
name = top;
pos = (720,1400);
}
);
hints = (
{
horizontal = 1;
origin = (0,3);
target = (2,9);
type = Stem;
},
{
horizontal = 1;
origin = (0,15);
target = (1,5);
type = Stem;
},
{
origin = (0,18);
target = (1,2);
type = Stem;
},
{
origin = (2,6);
target = (0,6);
type = Stem;
}
);
layerId = "10BC12B3-5274-42E3-B5BC-F74F362F0DF4";
shapes = (
{
closed = 1;
nodes = (
(498,14,l),
(568,-12,o),
(642,-26,o),
(720,-26,cs),
(1100,-26,o),
(1410,300,o),
(1410,700,cs),
(1410,906,o),
(1328,1092,o),
(1196,1226,c),
(1282,1372,l),
(1022,1522,l),
(944,1388,l),
(874,1412,o),
(800,1426,o),
(720,1426,cs),
(340,1426,o),
(30,1100,o),
(30,700,cs),
(30,494,o),
(114,308,o),
(244,176,c),
(160,28,l),
(420,-122,l)
);
},
{
closed = 1;
nodes = (
(358,522,o),
(330,608,o),
(330,700,cs),
(330,934,o),
(506,1126,o),
(720,1126,cs),
(744,1126,o),
(768,1124,o),
(790,1120,c),
(404,452,l)
);
},
{
closed = 1;
nodes = (
(698,274,o),
(674,276,o),
(652,282,c),
(1038,948,l),
(1084,878,o),
(1110,792,o),
(1110,700,cs),
(1110,466,o),
(934,274,o),
(720,274,cs)
);
}
);
width = 1440;
},
{
anchors = (
{
name = bottom;
pos = (740,0);
},
{
name = top;
pos = (740,1400);
}
);
hints = (
{
horizontal = 1;
origin = (0,3);
target = (2,9);
type = Stem;
},
{
horizontal = 1;
origin = (0,15);
target = (1,5);
type = Stem;
},
{
origin = (0,18);
target = (1,2);
type = Stem;
},
{
origin = (2,6);
target = (0,6);
type = Stem;
}
);
layerId = "9AF1F7D9-E035-453E-B2A8-46DE370997D0";
shapes = (
{
closed = 1;
nodes = (
(408,64,l),
(508,8,o),
(620,-26,o),
(740,-26,cs),
(1120,-26,o),
(1430,300,o),
(1430,700,cs),
(1430,952,o),
(1308,1174,o),
(1124,1304,c),
(1198,1432,l),
(1146,1462,l),
(1074,1336,l),
(974,1394,o),
(862,1426,o),
(740,1426,cs),
(360,1426,o),
(50,1100,o),
(50,700,cs),
(50,450,o),
(174,228,o),
(358,96,c),
(284,-32,l),
(336,-62,l)
);
},
{
closed = 1;
nodes = (
(220,270,o),
(110,472,o),
(110,700,cs),
(110,1060,o),
(388,1366,o),
(740,1366,cs),
(850,1366,o),
(954,1336,o),
(1044,1284,c),
(388,150,l)
);
},
{
closed = 1;
nodes = (
(632,34,o),
(528,64,o),
(438,116,c),
(1094,1252,l),
(1260,1130,o),
(1370,928,o),
(1370,700,cs),
(1370,340,o),
(1092,34,o),
(740,34,cs)
);
}
);
width = 1480;
},
{
anchors = (
{
name = bottom;
pos = (599,0);
},
{
name = top;
pos = (796,1400);
}
);
hints = (
{
horizontal = 1;
origin = (0,3);
target = (2,9);
type = Stem;
},
{
horizontal = 1;
origin = (0,15);
target = (1,5);
type = Stem;
},
{
origin = (0,18);
target = (1,2);
type = Stem;
},
{
origin = (2,6);
target = (0,6);
type = Stem;
}
);
layerId = m003;
shapes = (
{
closed = 1;
nodes = (
(276,64,l),
(369,8,o),
(476,-26,o),
(596,-26,cs),
(976,-26,o),
(1332,300,o),
(1388,700,cs),
(1423,952,o),
(1332,1174,o),
(1167,1304,c),
(1259,1432,l),
(1211,1462,l),
(1121,1336,l),
(1029,1394,o),
(922,1426,o),
(800,1426,cs),
(420,1426,o),
(64,1100,o),
(8,700,cs),
(-27,450,o),
(66,228,o),
(231,96,c),
(139,-32,l),
(187,-62,l)
);
},
{
closed = 1;
nodes = (
(117,270,o),
(36,472,o),
(68,700,cs),
(118,1060,o),
(439,1366,o),
(791,1366,cs),
(901,1366,o),
(1001,1336,o),
(1084,1284,c),
(269,150,l)
);
},
{
closed = 1;
nodes = (
(496,34,o),
(396,64,o),
(314,116,c),
(1129,1252,l),
(1278,1130,o),
(1360,928,o),
(1328,700,cs),
(1277,340,o),
(956,34,o),
(604,34,cs)
);
}
);
width = 1480;
},
{
anchors = (
{
name = bottom;
pos = (579,0);
},
{
name = top;
pos = (776,1400);
}
);
hints = (
{
horizontal = 1;
origin = (0,3);
target = (2,9);
type = Stem;
},
{
horizontal = 1;
origin = (0,15);
target = (1,5);
type = Stem;
},
{
origin = (0,18);
target = (1,2);
type = Stem;
},
{
origin = (2,6);
target = (0,6);
type = Stem;
}
);
layerId = m004;
shapes = (
{
closed = 1;
nodes = (
(359,14,l),
(426,-12,o),
(498,-26,o),
(576,-26,cs),
(956,-26,o),
(1312,300,o),
(1368,700,cs),
(1397,906,o),
(1341,1092,o),
(1228,1226,c),
(1334,1372,l),
(1095,1522,l),
(999,1388,l),
(932,1412,o),
(860,1426,o),
(780,1426,cs),
(400,1426,o),
(44,1100,o),
(-12,700,cs),
(-41,494,o),
(17,308,o),
(128,176,c),
(23,28,l),
(262,-122,l)
);
},
{
closed = 1;
nodes = (
(291,522,o),
(275,608,o),
(288,700,cs),
(321,934,o),
(524,1126,o),
(738,1126,cs),
(762,1126,o),
(785,1124,o),
(807,1120,c),
(327,452,l)
);
},
{
closed = 1;
nodes = (
(596,274,o),
(572,276,o),
(551,282,c),
(1031,948,l),
(1067,878,o),
(1081,792,o),
(1068,700,cs),
(1035,466,o),
(832,274,o),
(618,274,cs)
);
}
);
width = 1440;
},
{
anchors = (
{
name = bottom;
pos = (591,0);
},
{
name = top;
pos = (788,1400);
}
);
hints = (
{
horizontal = 1;
origin = (0,3);
target = (2,9);
type = Stem;
},
{
horizontal = 1;
origin = (0,15);
target = (1,5);
type = Stem;
},
{
origin = (0,18);
target = (1,2);
type = Stem;
},
{
origin = (2,6);
target = (0,6);
type = Stem;
}
);
layerId = "79A30733-E9D0-406C-A133-0F4AF5F1D98D";
shapes = (
{
closed = 1;
nodes = (
(309,44,l),
(392,0,o),
(485,-26,o),
(588,-26,cs),
(968,-26,o),
(1324,300,o),
(1380,700,cs),
(1413,934,o),
(1336,1141,o),
(1191,1273,c),
(1289,1408,l),
(1165,1486,l),
(1072,1357,l),
(990,1401,o),
(897,1426,o),
(792,1426,cs),
(412,1426,o),
(56,1100,o),
(0,700,cs),
(-33,468,o),
(46,260,o),
(190,128,c),
(93,-8,l),
(217,-86,l)
);
},
{
closed = 1;
nodes = (
(187,371,o),
(132,526,o),
(156,700,cs),
(199,1010,o),
(473,1270,o),
(770,1270,cs),
(845,1270,o),
(915,1251,o),
(973,1218,c),
(292,271,l)
);
},
{
closed = 1;
nodes = (
(536,130,o),
(466,149,o),
(409,182,c),
(1090,1130,l),
(1194,1029,o),
(1248,874,o),
(1224,700,cs),
(1180,390,o),
(906,130,o),
(610,130,cs)
);
}
);
width = 1464;
},
{
anchors = (
{
name = bottom;
pos = (732,0);
},
{
name = top;
pos = (732,1400);
}
);
hints = (
{
horizontal = 1;
origin = (0,3);
target = (2,9);
type = Stem;
},
{
horizontal = 1;
origin = (0,15);
target = (1,5);
type = Stem;
},
{
origin = (0,18);
target = (1,2);
type = Stem;
},
{
origin = (2,6);
target = (0,6);
type = Stem;
}
);
layerId = "6E59A8CF-B173-4F95-974A-A2EBEECFA9BB";
shapes = (
{
closed = 1;
nodes = (
(444,44,l),
(532,0,o),
(629,-26,o),
(732,-26,cs),
(1112,-26,o),
(1422,300,o),
(1422,700,cs),
(1422,934,o),
(1316,1141,o),
(1153,1273,c),
(1232,1408,l),
(1096,1486,l),
(1022,1357,l),
(934,1401,o),
(837,1426,o),
(732,1426,cs),
(352,1426,o),
(42,1100,o),
(42,700,cs),
(42,468,o),
(150,260,o),
(312,128,c),
(234,-8,l),
(370,-86,l)
);
},
{
closed = 1;
nodes = (
(275,371,o),
(198,526,o),
(198,700,cs),
(198,1010,o),
(435,1270,o),
(732,1270,cs),
(808,1270,o),
(880,1251,o),
(942,1218,c),
(394,271,l)
);
},
{
closed = 1;
nodes = (
(658,130,o),
(586,149,o),
(524,182,c),
(1072,1130,l),
(1190,1029,o),
(1266,874,o),
(1266,700,cs),
(1266,390,o),
(1029,130,o),
(732,130,cs)
);
}
);
width = 1464;
}
);
metricLeft = O;
metricRight = O;
unicode = 216;
},
{
glyphname = OE;
kernLeft = O;
kernRight = E;
lastChange = "2023-12-28 07:56:32 +0000";
layers = (
{
anchors = (
{
name = bottom;
pos = (998,0);
},
{
name = top;
pos = (998,1400);
}
);
hints = (
{
horizontal = 1;
origin = (0,24);
target = (1,11);
type = Stem;
},
{
horizontal = 1;
origin = (0,7);
target = (0,10);
type = Stem;
},
{
horizontal = 1;
origin = (0,14);
target = (0,11);
type = Stem;
},
{
horizontal = 1;
origin = (0,3);
target = (0,6);
type = Stem;
},
{
horizontal = 1;
origin = (0,18);
target = (1,5);
type = Stem;
},
{
origin = (0,21);
target = (1,2);
type = Stem;
},
{
origin = (1,8);
target = (0,6);
type = Stem;
}
);
layerId = "10BC12B3-5274-42E3-B5BC-F74F362F0DF4";
shapes = (
{
closed = 1;
nodes = (
(866,-26,o),
(1002,22,o),
(1114,104,c),
(1114,0,l),
(1946,0,l),
(1946,300,l),
(1414,300,l),
(1414,550,l),
(1850,550,l),
(1850,850,l),
(1414,850,l),
(1414,1100,l),
(1946,1100,l),
(1946,1400,l),
(1114,1400,l),
(1114,1296,l),
(1002,1378,o),
(866,1426,o),
(720,1426,cs),
(340,1426,o),
(30,1100,o),
(30,700,cs),
(30,300,o),
(340,-26,o),
(720,-26,cs)
);
},
{
closed = 1;
nodes = (
(506,274,o),
(330,466,o),
(330,700,cs),
(330,934,o),
(506,1126,o),
(720,1126,cs),
(934,1126,o),
(1110,934,o),
(1110,700,cs),
(1110,466,o),
(934,274,o),
(720,274,cs)
);
}
);
width = 1986;
},
{
anchors = (
{
name = bottom;
pos = (1073,0);
},
{
name = top;
pos = (1073,1400);
}
);
hints = (
{
horizontal = 1;
origin = (0,24);
target = (1,11);
type = Stem;
},
{
horizontal = 1;
origin = (0,7);
target = (0,10);
type = Stem;
},
{
horizontal = 1;
origin = (0,14);
target = (0,11);
type = Stem;
},
{
horizontal = 1;
origin = (0,3);
target = (0,6);
type = Stem;
},
{
horizontal = 1;
origin = (0,18);
target = (1,5);
type = Stem;
},
{
origin = (0,21);
target = (1,2);
type = Stem;
},
{
origin = (0,3);
target = (0,6);
type = Stem;
}
);
layerId = "9AF1F7D9-E035-453E-B2A8-46DE370997D0";
shapes = (
{
closed = 1;
nodes = (
(1020,-26,o),
(1262,152,o),
(1370,404,c),
(1370,0,l),
(2076,0,l),
(2076,60,l),
(1430,60,l),
(1430,670,l),
(1980,670,l),
(1980,730,l),
(1430,730,l),
(1430,1340,l),
(2076,1340,l),
(2076,1400,l),
(1370,1400,l),
(1370,996,l),
(1262,1248,o),
(1020,1426,o),
(740,1426,cs),
(360,1426,o),
(50,1100,o),
(50,700,cs),
(50,300,o),
(360,-26,o),
(740,-26,cs)
);
},
{
closed = 1;
nodes = (
(392,34,o),
(110,334,o),
(110,700,cs),
(110,1060,o),
(388,1366,o),
(740,1366,cs),
(1088,1366,o),
(1370,1064,o),
(1370,700,cs),
(1370,340,o),
(1092,34,o),
(740,34,cs)
);
}
);
width = 2126;
},
{
anchors = (
{
name = bottom;
pos = (932,0);
},
{
name = top;
pos = (1129,1400);
}
);
hints = (
{
horizontal = 1;
origin = (0,24);
target = (1,11);
type = Stem;
},
{
horizontal = 1;
origin = (0,7);
target = (0,10);
type = Stem;
},
{
horizontal = 1;
origin = (0,14);
target = (0,11);
type = Stem;
},
{
horizontal = 1;
origin = (0,3);
target = (0,6);
type = Stem;
},
{
horizontal = 1;
origin = (0,18);
target = (1,5);
type = Stem;
},
{
origin = (0,21);
target = (1,2);
type = Stem;
},
{
origin = (0,3);
target = (0,6);
type = Stem;
}
);
layerId = m003;
shapes = (
{
closed = 1;
nodes = (
(876,-26,o),
(1143,152,o),
(1286,404,c),
(1229,0,l),
(1935,0,l),
(1944,60,l),
(1298,60,l),
(1384,670,l),
(1934,670,l),
(1942,730,l),
(1392,730,l),
(1478,1340,l),
(2124,1340,l),
(2132,1400,l),
(1426,1400,l),
(1369,996,l),
(1297,1248,o),
(1080,1426,o),
(800,1426,cs),
(420,1426,o),
(64,1100,o),
(8,700,cs),
(-48,300,o),
(216,-26,o),
(596,-26,cs)
);
},
{
closed = 1;
nodes = (
(256,34,o),
(16,334,o),
(68,700,cs),
(118,1060,o),
(439,1366,o),
(791,1366,cs),
(1139,1366,o),
(1379,1064,o),
(1328,700,cs),
(1277,340,o),
(956,34,o),
(604,34,cs)
);
}
);
width = 2126;
},
{
anchors = (
{
name = bottom;
pos = (857,0);
},
{
name = top;
pos = (1054,1400);
}
);
hints = (
{
horizontal = 1;
origin = (0,24);
target = (1,11);
type = Stem;
},
{
horizontal = 1;
origin = (0,7);
target = (0,10);
type = Stem;
},
{
horizontal = 1;
origin = (0,14);
target = (0,11);
type = Stem;
},
{
horizontal = 1;
origin = (0,3);
target = (0,6);
type = Stem;
},
{
horizontal = 1;
origin = (0,18);
target = (1,5);
type = Stem;
},
{
origin = (0,21);
target = (1,2);
type = Stem;
},
{
origin = (1,8);
target = (0,6);
type = Stem;
}
);
layerId = m004;
shapes = (
{
closed = 1;
nodes = (
(722,-26,o),
(865,22,o),
(988,104,c),
(973,0,l),
(1805,0,l),
(1848,300,l),
(1316,300,l),
(1351,550,l),
(1787,550,l),
(1829,850,l),
(1393,850,l),
(1428,1100,l),
(1960,1100,l),
(2002,1400,l),
(1170,1400,l),
(1156,1296,l),
(1055,1378,o),
(926,1426,o),
(780,1426,cs),
(400,1426,o),
(44,1100,o),
(-12,700,cs),
(-68,300,o),
(196,-26,o),
(576,-26,cs)
);
},
{
closed = 1;
nodes = (
(404,274,o),
(255,466,o),
(288,700,cs),
(321,934,o),
(524,1126,o),
(738,1126,cs),
(952,1126,o),
(1101,934,o),
(1068,700,cs),
(1035,466,o),
(832,274,o),
(618,274,cs)
);
}
);
width = 1986;
},
{
anchors = (
{
name = bottom;
pos = (902,0);
},
{
name = top;
pos = (1099,1400);
}
);
hints = (
{
horizontal = 1;
origin = (0,24);
target = (1,11);
type = Stem;
},
{
horizontal = 1;
origin = (0,7);
target = (0,10);
type = Stem;
},
{
horizontal = 1;
origin = (0,14);
target = (0,11);
type = Stem;
},
{
horizontal = 1;
origin = (0,3);
target = (0,6);
type = Stem;
},
{
horizontal = 1;
origin = (0,18);
target = (1,5);
type = Stem;
},
{
origin = (0,21);
target = (1,2);
type = Stem;
},
{
origin = (0,3);
target = (0,6);
type = Stem;
}
);
layerId = "79A30733-E9D0-406C-A133-0F4AF5F1D98D";
shapes = (
{
closed = 1;
nodes = (
(814,-26,o),
(1032,100,o),
(1167,284,c),
(1127,0,l),
(1883,0,l),
(1906,156,l),
(1305,156,l),
(1371,622,l),
(1875,622,l),
(1897,778,l),
(1392,778,l),
(1458,1244,l),
(2058,1244,l),
(2080,1400,l),
(1324,1400,l),
(1284,1116,l),
(1200,1300,o),
(1018,1426,o),
(792,1426,cs),
(412,1426,o),
(56,1100,o),
(0,700,cs),
(-56,300,o),
(208,-26,o),
(588,-26,cs)
);
},
{
closed = 1;
nodes = (
(315,130,o),
(112,387,o),
(156,700,cs),
(199,1010,o),
(473,1270,o),
(770,1270,cs),
(1064,1270,o),
(1268,1012,o),
(1224,700,cs),
(1180,390,o),
(906,130,o),
(610,130,cs)
);
}
);
width = 2070;
},
{
anchors = (
{
name = bottom;
pos = (1043,0);
},
{
name = top;
pos = (1043,1400);
}
);
hints = (
{
horizontal = 1;
origin = (0,24);
target = (1,11);
type = Stem;
},
{
horizontal = 1;
origin = (0,7);
target = (0,10);
type = Stem;
},
{
horizontal = 1;
origin = (0,14);
target = (0,11);
type = Stem;
},
{
horizontal = 1;
origin = (0,3);
target = (0,6);
type = Stem;
},
{
horizontal = 1;
origin = (0,18);
target = (1,5);
type = Stem;
},
{
origin = (0,21);
target = (1,2);
type = Stem;
},
{
origin = (0,3);
target = (0,6);
type = Stem;
}
);
layerId = "6E59A8CF-B173-4F95-974A-A2EBEECFA9BB";
shapes = (
{
closed = 1;
nodes = (
(958,-26,o),
(1158,100,o),
(1268,284,c),
(1268,0,l),
(2024,0,l),
(2024,156,l),
(1424,156,l),
(1424,622,l),
(1928,622,l),
(1928,778,l),
(1424,778,l),
(1424,1244,l),
(2024,1244,l),
(2024,1400,l),
(1268,1400,l),
(1268,1116,l),
(1158,1300,o),
(958,1426,o),
(732,1426,cs),
(352,1426,o),
(42,1100,o),
(42,700,cs),
(42,300,o),
(352,-26,o),
(732,-26,cs)
);
},
{
closed = 1;
nodes = (
(438,130,o),
(198,387,o),
(198,700,cs),
(198,1010,o),
(435,1270,o),
(732,1270,cs),
(1026,1270,o),
(1266,1012,o),
(1266,700,cs),
(1266,390,o),
(1029,130,o),
(732,130,cs)
);
}
);
width = 2070;
}
);
metricLeft = O;
metricRight = E;
unicode = 338;
},
{
glyphname = P;
kernLeft = H;
kernRight = P;
lastChange = "2023-12-28 07:56:32 +0000";
layers = (
{
anchors = (
{
name = bottom;
pos = (540,0);
},
{
name = top;
pos = (540,1400);
}
);
hints = (
{
horizontal = 1;
origin = (0,10);
target = up;
type = BottomGhost;
},
{
horizontal = 1;
origin = (0,1);
target = (1,8);
type = Stem;
},
{
horizontal = 1;
origin = (0,9);
target = (1,0);
type = Stem;
},
{
origin = (0,10);
target = (0,0);
type = Stem;
},
{
origin = (1,4);
target = (0,5);
type = Stem;
}
);
layerId = "10BC12B3-5274-42E3-B5BC-F74F362F0DF4";
shapes = (
{
closed = 1;
nodes = (
(390,0,l),
(390,544,l),
(618,544,ls),
(840,544,o),
(1030,736,o),
(1030,972,cs),
(1030,1204,o),
(848,1400,o),
(618,1400,cs),
(90,1400,l),
(90,0,l)
);
},
{
closed = 1;
nodes = (
(390,1144,l),
(584,1144,ls),
(664,1144,o),
(730,1076,o),
(730,994,cs),
(730,912,o),
(664,844,o),
(584,844,cs),
(390,844,l)
);
}
);
width = 1050;
},
{
anchors = (
{
name = bottom;
pos = (480,0);
},
{
name = top;
pos = (480,1400);
}
);
hints = (
{
horizontal = 1;
origin = (0,10);
target = up;
type = BottomGhost;
},
{
horizontal = 1;
origin = (0,1);
target = (1,8);
type = Stem;
},
{
horizontal = 1;
origin = (0,9);
target = (1,0);
type = Stem;
},
{
origin = (0,10);
target = (0,0);
type = Stem;
},
{
origin = (1,4);
target = (0,5);
type = Stem;
}
);
layerId = "9AF1F7D9-E035-453E-B2A8-46DE370997D0";
shapes = (
{
closed = 1;
nodes = (
(160,0,l),
(160,600,l),
(508,600,ls),
(722,600,o),
(900,770,o),
(900,1000,cs),
(900,1228,o),
(728,1400,o),
(508,1400,cs),
(100,1400,l),
(100,0,l)
);
},
{
closed = 1;
nodes = (
(160,1340,l),
(508,1340,ls),
(690,1340,o),
(840,1196,o),
(840,1000,cs),
(840,804,o),
(690,660,o),
(508,660,cs),
(160,660,l)
);
}
);
width = 920;
},
{
anchors = (
{
name = bottom;
pos = (339,0);
},
{
name = top;
pos = (536,1400);
}
);
hints = (
{
horizontal = 1;
origin = (0,10);
target = up;
type = BottomGhost;
},
{
horizontal = 1;
origin = (0,1);
target = (1,8);
type = Stem;
},
{
horizontal = 1;
origin = (0,9);
target = (1,0);
type = Stem;
},
{
origin = (0,10);
target = (0,0);
type = Stem;
},
{
origin = (1,4);
target = (0,5);
type = Stem;
}
);
layerId = m003;
shapes = (
{
closed = 1;
nodes = (
(19,0,l),
(104,600,l),
(452,600,ls),
(666,600,o),
(868,770,o),
(900,1000,cs),
(932,1228,o),
(784,1400,o),
(564,1400,cs),
(156,1400,l),
(-41,0,l)
);
},
{
closed = 1;
nodes = (
(208,1340,l),
(556,1340,ls),
(738,1340,o),
(868,1196,o),
(840,1000,cs),
(812,804,o),
(642,660,o),
(460,660,cs),
(112,660,l)
);
}
);
width = 920;
},
{
anchors = (
{
name = bottom;
pos = (399,0);
},
{
name = top;
pos = (596,1400);
}
);
hints = (
{
horizontal = 1;
origin = (0,10);
target = up;
type = BottomGhost;
},
{
horizontal = 1;
origin = (0,1);
target = (1,8);
type = Stem;
},
{
horizontal = 1;
origin = (0,9);
target = (1,0);
type = Stem;
},
{
origin = (0,10);
target = (0,0);
type = Stem;
},
{
origin = (1,4);
target = (0,5);
type = Stem;
}
);
layerId = m004;
shapes = (
{
closed = 1;
nodes = (
(249,0,l),
(326,544,l),
(554,544,ls),
(776,544,o),
(993,736,o),
(1026,972,cs),
(1059,1204,o),
(904,1400,o),
(674,1400,cs),
(146,1400,l),
(-51,0,l)
);
},
{
closed = 1;
nodes = (
(410,1144,l),
(604,1144,ls),
(684,1144,o),
(741,1076,o),
(729,994,cs),
(718,912,o),
(642,844,o),
(562,844,cs),
(368,844,l)
);
}
);
width = 1050;
},
{
anchors = (
{
name = bottom;
pos = (363,0);
},
{
name = top;
pos = (560,1400);
}
);
hints = (
{
horizontal = 1;
origin = (0,10);
target = up;
type = BottomGhost;
},
{
horizontal = 1;
origin = (0,1);
target = (1,8);
type = Stem;
},
{
horizontal = 1;
origin = (0,9);
target = (1,0);
type = Stem;
},
{
origin = (0,10);
target = (0,0);
type = Stem;
},
{
origin = (1,4);
target = (0,5);
type = Stem;
}
);
layerId = "79A30733-E9D0-406C-A133-0F4AF5F1D98D";
shapes = (
{
closed = 1;
nodes = (
(111,0,l),
(193,578,l),
(493,578,ls),
(710,578,o),
(918,756,o),
(950,989,cs),
(983,1218,o),
(832,1400,o),
(608,1400,cs),
(152,1400,l),
(-45,0,l)
);
},
{
closed = 1;
nodes = (
(289,1262,l),
(575,1262,ls),
(716,1262,o),
(817,1148,o),
(796,998,cs),
(774,847,o),
(642,734,o),
(501,734,cs),
(214,734,l)
);
}
);
width = 972;
},
{
anchors = (
{
name = bottom;
pos = (504,0);
},
{
name = top;
pos = (504,1400);
}
);
hints = (
{
horizontal = 1;
origin = (0,10);
target = up;
type = BottomGhost;
},
{
horizontal = 1;
origin = (0,1);
target = (1,8);
type = Stem;
},
{
horizontal = 1;
origin = (0,9);
target = (1,0);
type = Stem;
},
{
origin = (0,10);
target = (0,0);
type = Stem;
},
{
origin = (1,4);
target = (0,5);
type = Stem;
}
);
layerId = "6E59A8CF-B173-4F95-974A-A2EBEECFA9BB";
shapes = (
{
closed = 1;
nodes = (
(252,0,l),
(252,578,l),
(552,578,ls),
(769,578,o),
(952,756,o),
(952,989,cs),
(952,1218,o),
(776,1400,o),
(552,1400,cs),
(96,1400,l),
(96,0,l)
);
},
{
closed = 1;
nodes = (
(252,1262,l),
(538,1262,ls),
(680,1262,o),
(796,1148,o),
(796,998,cs),
(796,847,o),
(680,734,o),
(538,734,cs),
(252,734,l)
);
}
);
width = 972;
}
);
metricLeft = H;
unicode = 80;
},
{
glyphname = Thorn;
kernLeft = l;
kernRight = P;
lastChange = "2023-12-28 07:56:32 +0000";
layers = (
{
anchors = (
{
name = bottom;
pos = (540,0);
},
{
name = top;
pos = (540,1400);
}
);
hints = (
{
horizontal = 1;
origin = (0,12);
target = up;
type = BottomGhost;
},
{
horizontal = 1;
origin = (0,1);
target = (1,8);
type = Stem;
},
{
horizontal = 1;
origin = (1,0);
target = (0,9);
type = Stem;
},
{
horizontal = 1;
origin = (0,11);
target = down;
type = TopGhost;
},
{
origin = (0,12);
target = (0,0);
type = Stem;
},
{
origin = (1,4);
target = (0,5);
type = Stem;
}
);
layerId = "10BC12B3-5274-42E3-B5BC-F74F362F0DF4";
shapes = (
{
closed = 1;
nodes = (
(390,0,l),
(390,272,l),
(618,272,ls),
(840,272,o),
(1030,464,o),
(1030,700,cs),
(1030,932,o),
(848,1128,o),
(618,1128,cs),
(390,1128,l),
(390,1400,l),
(90,1400,l),
(90,0,l)
);
},
{
closed = 1;
nodes = (
(390,872,l),
(584,872,ls),
(664,872,o),
(730,804,o),
(730,722,cs),
(730,640,o),
(664,572,o),
(584,572,cs),
(390,572,l)
);
}
);
width = 1070;
},
{
anchors = (
{
name = bottom;
pos = (480,0);
},
{
name = top;
pos = (480,1400);
}
);
hints = (
{
horizontal = 1;
origin = (0,12);
target = up;
type = BottomGhost;
},
{
horizontal = 1;
origin = (0,1);
target = (1,8);
type = Stem;
},
{
horizontal = 1;
origin = (1,0);
target = (0,9);
type = Stem;
},
{
horizontal = 1;
origin = (0,11);
target = down;
type = TopGhost;
},
{
origin = (0,12);
target = (0,0);
type = Stem;
},
{
origin = (1,4);
target = (0,5);
type = Stem;
}
);
layerId = "9AF1F7D9-E035-453E-B2A8-46DE370997D0";
shapes = (
{
closed = 1;
nodes = (
(160,0,l),
(160,300,l),
(508,300,ls),
(722,300,o),
(900,470,o),
(900,700,cs),
(900,928,o),
(728,1100,o),
(508,1100,cs),
(160,1100,l),
(160,1400,l),
(100,1400,l),
(100,0,l)
);
},
{
closed = 1;
nodes = (
(160,1040,l),
(508,1040,ls),
(690,1040,o),
(840,896,o),
(840,700,cs),
(840,504,o),
(690,360,o),
(508,360,cs),
(160,360,l)
);
}
);
width = 960;
},
{
anchors = (
{
name = bottom;
pos = (339,0);
},
{
name = top;
pos = (536,1400);
}
);
hints = (
{
horizontal = 1;
origin = (0,12);
target = up;
type = BottomGhost;
},
{
horizontal = 1;
origin = (0,1);
target = (1,8);
type = Stem;
},
{
horizontal = 1;
origin = (1,0);
target = (0,9);
type = Stem;
},
{
horizontal = 1;
origin = (0,11);
target = down;
type = TopGhost;
},
{
origin = (0,12);
target = (0,0);
type = Stem;
},
{
origin = (1,4);
target = (0,5);
type = Stem;
}
);
layerId = m003;
shapes = (
{
closed = 1;
nodes = (
(19,0,l),
(62,300,l),
(410,300,ls),
(624,300,o),
(826,470,o),
(858,700,cs),
(890,928,o),
(742,1100,o),
(522,1100,cs),
(174,1100,l),
(216,1400,l),
(156,1400,l),
(-41,0,l)
);
},
{
closed = 1;
nodes = (
(166,1040,l),
(514,1040,ls),
(696,1040,o),
(825,896,o),
(798,700,cs),
(770,504,o),
(600,360,o),
(418,360,cs),
(70,360,l)
);
}
);
width = 960;
},
{
anchors = (
{
name = bottom;
pos = (399,0);
},
{
name = top;
pos = (596,1400);
}
);
hints = (
{
horizontal = 1;
origin = (0,12);
target = up;
type = BottomGhost;
},
{
horizontal = 1;
origin = (0,1);
target = (1,8);
type = Stem;
},
{
horizontal = 1;
origin = (1,0);
target = (0,9);
type = Stem;
},
{
horizontal = 1;
origin = (0,11);
target = down;
type = TopGhost;
},
{
origin = (0,12);
target = (0,0);
type = Stem;
},
{
origin = (1,4);
target = (0,5);
type = Stem;
}
);
layerId = m004;
shapes = (
{
closed = 1;
nodes = (
(249,0,l),
(288,272,l),
(516,272,ls),
(738,272,o),
(955,464,o),
(988,700,cs),
(1020,932,o),
(866,1128,o),
(636,1128,cs),
(408,1128,l),
(446,1400,l),
(146,1400,l),
(-51,0,l)
);
},
{
closed = 1;
nodes = (
(372,872,l),
(566,872,ls),
(646,872,o),
(702,804,o),
(691,722,cs),
(679,640,o),
(604,572,o),
(524,572,cs),
(330,572,l)
);
}
);
width = 1070;
},
{
anchors = (
{
name = bottom;
pos = (363,0);
},
{
name = top;
pos = (560,1400);
}
);
hints = (
{
horizontal = 1;
origin = (0,12);
target = up;
type = BottomGhost;
},
{
horizontal = 1;
origin = (0,1);
target = (1,8);
type = Stem;
},
{
horizontal = 1;
origin = (1,0);
target = (0,9);
type = Stem;
},
{
horizontal = 1;
origin = (0,11);
target = down;
type = TopGhost;
},
{
origin = (0,12);
target = (0,0);
type = Stem;
},
{
origin = (1,4);
target = (0,5);
type = Stem;
}
);
layerId = "79A30733-E9D0-406C-A133-0F4AF5F1D98D";
shapes = (
{
closed = 1;
nodes = (
(111,0,l),
(152,289,l),
(452,289,ls),
(670,289,o),
(878,468,o),
(910,700,cs),
(942,930,o),
(792,1111,o),
(568,1111,cs),
(268,1111,l),
(308,1400,l),
(152,1400,l),
(-45,0,l)
);
},
{
closed = 1;
nodes = (
(248,973,l),
(535,973,ls),
(676,973,o),
(776,859,o),
(755,709,cs),
(734,558,o),
(602,445,o),
(460,445,cs),
(174,445,l)
);
}
);
width = 1004;
},
{
anchors = (
{
name = bottom;
pos = (504,0);
},
{
name = top;
pos = (504,1400);
}
);
hints = (
{
horizontal = 1;
origin = (0,12);
target = up;
type = BottomGhost;
},
{
horizontal = 1;
origin = (0,1);
target = (1,8);
type = Stem;
},
{
horizontal = 1;
origin = (1,0);
target = (0,9);
type = Stem;
},
{
horizontal = 1;
origin = (0,11);
target = down;
type = TopGhost;
},
{
origin = (0,12);
target = (0,0);
type = Stem;
},
{
origin = (1,4);
target = (0,5);
type = Stem;
}
);
layerId = "6E59A8CF-B173-4F95-974A-A2EBEECFA9BB";
shapes = (
{
closed = 1;
nodes = (
(252,0,l),
(252,289,l),
(552,289,ls),
(769,289,o),
(952,468,o),
(952,700,cs),
(952,930,o),
(776,1111,o),
(552,1111,cs),
(252,1111,l),
(252,1400,l),
(96,1400,l),
(96,0,l)
);
},
{
closed = 1;
nodes = (
(252,973,l),
(538,973,ls),
(680,973,o),
(796,859,o),
(796,709,cs),
(796,558,o),
(680,445,o),
(538,445,cs),
(252,445,l)
);
}
);
width = 1004;
}
);
metricLeft = H;
metricRight = o;
unicode = 222;
},
{
glyphname = Q;
kernLeft = O;
kernRight = O;
lastChange = "2023-12-28 07:56:48 +0000";
layers = (
{
anchors = (
{
name = bottom;
pos = (742,0);
},
{
name = top;
pos = (742,1400);
}
);
hints = (
{
horizontal = 1;
origin = (0,13);
target = (1,17);
type = Stem;
},
{
horizontal = 1;
origin = (1,5);
target = (0,7);
type = Stem;
},
{
origin = (0,10);
target = (1,2);
type = Stem;
},
{
origin = (1,8);
target = (0,4);
type = Stem;
}
);
layerId = "10BC12B3-5274-42E3-B5BC-F74F362F0DF4";
shapes = (
{
closed = 1;
nodes = (
(1454,160,l),
(1300,314,l),
(1368,428,o),
(1410,562,o),
(1410,708,cs),
(1410,1108,o),
(1100,1434,o),
(720,1434,cs),
(340,1434,o),
(30,1108,o),
(30,708,cs),
(30,306,o),
(340,-18,o),
(720,-18,cs),
(858,-18,o),
(986,24,o),
(1092,96,c),
(1242,-52,l)
);
},
{
closed = 1;
nodes = (
(506,282,o),
(330,472,o),
(330,708,cs),
(330,942,o),
(506,1134,o),
(720,1134,cs),
(934,1134,o),
(1110,942,o),
(1110,708,cs),
(1110,648,o),
(1098,590,o),
(1076,538,c),
(1002,612,l),
(790,400,l),
(874,316,l),
(826,294,o),
(774,282,o),
(720,282,cs)
);
}
);
width = 1484;
},
{
anchors = (
{
name = bottom;
pos = (739,0);
},
{
name = top;
pos = (739,1400);
}
);
hints = (
{
horizontal = 1;
origin = (0,17);
target = up;
type = BottomGhost;
},
{
horizontal = 1;
origin = (0,7);
target = (1,5);
type = Stem;
},
{
horizontal = 1;
origin = (0,13);
target = (1,17);
type = Stem;
},
{
origin = (0,10);
target = (1,2);
type = Stem;
},
{
origin = (1,8);
target = (0,4);
type = Stem;
}
);
layerId = "9AF1F7D9-E035-453E-B2A8-46DE370997D0";
shapes = (
{
closed = 1;
nodes = (
(1424,32,l),
(1246,208,l),
(1360,338,o),
(1428,510,o),
(1428,700,cs),
(1428,1100,o),
(1120,1426,o),
(740,1426,cs),
(358,1426,o),
(50,1100,o),
(50,700,cs),
(50,300,o),
(358,-26,o),
(740,-26,cs),
(918,-26,o),
(1082,46,o),
(1206,166,c),
(1382,-10,l)
);
},
{
closed = 1;
nodes = (
(394,34,o),
(110,334,o),
(110,700,cs),
(110,1058,o),
(388,1366,o),
(740,1366,cs),
(1084,1366,o),
(1368,1066,o),
(1368,700,cs),
(1368,536,o),
(1310,376,o),
(1204,252,c),
(936,520,l),
(894,476,l),
(1162,208,l),
(1052,98,o),
(894,34,o),
(740,34,cs)
);
}
);
width = 1478;
},
{
anchors = (
{
name = bottom;
pos = (598,0);
},
{
name = top;
pos = (795,1400);
}
);
hints = (
{
horizontal = 1;
origin = (0,17);
target = up;
type = BottomGhost;
},
{
horizontal = 1;
origin = (0,7);
target = (1,5);
type = Stem;
},
{
horizontal = 1;
origin = (0,13);
target = (1,17);
type = Stem;
},
{
origin = (0,10);
target = (1,2);
type = Stem;
},
{
origin = (1,8);
target = (0,4);
type = Stem;
}
);
layerId = m003;
shapes = (
{
closed = 1;
nodes = (
(1288,32,l),
(1135,208,l),
(1267,338,o),
(1359,510,o),
(1386,700,cs),
(1442,1100,o),
(1180,1426,o),
(800,1426,cs),
(418,1426,o),
(64,1100,o),
(8,700,cs),
(-48,300,o),
(214,-26,o),
(596,-26,cs),
(774,-26,o),
(948,46,o),
(1089,166,c),
(1240,-10,l)
);
},
{
closed = 1;
nodes = (
(258,34,o),
(16,334,o),
(68,700,cs),
(118,1058,o),
(439,1366,o),
(791,1366,cs),
(1135,1366,o),
(1377,1066,o),
(1326,700,cs),
(1303,536,o),
(1222,376,o),
(1099,252,c),
(869,520,l),
(820,476,l),
(1051,208,l),
(925,98,o),
(758,34,o),
(604,34,cs)
);
}
);
width = 1478;
},
{
anchors = (
{
name = bottom;
pos = (601,0);
},
{
name = top;
pos = (798,1400);
}
);
hints = (
{
horizontal = 1;
origin = (0,13);
target = (1,17);
type = Stem;
},
{
horizontal = 1;
origin = (1,5);
target = (0,7);
type = Stem;
},
{
origin = (0,10);
target = (1,2);
type = Stem;
},
{
origin = (1,8);
target = (0,4);
type = Stem;
}
);
layerId = m004;
shapes = (
{
closed = 1;
nodes = (
(1336,160,l),
(1204,314,l),
(1288,428,o),
(1348,562,o),
(1369,708,cs),
(1425,1108,o),
(1161,1434,o),
(781,1434,cs),
(401,1434,o),
(45,1108,o),
(-11,708,cs),
(-68,306,o),
(197,-18,o),
(577,-18,cs),
(715,-18,o),
(849,24,o),
(965,96,c),
(1094,-52,l)
);
},
{
closed = 1;
nodes = (
(405,282,o),
(256,472,o),
(289,708,cs),
(322,942,o),
(525,1134,o),
(739,1134,cs),
(953,1134,o),
(1102,942,o),
(1069,708,cs),
(1061,648,o),
(1040,590,o),
(1011,538,c),
(947,612,l),
(706,400,l),
(778,316,l),
(727,294,o),
(673,282,o),
(619,282,cs)
);
}
);
width = 1484;
},
{
anchors = (
{
name = bottom;
pos = (600,0);
},
{
name = top;
pos = (797,1400);
}
);
hints = (
{
horizontal = 1;
origin = (0,17);
target = up;
type = BottomGhost;
},
{
horizontal = 1;
origin = (0,7);
target = (1,5);
type = Stem;
},
{
horizontal = 1;
origin = (0,13);
target = (1,17);
type = Stem;
},
{
origin = (0,10);
target = (1,2);
type = Stem;
},
{
origin = (1,8);
target = (0,4);
type = Stem;
}
);
layerId = "79A30733-E9D0-406C-A133-0F4AF5F1D98D";
shapes = (
{
closed = 1;
nodes = (
(1308,83,l),
(1164,250,l),
(1276,374,o),
(1356,531,o),
(1380,703,cs),
(1436,1103,o),
(1173,1429,o),
(793,1429,cs),
(412,1429,o),
(57,1103,o),
(1,703,cs),
(-55,302,o),
(208,-23,o),
(589,-23,cs),
(751,-23,o),
(909,37,o),
(1040,138,c),
(1183,-27,l)
);
},
{
closed = 1;
nodes = (
(318,133,o),
(113,389,o),
(157,703,cs),
(201,1012,o),
(474,1273,o),
(771,1273,cs),
(1063,1273,o),
(1268,1016,o),
(1224,703,cs),
(1207,581,o),
(1150,462,o),
(1065,366,c),
(901,557,l),
(775,446,l),
(943,251,l),
(847,176,o),
(725,133,o),
(611,133,cs)
);
}
);
width = 1479;
},
{
anchors = (
{
name = bottom;
pos = (740,0);
},
{
name = top;
pos = (740,1400);
}
);
hints = (
{
horizontal = 1;
origin = (0,17);
target = up;
type = BottomGhost;
},
{
horizontal = 1;
origin = (0,7);
target = (1,5);
type = Stem;
},
{
horizontal = 1;
origin = (0,13);
target = (1,17);
type = Stem;
},
{
origin = (0,10);
target = (1,2);
type = Stem;
},
{
origin = (1,8);
target = (0,4);
type = Stem;
}
);
layerId = "6E59A8CF-B173-4F95-974A-A2EBEECFA9BB";
shapes = (
{
closed = 1;
nodes = (
(1436,83,l),
(1268,250,l),
(1363,374,o),
(1421,531,o),
(1421,703,cs),
(1421,1103,o),
(1112,1429,o),
(732,1429,cs),
(351,1429,o),
(42,1103,o),
(42,703,cs),
(42,302,o),
(351,-23,o),
(732,-23,cs),
(894,-23,o),
(1044,37,o),
(1160,138,c),
(1326,-27,l)
);
},
{
closed = 1;
nodes = (
(439,133,o),
(198,389,o),
(198,703,cs),
(198,1012,o),
(435,1273,o),
(732,1273,cs),
(1024,1273,o),
(1265,1016,o),
(1265,703,cs),
(1265,581,o),
(1225,462,o),
(1153,366,c),
(962,557,l),
(852,446,l),
(1047,251,l),
(962,176,o),
(846,133,o),
(732,133,cs)
);
}
);
width = 1478;
}
);
metricLeft = O;
metricRight = O;
unicode = 81;
},
{
glyphname = R;
kernLeft = H;
kernRight = R;
lastChange = "2023-12-28 07:56:32 +0000";
layers = (
{
anchors = (
{
name = bottom;
pos = (603,0);
},
{
name = top;
pos = (494,1400);
}
);
hints = (
{
horizontal = 1;
origin = (0,13);
target = up;
type = BottomGhost;
},
{
horizontal = 1;
origin = (0,1);
target = (1,8);
type = Stem;
},
{
horizontal = 1;
origin = (0,12);
target = (1,0);
type = Stem;
},
{
origin = (0,13);
target = (0,0);
type = Stem;
},
{
origin = (1,4);
target = (0,8);
type = Stem;
}
);
layerId = "10BC12B3-5274-42E3-B5BC-F74F362F0DF4";
shapes = (
{
closed = 1;
nodes = (
(390,0,l),
(390,544,l),
(494,544,l),
(810,0,l),
(1156,0,l),
(824,572,l),
(974,644,o),
(1070,792,o),
(1070,972,cs),
(1070,1206,o),
(890,1400,o),
(660,1400,cs),
(90,1400,l),
(90,0,l)
);
},
{
closed = 1;
nodes = (
(390,1144,l),
(624,1144,ls),
(704,1144,o),
(770,1076,o),
(770,994,cs),
(770,912,o),
(704,844,o),
(624,844,cs),
(390,844,l)
);
}
);
width = 1186;
},
{
anchors = (
{
name = bottom;
pos = (485,0);
},
{
name = top;
pos = (374,1400);
}
);
hints = (
{
horizontal = 1;
origin = (0,13);
target = up;
type = BottomGhost;
},
{
horizontal = 1;
origin = (0,1);
target = (1,8);
type = Stem;
},
{
horizontal = 1;
origin = (0,12);
target = (1,0);
type = Stem;
},
{
horizontal = 1;
origin = (0,5);
target = (1,8);
type = Stem;
},
{
origin = (0,13);
target = (0,0);
type = Stem;
},
{
origin = (1,4);
target = (0,8);
type = Stem;
}
);
layerId = "9AF1F7D9-E035-453E-B2A8-46DE370997D0";
shapes = (
{
closed = 1;
nodes = (
(160,0,l),
(160,600,l),
(492,600,l),
(840,0,l),
(910,0,l),
(562,602,l),
(760,618,o),
(920,782,o),
(920,1000,cs),
(920,1228,o),
(748,1400,o),
(528,1400,cs),
(100,1400,l),
(100,0,l)
);
},
{
closed = 1;
nodes = (
(160,1340,l),
(528,1340,ls),
(710,1340,o),
(860,1196,o),
(860,1000,cs),
(860,804,o),
(710,660,o),
(528,660,cs),
(160,660,l)
);
}
);
width = 990;
},
{
anchors = (
{
name = bottom;
pos = (344,0);
},
{
name = top;
pos = (430,1400);
}
);
hints = (
{
horizontal = 1;
origin = (0,13);
target = up;
type = BottomGhost;
},
{
horizontal = 1;
origin = (0,1);
target = (1,8);
type = Stem;
},
{
horizontal = 1;
origin = (0,12);
target = (1,0);
type = Stem;
},
{
horizontal = 1;
origin = (0,5);
target = (1,8);
type = Stem;
},
{
origin = (0,13);
target = (0,0);
type = Stem;
},
{
origin = (1,4);
target = (0,8);
type = Stem;
}
);
layerId = m003;
shapes = (
{
closed = 1;
nodes = (
(19,0,l),
(104,600,l),
(436,600,l),
(699,0,l),
(769,0,l),
(506,602,l),
(706,618,o),
(889,782,o),
(920,1000,cs),
(952,1228,o),
(804,1400,o),
(584,1400,cs),
(156,1400,l),
(-41,0,l)
);
},
{
closed = 1;
nodes = (
(208,1340,l),
(576,1340,ls),
(758,1340,o),
(888,1196,o),
(860,1000,cs),
(832,804,o),
(662,660,o),
(480,660,cs),
(112,660,l)
);
}
);
width = 990;
},
{
anchors = (
{
name = bottom;
pos = (462,0);
},
{
name = top;
pos = (550,1400);
}
);
hints = (
{
horizontal = 1;
origin = (0,13);
target = up;
type = BottomGhost;
},
{
horizontal = 1;
origin = (0,1);
target = (1,8);
type = Stem;
},
{
horizontal = 1;
origin = (0,12);
target = (1,0);
type = Stem;
},
{
origin = (0,13);
target = (0,0);
type = Stem;
},
{
origin = (1,4);
target = (0,8);
type = Stem;
}
);
layerId = m004;
shapes = (
{
closed = 1;
nodes = (
(249,0,l),
(326,544,l),
(430,544,l),
(669,0,l),
(1015,0,l),
(764,572,l),
(924,644,o),
(1041,792,o),
(1066,972,cs),
(1099,1206,o),
(946,1400,o),
(716,1400,cs),
(146,1400,l),
(-51,0,l)
);
},
{
closed = 1;
nodes = (
(410,1144,l),
(644,1144,ls),
(724,1144,o),
(781,1076,o),
(769,994,cs),
(758,912,o),
(682,844,o),
(602,844,cs),
(368,844,l)
);
}
);
width = 1186;
},
{
anchors = (
{
name = bottom;
pos = (391,0);
},
{
name = top;
pos = (478,1400);
}
);
hints = (
{
horizontal = 1;
origin = (0,13);
target = up;
type = BottomGhost;
},
{
horizontal = 1;
origin = (0,1);
target = (1,8);
type = Stem;
},
{
horizontal = 1;
origin = (0,12);
target = (1,0);
type = Stem;
},
{
horizontal = 1;
origin = (0,5);
target = (1,8);
type = Stem;
},
{
origin = (0,13);
target = (0,0);
type = Stem;
},
{
origin = (1,4);
target = (0,8);
type = Stem;
}
);
layerId = "79A30733-E9D0-406C-A133-0F4AF5F1D98D";
shapes = (
{
closed = 1;
nodes = (
(111,0,l),
(193,578,l),
(434,578,l),
(687,0,l),
(867,0,l),
(609,590,l),
(793,628,o),
(950,786,o),
(978,989,cs),
(1011,1219,o),
(861,1400,o),
(637,1400,cs),
(152,1400,l),
(-45,0,l)
);
},
{
closed = 1;
nodes = (
(289,1262,l),
(603,1262,ls),
(744,1262,o),
(845,1148,o),
(824,998,cs),
(802,847,o),
(670,734,o),
(529,734,cs),
(214,734,l)
);
}
);
width = 1068.4;
},
{
anchors = (
{
name = bottom;
pos = (532,0);
},
{
name = top;
pos = (422,1400);
}
);
hints = (
{
horizontal = 1;
origin = (0,13);
target = up;
type = BottomGhost;
},
{
horizontal = 1;
origin = (0,1);
target = (1,8);
type = Stem;
},
{
horizontal = 1;
origin = (0,12);
target = (1,0);
type = Stem;
},
{
horizontal = 1;
origin = (0,5);
target = (1,8);
type = Stem;
},
{
origin = (0,13);
target = (0,0);
type = Stem;
},
{
origin = (1,4);
target = (0,8);
type = Stem;
}
);
layerId = "6E59A8CF-B173-4F95-974A-A2EBEECFA9BB";
shapes = (
{
closed = 1;
nodes = (
(252,0,l),
(252,578,l),
(493,578,l),
(828,0,l),
(1008,0,l),
(667,590,l),
(846,628,o),
(980,786,o),
(980,989,cs),
(980,1219,o),
(805,1400,o),
(581,1400,cs),
(96,1400,l),
(96,0,l)
);
},
{
closed = 1;
nodes = (
(252,1262,l),
(566,1262,ls),
(708,1262,o),
(824,1148,o),
(824,998,cs),
(824,847,o),
(708,734,o),
(566,734,cs),
(252,734,l)
);
}
);
width = 1068.4;
}
);
metricLeft = H;
unicode = 82;
},
{
glyphname = S;
kernLeft = S;
kernRight = S;
lastChange = "2023-12-28 07:56:32 +0000";
layers = (
{
anchors = (
{
name = bottom;
pos = (635,0);
},
{
name = top;
pos = (494,1400);
}
);
hints = (
{
horizontal = 1;
place = (-26,300);
type = Stem;
},
{
horizontal = 1;
place = (1401,-277);
type = Stem;
},
{
place = (100,300);
type = Stem;
},
{
place = (864,300);
type = Stem;
}
);
layerId = "10BC12B3-5274-42E3-B5BC-F74F362F0DF4";
shapes = (
{
closed = 1;
nodes = (
(803,-26,o),
(1025,156,o),
(1025,412,cs),
(1025,693,o),
(786,814,o),
(492,889,cs),
(428,905,o),
(355,951,o),
(355,1014,cs),
(355,1074,o),
(430,1111,o),
(493,1111,cs),
(549,1111,o),
(632,1085,o),
(663,1016,c),
(936,1144,l),
(870,1289,o),
(700,1413,o),
(494,1413,cs),
(261,1413,o),
(55,1247,o),
(55,1014,cs),
(55,807,o),
(224,633,o),
(549,576,cs),
(635,561,o),
(726,493,o),
(726,410,cs),
(726,326,o),
(628,276,o),
(541,276,cs),
(427,276,o),
(294,372,o),
(258,424,c),
(10,254,l),
(117,96,o),
(353,-26,o),
(543,-26,cs)
);
}
);
width = 1035;
},
{
anchors = (
{
name = bottom;
pos = (623,0);
},
{
name = top;
pos = (480,1400);
}
);
hints = (
{
horizontal = 1;
place = (-26,60);
type = Stem;
},
{
horizontal = 1;
place = (1418,60);
type = Stem;
},
{
place = (110,60);
type = Stem;
},
{
place = (1028,60);
type = Stem;
}
);
layerId = "9AF1F7D9-E035-453E-B2A8-46DE370997D0";
shapes = (
{
closed = 1;
nodes = (
(765,-26,o),
(973,124,o),
(973,349,cs),
(973,559,o),
(791,711,o),
(453,780,cs),
(284,815,o),
(160,943,o),
(160,1083,cs),
(160,1241,o),
(311,1353,o),
(480,1353,cs),
(624,1353,o),
(767,1275,o),
(824,1149,c),
(878,1175,l),
(811,1323,o),
(643,1413,o),
(480,1413,cs),
(282,1413,o),
(101,1282,o),
(101,1082,cs),
(101,897,o),
(261,758,o),
(444,721,cs),
(758,656,o),
(913,525,o),
(913,349,cs),
(913,155,o),
(726,34,o),
(541,34,cs),
(354,34,o),
(147,168,o),
(69,280,c),
(20,247,l),
(98,127,o),
(328,-26,o),
(540,-26,cs)
);
}
);
width = 993;
},
{
anchors = (
{
name = bottom;
pos = (482,0);
},
{
name = top;
pos = (536,1400);
}
);
hints = (
{
horizontal = 1;
place = (-167,-81);
type = Stem;
},
{
horizontal = 1;
place = (1277,-81);
type = Stem;
},
{
place = (-31,-81);
type = Stem;
},
{
place = (887,-81);
type = Stem;
}
);
layerId = m003;
shapes = (
{
closed = 1;
nodes = (
(621,-26,o),
(850,124,o),
(882,349,cs),
(911,559,o),
(750,711,o),
(422,780,cs),
(258,815,o),
(152,943,o),
(172,1083,cs),
(194,1241,o),
(361,1353,o),
(530,1353,cs),
(674,1353,o),
(806,1275,o),
(845,1149,c),
(903,1175,l),
(856,1323,o),
(701,1413,o),
(538,1413,cs),
(340,1413,o),
(141,1282,o),
(113,1082,cs),
(87,897,o),
(227,758,o),
(405,721,cs),
(710,656,o),
(846,525,o),
(822,349,cs),
(794,155,o),
(590,34,o),
(405,34,cs),
(218,34,o),
(30,168,o),
(-32,280,c),
(-86,247,l),
(-25,127,o),
(184,-26,o),
(396,-26,cs)
);
}
);
width = 993;
},
{
anchors = (
{
name = bottom;
pos = (494,0);
},
{
name = top;
pos = (550,1400);
}
);
hints = (
{
horizontal = 1;
place = (-167,159);
type = Stem;
},
{
horizontal = 1;
place = (1260,-418);
type = Stem;
},
{
place = (-41,159);
type = Stem;
},
{
place = (723,159);
type = Stem;
}
);
layerId = m004;
shapes = (
{
closed = 1;
nodes = (
(659,-26,o),
(906,156,o),
(942,412,cs),
(982,693,o),
(760,814,o),
(476,889,cs),
(415,905,o),
(348,951,o),
(357,1014,cs),
(365,1074,o),
(446,1111,o),
(509,1111,cs),
(565,1111,o),
(644,1085,o),
(665,1016,c),
(956,1144,l),
(911,1289,o),
(758,1413,o),
(552,1413,cs),
(319,1413,o),
(90,1247,o),
(57,1014,cs),
(28,807,o),
(172,633,o),
(489,576,cs),
(573,561,o),
(655,493,o),
(643,410,cs),
(631,326,o),
(526,276,o),
(439,276,cs),
(325,276,o),
(206,372,o),
(177,424,c),
(-95,254,l),
(-10,96,o),
(209,-26,o),
(399,-26,cs)
);
}
);
width = 1035;
},
{
anchors = (
{
name = bottom;
pos = (487,0);
},
{
name = top;
pos = (542,1400);
}
);
hints = (
{
horizontal = 1;
place = (-167,15);
type = Stem;
},
{
horizontal = 1;
place = (1270,-216);
type = Stem;
},
{
place = (-35,15);
type = Stem;
},
{
place = (821,15);
type = Stem;
}
);
layerId = "79A30733-E9D0-406C-A133-0F4AF5F1D98D";
shapes = (
{
closed = 1;
nodes = (
(636,-26,o),
(872,137,o),
(906,374,cs),
(939,613,o),
(754,752,o),
(444,824,cs),
(321,851,o),
(230,946,o),
(246,1055,cs),
(262,1174,o),
(395,1256,o),
(522,1256,cs),
(630,1256,o),
(741,1199,o),
(773,1096,c),
(924,1163,l),
(878,1309,o),
(724,1413,o),
(544,1413,cs),
(332,1413,o),
(121,1268,o),
(91,1055,cs),
(63,861,o),
(205,708,o),
(439,663,cs),
(655,618,o),
(770,512,o),
(750,373,cs),
(729,223,o),
(564,131,o),
(419,131,cs),
(261,131,o),
(100,250,o),
(52,338,c),
(-90,250,l),
(-19,115,o),
(194,-26,o),
(397,-26,cs)
);
}
);
width = 1009.8;
},
{
anchors = (
{
name = bottom;
pos = (628,0);
},
{
name = top;
pos = (486,1400);
}
);
hints = (
{
horizontal = 1;
place = (-26,156);
type = Stem;
},
{
horizontal = 1;
place = (1411,-75);
type = Stem;
},
{
place = (106,156);
type = Stem;
},
{
place = (962,156);
type = Stem;
}
);
layerId = "6E59A8CF-B173-4F95-974A-A2EBEECFA9BB";
shapes = (
{
closed = 1;
nodes = (
(780,-26,o),
(994,137,o),
(994,374,cs),
(994,613,o),
(789,752,o),
(469,824,cs),
(342,851,o),
(238,946,o),
(238,1055,cs),
(238,1174,o),
(359,1256,o),
(485,1256,cs),
(594,1256,o),
(713,1199,o),
(760,1096,c),
(901,1163,l),
(835,1309,o),
(666,1413,o),
(486,1413,cs),
(274,1413,o),
(83,1268,o),
(83,1055,cs),
(83,861,o),
(246,708,o),
(486,663,cs),
(709,618,o),
(838,512,o),
(838,373,cs),
(838,223,o),
(687,131,o),
(541,131,cs),
(383,131,o),
(206,250,o),
(145,338,c),
(16,250,l),
(106,115,o),
(338,-26,o),
(541,-26,cs)
);
}
);
width = 1009.8;
}
);
unicode = 83;
},
{
glyphname = Germandbls;
kernLeft = H;
kernRight = B;
lastChange = "2023-12-28 07:56:32 +0000";
layers = (
{
anchors = (
{
name = bottom;
pos = (593,0);
},
{
name = top;
pos = (593,1400);
}
);
hints = (
{
horizontal = 1;
origin = (0,37);
target = (0,19);
type = Stem;
},
{
horizontal = 1;
place = (594,144);
type = Stem;
},
{
horizontal = 1;
origin = (0,33);
target = (0,4);
type = Stem;
},
{
origin = (0,37);
target = (0,0);
type = Stem;
},
{
origin = (0,7);
target = (0,30);
type = Stem;
},
{
origin = (0,15);
target = (0,24);
type = Stem;
}
);
layerId = "10BC12B3-5274-42E3-B5BC-F74F362F0DF4";
shapes = (
{
closed = 1;
nodes = (
(390,0,l),
(390,950,ls),
(390,1058,o),
(478,1144,o),
(564,1144,cs),
(650,1144,o),
(728,1148,o),
(728,1074,cs),
(728,1040,o),
(560,858,o),
(560,704,cs),
(560,594,l),
(642,594,ls),
(746,594,o),
(890,556,o),
(890,424,cs),
(890,292,o),
(746,254,o),
(642,254,cs),
(560,254,l),
(620,0,l),
(674,0,ls),
(906,0,o),
(1156,150,o),
(1156,422,cs),
(1156,586,o),
(980,770,o),
(802,734,c),
(944,906,o),
(1028,972,o),
(1028,1068,cs),
(1028,1248,o),
(828,1400,o),
(620,1400,cs),
(328,1400,o),
(90,1162,o),
(90,870,cs),
(90,0,l)
);
}
);
width = 1156;
},
{
anchors = (
{
name = bottom;
pos = (515,0);
},
{
name = top;
pos = (515,1400);
}
);
hints = (
{
horizontal = 1;
origin = (0,37);
target = (0,19);
type = Stem;
},
{
horizontal = 1;
origin = (0,11);
target = (0,27);
type = Stem;
},
{
horizontal = 1;
origin = (0,4);
target = (0,33);
type = Stem;
},
{
origin = (0,37);
target = (0,0);
type = Stem;
},
{
origin = (0,7);
target = (0,30);
type = Stem;
},
{
origin = (0,15);
target = (0,24);
type = Stem;
}
);
layerId = "9AF1F7D9-E035-453E-B2A8-46DE370997D0";
shapes = (
{
closed = 1;
nodes = (
(160,0,l),
(160,994,ls),
(160,1184,o),
(312,1338,o),
(502,1338,cs),
(652,1338,o),
(784,1282,o),
(786,1152,cs),
(788,1032,o),
(490,754,o),
(498,694,cs),
(502,662,l),
(568,662,ls),
(734,662,o),
(930,568,o),
(930,364,cs),
(930,156,o),
(736,60,o),
(570,60,cs),
(476,60,l),
(496,0,l),
(570,0,ls),
(768,0,o),
(990,122,o),
(990,362,cs),
(990,588,o),
(782,740,o),
(582,720,c),
(780,992,o),
(856,1070,o),
(856,1152,cs),
(856,1320,o),
(696,1398,o),
(506,1398,cs),
(282,1398,o),
(100,1216,o),
(100,992,cs),
(100,0,l)
);
}
);
width = 990;
},
{
anchors = (
{
name = bottom;
pos = (374,0);
},
{
name = top;
pos = (571,1400);
}
);
hints = (
{
horizontal = 1;
origin = (0,37);
target = (0,19);
type = Stem;
},
{
horizontal = 1;
origin = (0,11);
target = (0,27);
type = Stem;
},
{
horizontal = 1;
origin = (0,4);
target = (0,33);
type = Stem;
},
{
origin = (0,37);
target = (0,0);
type = Stem;
},
{
origin = (0,7);
target = (0,30);
type = Stem;
},
{
origin = (0,15);
target = (0,24);
type = Stem;
}
);
layerId = m003;
shapes = (
{
closed = 1;
nodes = (
(19,0,l),
(159,994,ls),
(186,1184,o),
(360,1338,o),
(550,1338,cs),
(700,1338,o),
(824,1282,o),
(807,1152,cs),
(792,1032,o),
(455,754,o),
(455,694,cs),
(454,662,l),
(520,662,ls),
(686,662,o),
(869,568,o),
(841,364,cs),
(811,156,o),
(604,60,o),
(438,60,cs),
(344,60,l),
(355,0,l),
(429,0,ls),
(627,0,o),
(867,122,o),
(900,362,cs),
(932,588,o),
(745,740,o),
(543,720,c),
(779,992,o),
(866,1070,o),
(877,1152,cs),
(901,1320,o),
(752,1398,o),
(562,1398,cs),
(338,1398,o),
(130,1216,o),
(99,992,cs),
(-41,0,l)
);
}
);
width = 990;
},
{
anchors = (
{
name = bottom;
pos = (452,0);
},
{
name = top;
pos = (649,1400);
}
);
hints = (
{
horizontal = 1;
origin = (0,37);
target = (0,19);
type = Stem;
},
{
horizontal = 1;
place = (453,3);
type = Stem;
},
{
horizontal = 1;
origin = (0,33);
target = (0,4);
type = Stem;
},
{
origin = (0,37);
target = (0,0);
type = Stem;
},
{
origin = (0,7);
target = (0,30);
type = Stem;
},
{
origin = (0,15);
target = (0,24);
type = Stem;
}
);
layerId = m004;
shapes = (
{
closed = 1;
nodes = (
(249,0,l),
(383,950,ls),
(398,1058,o),
(498,1144,o),
(584,1144,cs),
(670,1144,o),
(749,1148,o),
(738,1074,cs),
(734,1040,o),
(540,858,o),
(518,704,cs),
(503,594,l),
(585,594,ls),
(689,594,o),
(828,556,o),
(809,424,cs),
(790,292,o),
(641,254,o),
(537,254,cs),
(455,254,l),
(479,0,l),
(533,0,ls),
(765,0,o),
(1037,150,o),
(1075,422,cs),
(1098,586,o),
(948,770,o),
(765,734,c),
(931,906,o),
(1024,972,o),
(1038,1068,cs),
(1063,1248,o),
(884,1400,o),
(676,1400,cs),
(384,1400,o),
(113,1162,o),
(72,870,cs),
(-51,0,l)
);
}
);
width = 1156;
},
{
anchors = (
{
name = bottom;
pos = (405,0);
},
{
name = top;
pos = (602,1400);
}
);
hints = (
{
horizontal = 1;
origin = (0,37);
target = (0,19);
type = Stem;
},
{
horizontal = 1;
origin = (0,11);
target = (0,27);
type = Stem;
},
{
horizontal = 1;
origin = (0,4);
target = (0,33);
type = Stem;
},
{
origin = (0,37);
target = (0,0);
type = Stem;
},
{
origin = (0,7);
target = (0,30);
type = Stem;
},
{
origin = (0,15);
target = (0,24);
type = Stem;
}
);
layerId = "79A30733-E9D0-406C-A133-0F4AF5F1D98D";
shapes = (
{
closed = 1;
nodes = (
(111,0,l),
(249,976,ls),
(271,1134,o),
(415,1260,o),
(564,1260,cs),
(688,1260,o),
(794,1228,o),
(779,1121,cs),
(769,1035,o),
(489,796,o),
(480,698,cs),
(474,635,l),
(546,635,ls),
(687,635,o),
(853,563,o),
(828,388,cs),
(803,210,o),
(619,138,o),
(478,138,cs),
(388,138,l),
(405,0,l),
(471,0,ls),
(682,0,o),
(935,133,o),
(970,386,cs),
(998,587,o),
(826,752,o),
(632,726,c),
(840,958,o),
(929,1031,o),
(941,1118,cs),
(966,1291,o),
(805,1399,o),
(608,1399,cs),
(356,1399,o),
(123,1194,o),
(88,943,cs),
(-45,0,l)
);
}
);
width = 1056.4;
},
{
anchors = (
{
name = bottom;
pos = (546,0);
},
{
name = top;
pos = (546,1400);
}
);
hints = (
{
horizontal = 1;
origin = (0,37);
target = (0,19);
type = Stem;
},
{
horizontal = 1;
origin = (0,11);
target = (0,27);
type = Stem;
},
{
horizontal = 1;
origin = (0,4);
target = (0,33);
type = Stem;
},
{
origin = (0,37);
target = (0,0);
type = Stem;
},
{
origin = (0,7);
target = (0,30);
type = Stem;
},
{
origin = (0,15);
target = (0,24);
type = Stem;
}
);
layerId = "6E59A8CF-B173-4F95-974A-A2EBEECFA9BB";
shapes = (
{
closed = 1;
nodes = (
(252,0,l),
(252,976,ls),
(252,1134,o),
(378,1260,o),
(527,1260,cs),
(651,1260,o),
(762,1228,o),
(763,1121,cs),
(764,1035,o),
(518,796,o),
(523,698,cs),
(525,635,l),
(598,635,ls),
(739,635,o),
(914,563,o),
(914,388,cs),
(914,210,o),
(740,138,o),
(599,138,cs),
(510,138,l),
(546,0,l),
(612,0,ls),
(823,0,o),
(1056,133,o),
(1056,386,cs),
(1056,587,o),
(861,752,o),
(670,726,c),
(846,958,o),
(925,1031,o),
(925,1118,cs),
(925,1291,o),
(749,1399,o),
(552,1399,cs),
(300,1399,o),
(96,1194,o),
(96,943,cs),
(96,0,l)
);
}
);
width = 1056.4;
}
);
metricLeft = H;
unicode = 7838;
},
{
glyphname = T;
kernLeft = T;
kernRight = T;
lastChange = "2023-12-28 07:56:32 +0000";
layers = (
{
anchors = (
{
name = bottom;
pos = (570,0);
},
{
name = center;
pos = (570,700);
},
{
name = top;
pos = (570,1400);
}
);
hints = (
{
horizontal = 1;
origin = (0,3);
target = up;
type = BottomGhost;
},
{
horizontal = 1;
origin = (0,0);
target = (0,1);
type = Stem;
},
{
origin = (0,3);
target = (0,4);
type = Stem;
}
);
layerId = "10BC12B3-5274-42E3-B5BC-F74F362F0DF4";
shapes = (
{
closed = 1;
nodes = (
(20,1400,l),
(20,1100,l),
(420,1100,l),
(420,0,l),
(720,0,l),
(720,1100,l),
(1120,1100,l),
(1120,1400,l)
);
}
);
width = 1140;
},
{
anchors = (
{
name = bottom;
pos = (568,0);
},
{
name = center;
pos = (569,700);
},
{
name = top;
pos = (569,1400);
}
);
hints = (
{
horizontal = 1;
origin = (0,3);
target = up;
type = BottomGhost;
},
{
horizontal = 1;
origin = (0,0);
target = (0,1);
type = Stem;
},
{
origin = (0,3);
target = (0,4);
type = Stem;
}
);
layerId = "9AF1F7D9-E035-453E-B2A8-46DE370997D0";
shapes = (
{
closed = 1;
nodes = (
(20,1400,l),
(20,1340,l),
(538,1340,l),
(538,0,l),
(598,0,l),
(598,1340,l),
(1118,1340,l),
(1118,1400,l)
);
}
);
width = 1138;
},
{
anchors = (
{
name = bottom;
pos = (427,0);
},
{
name = center;
pos = (527,700);
},
{
name = top;
pos = (625,1400);
}
);
hints = (
{
horizontal = 1;
origin = (0,3);
target = up;
type = BottomGhost;
},
{
horizontal = 1;
origin = (0,0);
target = (0,1);
type = Stem;
},
{
origin = (0,3);
target = (0,4);
type = Stem;
}
);
layerId = m003;
shapes = (
{
closed = 1;
nodes = (
(76,1400,l),
(68,1340,l),
(586,1340,l),
(397,0,l),
(457,0,l),
(646,1340,l),
(1166,1340,l),
(1174,1400,l)
);
}
);
width = 1138;
},
{
anchors = (
{
name = bottom;
pos = (429,0);
},
{
name = center;
pos = (528,700);
},
{
name = top;
pos = (626,1400);
}
);
hints = (
{
horizontal = 1;
origin = (0,3);
target = up;
type = BottomGhost;
},
{
horizontal = 1;
origin = (0,0);
target = (0,1);
type = Stem;
},
{
origin = (0,3);
target = (0,4);
type = Stem;
}
);
layerId = m004;
shapes = (
{
closed = 1;
nodes = (
(76,1400,l),
(34,1100,l),
(434,1100,l),
(279,0,l),
(579,0,l),
(734,1100,l),
(1134,1100,l),
(1176,1400,l)
);
}
);
width = 1140;
},
{
anchors = (
{
name = bottom;
pos = (428,0);
},
{
name = center;
pos = (527,700);
},
{
name = top;
pos = (625,1400);
}
);
hints = (
{
horizontal = 1;
origin = (0,3);
target = up;
type = BottomGhost;
},
{
horizontal = 1;
origin = (0,0);
target = (0,1);
type = Stem;
},
{
origin = (0,3);
target = (0,4);
type = Stem;
}
);
layerId = "79A30733-E9D0-406C-A133-0F4AF5F1D98D";
shapes = (
{
closed = 1;
nodes = (
(76,1400,l),
(54,1244,l),
(525,1244,l),
(350,0,l),
(506,0,l),
(681,1244,l),
(1153,1244,l),
(1175,1400,l)
);
}
);
width = 1138.8;
},
{
anchors = (
{
name = bottom;
pos = (569,0);
},
{
name = center;
pos = (569,700);
},
{
name = top;
pos = (569,1400);
}
);
hints = (
{
horizontal = 1;
origin = (0,3);
target = up;
type = BottomGhost;
},
{
horizontal = 1;
origin = (0,0);
target = (0,1);
type = Stem;
},
{
origin = (0,3);
target = (0,4);
type = Stem;
}
);
layerId = "6E59A8CF-B173-4F95-974A-A2EBEECFA9BB";
shapes = (
{
closed = 1;
nodes = (
(20,1400,l),
(20,1244,l),
(491,1244,l),
(491,0,l),
(647,0,l),
(647,1244,l),
(1119,1244,l),
(1119,1400,l)
);
}
);
width = 1138.8;
}
);
unicode = 84;
},
{
glyphname = U;
kernLeft = H;
kernRight = H;
lastChange = "2023-12-28 07:56:48 +0000";
layers = (
{
anchors = (
{
name = bottom;
pos = (659,0);
},
{
name = ogonek;
pos = (832,0);
},
{
name = top;
pos = (659,1400);
},
{
name = topright;
pos = (1228,1400);
}
);
hints = (
{
horizontal = 1;
origin = (0,17);
target = (0,8);
type = Stem;
},
{
horizontal = 1;
origin = (0,13);
target = down;
type = TopGhost;
},
{
origin = (0,14);
target = (0,11);
type = Stem;
},
{
origin = (0,5);
target = (0,2);
type = Stem;
}
);
layerId = "10BC12B3-5274-42E3-B5BC-F74F362F0DF4";
shapes = (
{
closed = 1;
nodes = (
(996,-26,o),
(1228,246,o),
(1228,584,cs),
(1228,1400,l),
(928,1400,l),
(928,584,ls),
(928,412,o),
(832,274,o),
(660,274,cs),
(490,274,o),
(390,414,o),
(390,584,cs),
(390,1400,l),
(90,1400,l),
(90,584,ls),
(90,246,o),
(324,-26,o),
(660,-26,cs)
);
}
);
width = 1318;
},
{
anchors = (
{
name = bottom;
pos = (630,0);
},
{
name = ogonek;
pos = (719,-15);
},
{
name = top;
pos = (630,1400);
},
{
name = topright;
pos = (1160,1400);
}
);
hints = (
{
horizontal = 1;
origin = (0,17);
target = (0,8);
type = Stem;
},
{
horizontal = 1;
origin = (0,13);
target = down;
type = TopGhost;
},
{
origin = (0,14);
target = (0,11);
type = Stem;
},
{
origin = (0,5);
target = (0,2);
type = Stem;
}
);
layerId = "9AF1F7D9-E035-453E-B2A8-46DE370997D0";
shapes = (
{
closed = 1;
nodes = (
(966,-26,o),
(1160,246,o),
(1160,584,cs),
(1160,1400,l),
(1100,1400,l),
(1100,584,ls),
(1100,288,o),
(938,34,o),
(630,34,cs),
(326,34,o),
(160,284,o),
(160,584,cs),
(160,1400,l),
(100,1400,l),
(100,584,ls),
(100,246,o),
(294,-26,o),
(630,-26,cs)
);
}
);
width = 1260;
},
{
anchors = (
{
name = bottom;
pos = (488,0);
},
{
name = ogonek;
pos = (575,-15);
},
{
name = top;
pos = (685,1400);
},
{
name = topright;
pos = (1215,1400);
}
);
hints = (
{
horizontal = 1;
origin = (0,17);
target = (0,8);
type = Stem;
},
{
horizontal = 1;
origin = (0,13);
target = down;
type = TopGhost;
},
{
origin = (0,14);
target = (0,11);
type = Stem;
},
{
origin = (0,5);
target = (0,2);
type = Stem;
}
);
layerId = m003;
shapes = (
{
closed = 1;
nodes = (
(821,-26,o),
(1053,246,o),
(1101,584,cs),
(1215,1400,l),
(1155,1400,l),
(1041,584,ls),
(999,288,o),
(801,34,o),
(493,34,cs),
(189,34,o),
(58,284,o),
(101,584,cs),
(215,1400,l),
(155,1400,l),
(41,584,ls),
(-7,246,o),
(149,-26,o),
(485,-26,cs)
);
}
);
width = 1259;
},
{
anchors = (
{
name = bottom;
pos = (517,0);
},
{
name = ogonek;
pos = (690,0);
},
{
name = top;
pos = (714,1400);
},
{
name = topright;
pos = (1283,1400);
}
);
hints = (
{
horizontal = 1;
origin = (0,17);
target = (0,8);
type = Stem;
},
{
horizontal = 1;
origin = (0,13);
target = down;
type = TopGhost;
},
{
origin = (0,14);
target = (0,11);
type = Stem;
},
{
origin = (0,5);
target = (0,2);
type = Stem;
}
);
layerId = m004;
shapes = (
{
closed = 1;
nodes = (
(851,-26,o),
(1121,246,o),
(1169,584,cs),
(1283,1400,l),
(983,1400,l),
(869,584,ls),
(844,412,o),
(729,274,o),
(557,274,cs),
(387,274,o),
(307,414,o),
(331,584,cs),
(445,1400,l),
(145,1400,l),
(31,584,ls),
(-17,246,o),
(179,-26,o),
(515,-26,cs)
);
}
);
width = 1317;
},
{
anchors = (
{
name = bottom;
pos = (500,0);
},
{
name = ogonek;
pos = (621,-9);
},
{
name = top;
pos = (697,1400);
},
{
name = topright;
pos = (1242,1400);
}
);
hints = (
{
horizontal = 1;
origin = (0,17);
target = (0,8);
type = Stem;
},
{
horizontal = 1;
origin = (0,13);
target = down;
type = TopGhost;
},
{
origin = (0,14);
target = (0,11);
type = Stem;
},
{
origin = (0,5);
target = (0,2);
type = Stem;
}
);
layerId = "79A30733-E9D0-406C-A133-0F4AF5F1D98D";
shapes = (
{
closed = 1;
nodes = (
(833,-26,o),
(1080,246,o),
(1128,584,cs),
(1242,1400,l),
(1086,1400,l),
(972,584,ls),
(937,338,o),
(772,130,o),
(519,130,cs),
(268,130,o),
(158,336,o),
(193,584,cs),
(307,1400,l),
(151,1400,l),
(37,584,ls),
(-11,246,o),
(161,-26,o),
(497,-26,cs)
);
}
);
width = 1282;
},
{
anchors = (
{
name = bottom;
pos = (642,0);
},
{
name = ogonek;
pos = (764,-9);
},
{
name = top;
pos = (642,1400);
},
{
name = topright;
pos = (1187,1400);
}
);
hints = (
{
horizontal = 1;
origin = (0,17);
target = (0,8);
type = Stem;
},
{
horizontal = 1;
origin = (0,13);
target = down;
type = TopGhost;
},
{
origin = (0,14);
target = (0,11);
type = Stem;
},
{
origin = (0,5);
target = (0,2);
type = Stem;
}
);
layerId = "6E59A8CF-B173-4F95-974A-A2EBEECFA9BB";
shapes = (
{
closed = 1;
nodes = (
(978,-26,o),
(1187,246,o),
(1187,584,cs),
(1187,1400,l),
(1031,1400,l),
(1031,584,ls),
(1031,338,o),
(896,130,o),
(642,130,cs),
(392,130,o),
(252,336,o),
(252,584,cs),
(252,1400,l),
(96,1400,l),
(96,584,ls),
(96,246,o),
(306,-26,o),
(642,-26,cs)
);
}
);
width = 1283.2;
}
);
metricLeft = H;
metricRight = H;
unicode = 85;
},
{
glyphname = V;
kernLeft = W;
kernRight = W;
lastChange = "2023-12-28 07:56:49 +0000";
layers = (
{
anchors = (
{
name = bottom;
pos = (687,0);
},
{
name = top;
pos = (687,1400);
}
);
hints = (
{
horizontal = 1;
origin = (0,6);
target = up;
type = BottomGhost;
},
{
horizontal = 1;
origin = (0,5);
target = down;
type = TopGhost;
}
);
layerId = "10BC12B3-5274-42E3-B5BC-F74F362F0DF4";
shapes = (
{
closed = 1;
nodes = (
(881,0,l),
(1389,1400,l),
(1071,1400,l),
(687,344,l),
(303,1400,l),
(-15,1400,l),
(493,0,l)
);
}
);
width = 1374;
},
{
anchors = (
{
name = bottom;
pos = (524,0);
},
{
name = top;
pos = (524,1400);
}
);
hints = (
{
horizontal = 1;
origin = (0,6);
target = up;
type = BottomGhost;
},
{
horizontal = 1;
origin = (0,5);
target = down;
type = TopGhost;
}
);
layerId = "9AF1F7D9-E035-453E-B2A8-46DE370997D0";
shapes = (
{
closed = 1;
nodes = (
(553,0,l),
(1063,1400,l),
(999,1400,l),
(523,92,l),
(49,1400,l),
(-15,1400,l),
(493,0,l)
);
}
);
width = 1048;
},
{
anchors = (
{
name = bottom;
pos = (383,0);
},
{
name = top;
pos = (580,1400);
}
);
hints = (
{
horizontal = 1;
origin = (0,6);
target = up;
type = BottomGhost;
},
{
horizontal = 1;
origin = (0,5);
target = down;
type = TopGhost;
}
);
layerId = m003;
shapes = (
{
closed = 1;
nodes = (
(412,0,l),
(1119,1400,l),
(1055,1400,l),
(395,92,l),
(105,1400,l),
(41,1400,l),
(352,0,l)
);
}
);
width = 1048;
},
{
anchors = (
{
name = bottom;
pos = (546,0);
},
{
name = top;
pos = (743,1400);
}
);
hints = (
{
horizontal = 1;
origin = (0,6);
target = up;
type = BottomGhost;
},
{
horizontal = 1;
origin = (0,5);
target = down;
type = TopGhost;
}
);
layerId = m004;
shapes = (
{
closed = 1;
nodes = (
(740,0,l),
(1445,1400,l),
(1127,1400,l),
(595,344,l),
(359,1400,l),
(41,1400,l),
(352,0,l)
);
}
);
width = 1374;
},
{
anchors = (
{
name = bottom;
pos = (448,0);
},
{
name = top;
pos = (645,1400);
}
);
hints = (
{
horizontal = 1;
origin = (0,6);
target = up;
type = BottomGhost;
},
{
horizontal = 1;
origin = (0,5);
target = down;
type = TopGhost;
}
);
layerId = "79A30733-E9D0-406C-A133-0F4AF5F1D98D";
shapes = (
{
closed = 1;
nodes = (
(543,0,l),
(1249,1400,l),
(1084,1400,l),
(475,193,l),
(207,1400,l),
(41,1400,l),
(352,0,l)
);
}
);
width = 1178;
},
{
anchors = (
{
name = bottom;
pos = (589,0);
},
{
name = top;
pos = (589,1400);
}
);
hints = (
{
horizontal = 1;
origin = (0,6);
target = up;
type = BottomGhost;
},
{
horizontal = 1;
origin = (0,5);
target = down;
type = TopGhost;
}
);
layerId = "6E59A8CF-B173-4F95-974A-A2EBEECFA9BB";
shapes = (
{
closed = 1;
nodes = (
(684,0,l),
(1193,1400,l),
(1028,1400,l),
(589,193,l),
(151,1400,l),
(-15,1400,l),
(493,0,l)
);
}
);
width = 1178.4;
}
);
metricLeft = W;
metricRight = W;
unicode = 86;
},
{
glyphname = W;
kernLeft = W;
kernRight = W;
lastChange = "2023-12-28 07:56:32 +0000";
layers = (
{
anchors = (
{
name = bottom;
pos = (1016,0);
},
{
name = top;
pos = (1016,1400);
}
);
hints = (
{
horizontal = 1;
place = (0,21);
target = up;
type = BottomGhost;
},
{
horizontal = 1;
place = (1400,-20);
target = down;
type = TopGhost;
}
);
layerId = "10BC12B3-5274-42E3-B5BC-F74F362F0DF4";
shapes = (
{
closed = 1;
nodes = (
(493,0,l),
(831,0,l),
(1015,726,l),
(1201,0,l),
(1539,0,l),
(2047,1400,l),
(1729,1400,l),
(1391,468,l),
(1152,1400,l),
(876,1400,l),
(640,468,l),
(303,1400,l),
(-15,1400,l)
);
}
);
width = 2032;
},
{
anchors = (
{
name = bottom;
pos = (892,0);
},
{
name = top;
pos = (892,1400);
}
);
hints = (
{
horizontal = 1;
origin = (0,0);
target = (0,10);
type = Stem;
},
{
horizontal = 1;
origin = (0,12);
target = down;
type = TopGhost;
}
);
layerId = "9AF1F7D9-E035-453E-B2A8-46DE370997D0";
shapes = (
{
closed = 1;
nodes = (
(493,0,l),
(571,0,l),
(891,1250,l),
(1211,0,l),
(1290,0,l),
(1800,1400,l),
(1736,1400,l),
(1251,86,l),
(915,1400,l),
(867,1400,l),
(533,86,l),
(49,1400,l),
(-15,1400,l)
);
}
);
width = 1785;
},
{
anchors = (
{
name = bottom;
pos = (751,0);
},
{
name = top;
pos = (948,1400);
}
);
hints = (
{
horizontal = 1;
origin = (0,0);
target = (0,10);
type = Stem;
},
{
horizontal = 1;
origin = (0,12);
target = down;
type = TopGhost;
}
);
layerId = m003;
shapes = (
{
closed = 1;
nodes = (
(352,0,l),
(430,0,l),
(926,1250,l),
(1070,0,l),
(1149,0,l),
(1856,1400,l),
(1792,1400,l),
(1123,86,l),
(971,1400,l),
(923,1400,l),
(405,86,l),
(105,1400,l),
(41,1400,l)
);
}
);
width = 1785;
},
{
anchors = (
{
name = bottom;
pos = (875,0);
},
{
name = top;
pos = (1072,1400);
}
);
hints = (
{
horizontal = 1;
place = (-141,21);
target = up;
type = BottomGhost;
},
{
horizontal = 1;
place = (1259,-20);
target = down;
type = TopGhost;
}
);
layerId = m004;
shapes = (
{
closed = 1;
nodes = (
(352,0,l),
(690,0,l),
(976,726,l),
(1060,0,l),
(1398,0,l),
(2103,1400,l),
(1785,1400,l),
(1316,468,l),
(1208,1400,l),
(932,1400,l),
(565,468,l),
(359,1400,l),
(41,1400,l)
);
}
);
width = 2032;
},
{
anchors = (
{
name = bottom;
pos = (801,0);
},
{
name = top;
pos = (998,1400);
}
);
hints = (
{
horizontal = 1;
origin = (0,0);
target = (0,10);
type = Stem;
},
{
horizontal = 1;
origin = (0,12);
target = down;
type = TopGhost;
}
);
layerId = "79A30733-E9D0-406C-A133-0F4AF5F1D98D";
shapes = (
{
closed = 1;
nodes = (
(352,0,l),
(534,0,l),
(946,1040,l),
(1066,0,l),
(1249,0,l),
(1955,1400,l),
(1789,1400,l),
(1200,239,l),
(1066,1400,l),
(927,1400,l),
(469,239,l),
(207,1400,l),
(41,1400,l)
);
}
);
width = 1883.8;
},
{
anchors = (
{
name = bottom;
pos = (942,0);
},
{
name = top;
pos = (942,1400);
}
);
hints = (
{
horizontal = 1;
origin = (0,0);
target = (0,10);
type = Stem;
},
{
horizontal = 1;
origin = (0,12);
target = down;
type = TopGhost;
}
);
layerId = "6E59A8CF-B173-4F95-974A-A2EBEECFA9BB";
shapes = (
{
closed = 1;
nodes = (
(493,0,l),
(675,0,l),
(941,1040,l),
(1207,0,l),
(1390,0,l),
(1899,1400,l),
(1733,1400,l),
(1307,239,l),
(1010,1400,l),
(871,1400,l),
(576,239,l),
(151,1400,l),
(-15,1400,l)
);
}
);
width = 1883.8;
}
);
unicode = 87;
},
{
glyphname = X;
kernLeft = X;
kernRight = X;
lastChange = "2023-12-28 07:56:32 +0000";
layers = (
{
anchors = (
{
name = bottom;
pos = (653,0);
},
{
name = top;
pos = (653,1400);
}
);
hints = (
{
horizontal = 1;
origin = (0,11);
target = up;
type = BottomGhost;
},
{
horizontal = 1;
origin = (0,9);
target = down;
type = TopGhost;
}
);
layerId = "10BC12B3-5274-42E3-B5BC-F74F362F0DF4";
shapes = (
{
closed = 1;
nodes = (
(327,0,l),
(653,448,l),
(979,0,l),
(1351,0,l),
(839,704,l),
(1345,1400,l),
(975,1400,l),
(653,958,l),
(331,1400,l),
(-39,1400,l),
(467,704,l),
(-45,0,l)
);
}
);
width = 1306;
},
{
anchors = (
{
name = bottom;
pos = (535,0);
},
{
name = top;
pos = (535,1400);
}
);
hints = (
{
horizontal = 1;
origin = (0,11);
target = up;
type = BottomGhost;
},
{
horizontal = 1;
origin = (0,9);
target = down;
type = TopGhost;
}
);
layerId = "9AF1F7D9-E035-453E-B2A8-46DE370997D0";
shapes = (
{
closed = 1;
nodes = (
(61,0,l),
(535,652,l),
(1011,0,l),
(1085,0,l),
(573,704,l),
(1079,1400,l),
(1005,1400,l),
(535,754,l),
(65,1400,l),
(-9,1400,l),
(499,704,l),
(-15,0,l)
);
}
);
width = 1070;
},
{
anchors = (
{
name = bottom;
pos = (394,0);
},
{
name = top;
pos = (591,1400);
}
);
hints = (
{
horizontal = 1;
origin = (0,11);
target = up;
type = BottomGhost;
},
{
horizontal = 1;
origin = (0,9);
target = down;
type = TopGhost;
}
);
layerId = m003;
shapes = (
{
closed = 1;
nodes = (
(-80,0,l),
(486,652,l),
(870,0,l),
(944,0,l),
(531,704,l),
(1135,1400,l),
(1061,1400,l),
(500,754,l),
(121,1400,l),
(47,1400,l),
(457,704,l),
(-156,0,l)
);
}
);
width = 1070;
},
{
anchors = (
{
name = bottom;
pos = (512,0);
},
{
name = top;
pos = (709,1400);
}
);
hints = (
{
horizontal = 1;
origin = (0,11);
target = up;
type = BottomGhost;
},
{
horizontal = 1;
origin = (0,9);
target = down;
type = TopGhost;
}
);
layerId = m004;
shapes = (
{
closed = 1;
nodes = (
(186,0,l),
(575,448,l),
(838,0,l),
(1210,0,l),
(797,704,l),
(1401,1400,l),
(1031,1400,l),
(647,958,l),
(387,1400,l),
(17,1400,l),
(425,704,l),
(-186,0,l)
);
}
);
width = 1306;
},
{
anchors = (
{
name = bottom;
pos = (441,0);
},
{
name = top;
pos = (638,1400);
}
);
hints = (
{
horizontal = 1;
origin = (0,11);
target = up;
type = BottomGhost;
},
{
horizontal = 1;
origin = (0,9);
target = down;
type = TopGhost;
}
);
layerId = "79A30733-E9D0-406C-A133-0F4AF5F1D98D";
shapes = (
{
closed = 1;
nodes = (
(26,0,l),
(522,570,l),
(857,0,l),
(1050,0,l),
(637,704,l),
(1241,1400,l),
(1049,1400,l),
(559,836,l),
(227,1400,l),
(35,1400,l),
(444,704,l),
(-168,0,l)
);
}
);
width = 1164.4;
},
{
anchors = (
{
name = bottom;
pos = (582,0);
},
{
name = top;
pos = (582,1400);
}
);
hints = (
{
horizontal = 1;
origin = (0,11);
target = up;
type = BottomGhost;
},
{
horizontal = 1;
origin = (0,9);
target = down;
type = TopGhost;
}
);
layerId = "6E59A8CF-B173-4F95-974A-A2EBEECFA9BB";
shapes = (
{
closed = 1;
nodes = (
(167,0,l),
(582,570,l),
(998,0,l),
(1191,0,l),
(679,704,l),
(1185,1400,l),
(993,1400,l),
(582,836,l),
(171,1400,l),
(-21,1400,l),
(486,704,l),
(-27,0,l)
);
}
);
width = 1164.4;
}
);
unicode = 88;
},
{
glyphname = Y;
kernLeft = Y;
kernRight = Y;
lastChange = "2023-12-28 07:56:32 +0000";
layers = (
{
anchors = (
{
name = bottom;
pos = (621,0);
},
{
name = top;
pos = (621,1400);
},
{
name = topleft;
pos = (-55,1400);
}
);
hints = (
{
horizontal = 1;
origin = (0,4);
target = up;
type = BottomGhost;
},
{
horizontal = 1;
origin = (0,2);
target = down;
type = TopGhost;
},
{
origin = (0,4);
target = (0,5);
type = Stem;
}
);
layerId = "10BC12B3-5274-42E3-B5BC-F74F362F0DF4";
shapes = (
{
closed = 1;
nodes = (
(621,956,l),
(339,1400,l),
(-15,1400,l),
(471,630,l),
(471,0,l),
(771,0,l),
(771,630,l),
(1257,1400,l),
(903,1400,l)
);
}
);
width = 1242;
},
{
anchors = (
{
name = bottom;
pos = (479,0);
},
{
name = top;
pos = (479,1400);
},
{
name = topleft;
pos = (-55,1400);
}
);
hints = (
{
horizontal = 1;
origin = (0,4);
target = up;
type = BottomGhost;
},
{
horizontal = 1;
origin = (0,2);
target = down;
type = TopGhost;
},
{
origin = (0,4);
target = (0,5);
type = Stem;
}
);
layerId = "9AF1F7D9-E035-453E-B2A8-46DE370997D0";
shapes = (
{
closed = 1;
nodes = (
(479,702,l),
(55,1400,l),
(-15,1400,l),
(449,636,l),
(449,0,l),
(509,0,l),
(509,636,l),
(973,1400,l),
(903,1400,l)
);
}
);
width = 958;
},
{
anchors = (
{
name = bottom;
pos = (338,0);
},
{
name = top;
pos = (535,1400);
},
{
name = topleft;
pos = (1,1400);
}
);
hints = (
{
horizontal = 1;
origin = (0,4);
target = up;
type = BottomGhost;
},
{
horizontal = 1;
origin = (0,2);
target = down;
type = TopGhost;
},
{
origin = (0,4);
target = (0,5);
type = Stem;
}
);
layerId = m003;
shapes = (
{
closed = 1;
nodes = (
(437,702,l),
(111,1400,l),
(41,1400,l),
(398,636,l),
(308,0,l),
(368,0,l),
(458,636,l),
(1029,1400,l),
(959,1400,l)
);
}
);
width = 958;
},
{
anchors = (
{
name = bottom;
pos = (480,0);
},
{
name = top;
pos = (677,1400);
},
{
name = topleft;
pos = (1,1400);
}
);
hints = (
{
horizontal = 1;
origin = (0,4);
target = up;
type = BottomGhost;
},
{
horizontal = 1;
origin = (0,2);
target = down;
type = TopGhost;
},
{
origin = (0,4);
target = (0,5);
type = Stem;
}
);
layerId = m004;
shapes = (
{
closed = 1;
nodes = (
(615,956,l),
(395,1400,l),
(41,1400,l),
(419,630,l),
(330,0,l),
(630,0,l),
(719,630,l),
(1313,1400,l),
(959,1400,l)
);
}
);
width = 1242;
},
{
anchors = (
{
name = bottom;
pos = (395,0);
},
{
name = top;
pos = (592,1400);
},
{
name = topleft;
pos = (1,1400);
}
);
hints = (
{
horizontal = 1;
origin = (0,4);
target = up;
type = BottomGhost;
},
{
horizontal = 1;
origin = (0,2);
target = down;
type = TopGhost;
},
{
origin = (0,4);
target = (0,5);
type = Stem;
}
);
layerId = "79A30733-E9D0-406C-A133-0F4AF5F1D98D";
shapes = (
{
closed = 1;
nodes = (
(508,804,l),
(225,1400,l),
(41,1400,l),
(406,634,l),
(317,0,l),
(473,0,l),
(562,634,l),
(1143,1400,l),
(959,1400,l)
);
}
);
width = 1071.6;
},
{
anchors = (
{
name = bottom;
pos = (536,0);
},
{
name = top;
pos = (536,1400);
},
{
name = topleft;
pos = (-55,1400);
}
);
hints = (
{
horizontal = 1;
origin = (0,4);
target = up;
type = BottomGhost;
},
{
horizontal = 1;
origin = (0,2);
target = down;
type = TopGhost;
},
{
origin = (0,4);
target = (0,5);
type = Stem;
}
);
layerId = "6E59A8CF-B173-4F95-974A-A2EBEECFA9BB";
shapes = (
{
closed = 1;
nodes = (
(536,804,l),
(169,1400,l),
(-15,1400,l),
(458,634,l),
(458,0,l),
(614,0,l),
(614,634,l),
(1087,1400,l),
(903,1400,l)
);
}
);
width = 1071.6;
}
);
unicode = 89;
},
{
glyphname = Z;
kernLeft = Z;
kernRight = Z;
lastChange = "2023-12-28 07:56:32 +0000";
layers = (
{
anchors = (
{
name = bottom;
pos = (586,0);
},
{
name = center;
pos = (586,700);
},
{
name = top;
pos = (586,1400);
}
);
hints = (
{
horizontal = 1;
origin = (0,9);
target = (0,8);
type = Stem;
},
{
horizontal = 1;
origin = (0,5);
target = (0,6);
type = Stem;
}
);
layerId = "10BC12B3-5274-42E3-B5BC-F74F362F0DF4";
shapes = (
{
closed = 1;
nodes = (
(1152,0,l),
(1152,300,l),
(426,300,l),
(1152,1100,l),
(1152,1400,l),
(20,1400,l),
(20,1100,l),
(746,1100,l),
(20,300,l),
(20,0,l)
);
}
);
width = 1172;
},
{
anchors = (
{
name = bottom;
pos = (586,0);
},
{
name = center;
pos = (586,700);
},
{
name = top;
pos = (586,1400);
}
);
hints = (
{
horizontal = 1;
origin = (0,9);
target = (0,8);
type = Stem;
},
{
horizontal = 1;
origin = (0,5);
target = (0,6);
type = Stem;
}
);
layerId = "9AF1F7D9-E035-453E-B2A8-46DE370997D0";
shapes = (
{
closed = 1;
nodes = (
(1152,0,l),
(1152,60,l),
(98,60,l),
(1152,1340,l),
(1152,1400,l),
(20,1400,l),
(20,1340,l),
(1074,1340,l),
(20,60,l),
(20,0,l)
);
}
);
width = 1172;
},
{
anchors = (
{
name = bottom;
pos = (445,0);
},
{
name = center;
pos = (544,700);
},
{
name = top;
pos = (642,1400);
}
);
hints = (
{
horizontal = 1;
origin = (0,9);
target = (0,8);
type = Stem;
},
{
horizontal = 1;
origin = (0,5);
target = (0,6);
type = Stem;
}
);
layerId = m003;
shapes = (
{
closed = 1;
nodes = (
(1011,0,l),
(1020,60,l),
(-34,60,l),
(1200,1340,l),
(1208,1400,l),
(76,1400,l),
(68,1340,l),
(1122,1340,l),
(-112,60,l),
(-121,0,l)
);
}
);
width = 1172;
},
{
anchors = (
{
name = bottom;
pos = (445,0);
},
{
name = center;
pos = (544,700);
},
{
name = top;
pos = (642,1400);
}
);
hints = (
{
horizontal = 1;
origin = (0,9);
target = (0,8);
type = Stem;
},
{
horizontal = 1;
origin = (0,5);
target = (0,6);
type = Stem;
}
);
layerId = m004;
shapes = (
{
closed = 1;
nodes = (
(1011,0,l),
(1054,300,l),
(328,300,l),
(1166,1100,l),
(1208,1400,l),
(76,1400,l),
(34,1100,l),
(760,1100,l),
(-78,300,l),
(-121,0,l)
);
}
);
width = 1172;
},
{
anchors = (
{
name = bottom;
pos = (445,0);
},
{
name = center;
pos = (544,700);
},
{
name = top;
pos = (642,1400);
}
);
hints = (
{
horizontal = 1;
origin = (0,9);
target = (0,8);
type = Stem;
},
{
horizontal = 1;
origin = (0,5);
target = (0,6);
type = Stem;
}
);
layerId = "79A30733-E9D0-406C-A133-0F4AF5F1D98D";
shapes = (
{
closed = 1;
nodes = (
(1011,0,l),
(1034,156,l),
(111,156,l),
(1186,1244,l),
(1208,1400,l),
(76,1400,l),
(54,1244,l),
(977,1244,l),
(-98,156,l),
(-121,0,l)
);
}
);
width = 1172;
},
{
anchors = (
{
name = bottom;
pos = (586,0);
},
{
name = center;
pos = (586,700);
},
{
name = top;
pos = (586,1400);
}
);
hints = (
{
horizontal = 1;
origin = (0,9);
target = (0,8);
type = Stem;
},
{
horizontal = 1;
origin = (0,5);
target = (0,6);
type = Stem;
}
);
layerId = "6E59A8CF-B173-4F95-974A-A2EBEECFA9BB";
shapes = (
{
closed = 1;
nodes = (
(1152,0,l),
(1152,156,l),
(229,156,l),
(1152,1244,l),
(1152,1400,l),
(20,1400,l),
(20,1244,l),
(943,1244,l),
(20,156,l),
(20,0,l)
);
}
);
width = 1172;
}
);
unicode = 90;
},
{
glyphname = Saltillo;
kernLeft = H;
kernRight = H;
lastChange = "2023-12-28 07:56:32 +0000";
layers = (
{
layerId = "9AF1F7D9-E035-453E-B2A8-46DE370997D0";
shapes = (
{
closed = 1;
nodes = (
(60,1500,l),
(70,603,l),
(110,603,l),
(120,1500,l)
);
}
);
width = 180;
},
{
layerId = "10BC12B3-5274-42E3-B5BC-F74F362F0DF4";
shapes = (
{
closed = 1;
nodes = (
(60,1500,l),
(110,603,l),
(310,603,l),
(360,1500,l)
);
}
);
width = 420;
},
{
layerId = m003;
shapes = (
{
closed = 1;
nodes = (
(130,1500,l),
(14,603,l),
(54,603,l),
(190,1500,l)
);
}
);
width = 180;
},
{
layerId = m004;
shapes = (
{
closed = 1;
nodes = (
(130,1500,l),
(54,603,l),
(254,603,l),
(430,1500,l)
);
}
);
width = 420;
},
{
layerId = "79A30733-E9D0-406C-A133-0F4AF5F1D98D";
shapes = (
{
closed = 1;
nodes = (
(130,1500,l),
(30,603,l),
(134,603,l),
(286,1500,l)
);
}
);
width = 276;
},
{
layerId = "6E59A8CF-B173-4F95-974A-A2EBEECFA9BB";
shapes = (
{
closed = 1;
nodes = (
(60,1500,l),
(86,603,l),
(190,603,l),
(216,1500,l)
);
}
);
width = 276;
}
);
unicode = 42891;
},
{
glyphname = a;
kernLeft = o;
kernRight = n;
lastChange = "2023-12-28 07:56:32 +0000";
layers = (
{
anchors = (
{
name = bottom;
pos = (603,0);
},
{
name = ogonek;
pos = (1118,0);
},
{
name = top;
pos = (603,1000);
}
);
hints = (
{
horizontal = 1;
origin = (0,9);
target = (0,12);
type = Stem;
},
{
horizontal = 1;
origin = (0,16);
target = down;
type = TopGhost;
},
{
horizontal = 1;
origin = (0,3);
target = (0,0);
type = Stem;
},
{
horizontal = 1;
origin = (0,13);
target = up;
type = BottomGhost;
},
{
origin = (0,16);
target = (0,14);
type = Stem;
}
);
layerId = "10BC12B3-5274-42E3-B5BC-F74F362F0DF4";
shapes = (
{
closed = 1;
nodes = (
(832,904,l),
(758,974,o),
(665,1028,o),
(550,1028,cs),
(267,1028,o),
(39,798,o),
(40,514,cs),
(39,216,o),
(280,-26,o),
(578,-26,cs),
(678,-26,o),
(753,20,o),
(803,90,c),
(817,0,l),
(1118,0,l),
(1118,1000,l),
(818,1000,l)
);
},
{
closed = 1;
nodes = (
(448,262,o),
(348,368,o),
(348,500,cs),
(348,632,o),
(445,738,o),
(570,738,cs),
(694,738,o),
(794,632,o),
(794,500,cs),
(794,368,o),
(694,262,o),
(570,262,cs)
);
}
);
width = 1208;
},
{
anchors = (
{
name = bottom;
pos = (582,0);
},
{
name = ogonek;
pos = (1054,0);
},
{
name = top;
pos = (582,1000);
}
);
hints = (
{
horizontal = 1;
origin = (0,9);
target = (1,11);
type = Stem;
},
{
horizontal = 1;
origin = (0,16);
target = down;
type = TopGhost;
},
{
horizontal = 1;
origin = (0,3);
target = (1,5);
type = Stem;
},
{
horizontal = 1;
origin = (0,13);
target = up;
type = BottomGhost;
},
{
origin = (0,6);
target = (1,2);
type = Stem;
},
{
origin = (0,13);
target = (0,14);
type = Stem;
},
{
origin = (1,8);
target = (0,14);
type = Stem;
}
);
layerId = "9AF1F7D9-E035-453E-B2A8-46DE370997D0";
shapes = (
{
closed = 1;
nodes = (
(994,768,l),
(922,924,o),
(780,1028,o),
(586,1028,cs),
(296,1028,o),
(60,792,o),
(60,500,cs),
(60,210,o),
(296,-26,o),
(586,-26,cs),
(780,-26,o),
(922,78,o),
(994,234,c),
(994,0,l),
(1054,0,l),
(1054,1000,l),
(994,1000,l)
);
},
{
closed = 1;
nodes = (
(336,34,o),
(120,238,o),
(120,500,cs),
(120,758,o),
(328,968,o),
(586,968,cs),
(840,968,o),
(990,762,o),
(990,500,cs),
(990,244,o),
(844,34,o),
(586,34,cs)
);
}
);
width = 1154;
},
{
anchors = (
{
name = bottom;
pos = (441,0);
},
{
name = ogonek;
pos = (913,0);
},
{
name = top;
pos = (582,1000);
}
);
hints = (
{
horizontal = 1;
origin = (0,9);
target = (1,11);
type = Stem;
},
{
horizontal = 1;
origin = (0,16);
target = down;
type = TopGhost;
},
{
horizontal = 1;
origin = (0,3);
target = (1,5);
type = Stem;
},
{
horizontal = 1;
origin = (0,13);
target = up;
type = BottomGhost;
},
{
origin = (0,6);
target = (1,2);
type = Stem;
},
{
origin = (0,13);
target = (0,14);
type = Stem;
},
{
origin = (1,8);
target = (0,14);
type = Stem;
}
);
layerId = m003;
shapes = (
{
closed = 1;
nodes = (
(961,768,l),
(911,924,o),
(784,1028,o),
(590,1028,cs),
(300,1028,o),
(31,792,o),
(-10,500,cs),
(-51,210,o),
(152,-26,o),
(442,-26,cs),
(636,-26,o),
(792,78,o),
(886,234,c),
(853,0,l),
(913,0,l),
(1054,1000,l),
(994,1000,l)
);
},
{
closed = 1;
nodes = (
(200,34,o),
(13,238,o),
(50,500,cs),
(86,758,o),
(324,968,o),
(582,968,cs),
(836,968,o),
(957,762,o),
(920,500,cs),
(884,244,o),
(708,34,o),
(450,34,cs)
);
}
);
width = 1154;
},
{
anchors = (
{
name = bottom;
pos = (462,0);
},
{
name = ogonek;
pos = (977,0);
},
{
name = top;
pos = (603,1000);
}
);
hints = (
{
horizontal = 1;
origin = (0,9);
target = (0,12);
type = Stem;
},
{
horizontal = 1;
origin = (0,16);
target = down;
type = TopGhost;
},
{
horizontal = 1;
origin = (0,3);
target = (0,0);
type = Stem;
},
{
horizontal = 1;
origin = (0,13);
target = up;
type = BottomGhost;
},
{
origin = (0,16);
target = (0,14);
type = Stem;
}
);
layerId = m004;
shapes = (
{
closed = 1;
nodes = (
(819,904,l),
(754,974,o),
(669,1028,o),
(554,1028,cs),
(271,1028,o),
(11,798,o),
(-28,514,cs),
(-71,216,o),
(136,-26,o),
(434,-26,cs),
(534,-26,o),
(615,20,o),
(675,90,c),
(676,0,l),
(977,0,l),
(1118,1000,l),
(818,1000,l)
);
},
{
closed = 1;
nodes = (
(344,262,o),
(259,368,o),
(278,500,cs),
(296,632,o),
(408,738,o),
(533,738,cs),
(657,738,o),
(742,632,o),
(724,500,cs),
(705,368,o),
(590,262,o),
(466,262,cs)
);
}
);
width = 1208;
},
{
anchors = (
{
name = bottom;
pos = (449,0);
},
{
name = ogonek;
pos = (939,0);
},
{
name = top;
pos = (590,1000);
}
);
hints = (
{
horizontal = 1;
origin = (0,9);
target = (1,11);
type = Stem;
},
{
horizontal = 1;
origin = (0,16);
target = down;
type = TopGhost;
},
{
horizontal = 1;
origin = (0,3);
target = (1,5);
type = Stem;
},
{
horizontal = 1;
origin = (0,13);
target = up;
type = BottomGhost;
},
{
origin = (0,6);
target = (1,2);
type = Stem;
},
{
origin = (0,13);
target = (0,14);
type = Stem;
},
{
origin = (1,8);
target = (0,14);
type = Stem;
}
);
layerId = "79A30733-E9D0-406C-A133-0F4AF5F1D98D";
shapes = (
{
closed = 1;
nodes = (
(904,822,l),
(848,944,o),
(738,1028,o),
(576,1028,cs),
(288,1028,o),
(23,794,o),
(-17,506,cs),
(-59,212,o),
(146,-26,o),
(439,-26,cs),
(595,-26,o),
(721,55,o),
(802,176,c),
(782,0,l),
(939,0,l),
(1080,1000,l),
(924,1000,l)
);
},
{
closed = 1;
nodes = (
(258,125,o),
(111,290,o),
(141,500,cs),
(170,708,o),
(358,876,o),
(562,876,cs),
(764,876,o),
(871,710,o),
(842,500,cs),
(812,294,o),
(661,125,o),
(456,125,cs)
);
}
);
width = 1175.6;
},
{
anchors = (
{
name = bottom;
pos = (590,0);
},
{
name = ogonek;
pos = (1080,0);
},
{
name = top;
pos = (590,1000);
}
);
hints = (
{
horizontal = 1;
origin = (0,9);
target = (1,11);
type = Stem;
},
{
horizontal = 1;
origin = (0,16);
target = down;
type = TopGhost;
},
{
horizontal = 1;
origin = (0,3);
target = (1,5);
type = Stem;
},
{
horizontal = 1;
origin = (0,13);
target = up;
type = BottomGhost;
},
{
origin = (0,6);
target = (1,2);
type = Stem;
},
{
origin = (0,13);
target = (0,14);
type = Stem;
},
{
origin = (1,8);
target = (0,14);
type = Stem;
}
);
layerId = "6E59A8CF-B173-4F95-974A-A2EBEECFA9BB";
shapes = (
{
closed = 1;
nodes = (
(929,822,l),
(856,944,o),
(734,1028,o),
(572,1028,cs),
(284,1028,o),
(52,794,o),
(52,506,cs),
(52,212,o),
(290,-26,o),
(583,-26,cs),
(739,-26,o),
(854,55,o),
(918,176,c),
(923,0,l),
(1080,0,l),
(1080,1000,l),
(924,1000,l)
);
},
{
closed = 1;
nodes = (
(381,125,o),
(211,290,o),
(211,500,cs),
(211,708,o),
(375,876,o),
(580,876,cs),
(782,876,o),
(912,710,o),
(912,500,cs),
(912,294,o),
(784,125,o),
(580,125,cs)
);
}
);
width = 1175.6;
}
);
metricLeft = o;
metricRight = H;
unicode = 97;
},
{
glyphname = ae;
kernLeft = o;
kernRight = o;
lastChange = "2023-12-28 07:56:49 +0000";
layers = (
{
anchors = (
{
name = bottom;
pos = (744,2);
},
{
name = top;
pos = (777,1002);
}
);
hints = (
{
horizontal = 1;
place = (-26,180);
type = Stem;
},
{
horizontal = 1;
place = (402,220);
type = Stem;
},
{
horizontal = 1;
place = (768,0);
type = Stem;
},
{
horizontal = 1;
place = (1028,-260);
type = Stem;
},
{
place = (80,290);
type = Stem;
}
);
layerId = "10BC12B3-5274-42E3-B5BC-F74F362F0DF4";
shapes = (
{
closed = 1;
nodes = (
(513,-26,o),
(672,61,o),
(744,145,c),
(836,40,o),
(967,-26,o),
(1113,-26,cs),
(1313,-26,o),
(1485,98,o),
(1566,276,c),
(1260,347,l),
(1224,303,o),
(1173,274,o),
(1116,274,cs),
(1021,274,o),
(965,329,o),
(937,401,c),
(1604,401,l),
(1662,718,o),
(1435,1028,o),
(1113,1028,cs),
(984,1028,o),
(866,976,o),
(777,892,c),
(692,980,o),
(572,1028,o),
(446,1028,cs),
(338,1028,o),
(231,997,o),
(141,935,c),
(307,686,l),
(349,714,o),
(398,728,o),
(450,728,cs),
(525,728,o),
(579,682,o),
(601,621,c),
(340,621,ls),
(147,621,o),
(0,470,o),
(0,298,cs),
(0,126,o),
(144,-26,o),
(340,-26,cs)
);
},
{
closed = 1;
nodes = (
(296,234,o),
(260,277,o),
(260,321,cs),
(260,365,o),
(296,401,o),
(340,401,cs),
(600,401,l),
(581,364,o),
(557,331,o),
(528,305,cs),
(478,260,o),
(414,234,o),
(340,234,cs)
);
},
{
closed = 1;
nodes = (
(955,707,o),
(1028,768,o),
(1113,768,cs),
(1199,768,o),
(1272,707,o),
(1301,621,c),
(926,621,l)
);
}
);
width = 1653;
},
{
anchors = (
{
name = bottom;
pos = (788,0);
},
{
name = top;
pos = (801,1000);
}
);
hints = (
{
horizontal = 1;
place = (0,60);
type = Stem;
},
{
horizontal = 1;
place = (496,60);
type = Stem;
},
{
horizontal = 1;
place = (994,60);
type = Stem;
},
{
place = (70,60);
type = Stem;
},
{
place = (848,60);
type = Stem;
},
{
place = (1786,60);
type = Stem;
},
{
place = (848,60);
type = Stem;
}
);
layerId = "9AF1F7D9-E035-453E-B2A8-46DE370997D0";
shapes = (
{
closed = 1;
nodes = (
(524,-24,o),
(705,114,o),
(788,321,c),
(857,118,o),
(1042,-26,o),
(1258,-26,cs),
(1458,-26,o),
(1630,98,o),
(1710,276,c),
(1650,290,l),
(1570,130,o),
(1428,34,o),
(1258,34,cs),
(1028,34,o),
(838,220,o),
(818,470,c),
(1756,470,l),
(1750,804,o),
(1544,1028,o),
(1258,1028,cs),
(1054,1028,o),
(878,899,o),
(801,714,c),
(724,900,o),
(554,1028,o),
(352,1028,cs),
(295,1028,o),
(235,1017,o),
(177,994,c),
(208,941,l),
(255,959,o),
(304,968,o),
(352,968,cs),
(608,968,o),
(767,768,o),
(759,531,c),
(307,531,ls),
(131,531,o),
(30,400,o),
(30,250,cs),
(30,83,o),
(151,-24,o),
(315,-24,cs)
);
},
{
closed = 1;
nodes = (
(165,36,o),
(90,138,o),
(90,250,cs),
(90,375,o),
(173,471,o),
(307,471,cs),
(757,471,l),
(754,417,o),
(742,364,o),
(721,314,cs),
(654,156,o),
(503,36,o),
(315,36,cs)
);
},
{
closed = 1;
nodes = (
(834,772,o),
(1020,968,o),
(1258,968,cs),
(1494,968,o),
(1688,764,o),
(1696,530,c),
(818,530,l)
);
}
);
width = 1816;
},
{
anchors = (
{
name = bottom;
pos = (647,0);
},
{
name = top;
pos = (801,1000);
}
);
hints = (
{
horizontal = 1;
place = (-141,-81);
type = Stem;
},
{
horizontal = 1;
place = (355,-81);
type = Stem;
},
{
horizontal = 1;
place = (853,-81);
type = Stem;
},
{
place = (-71,-81);
type = Stem;
},
{
place = (707,-81);
type = Stem;
},
{
place = (1645,-81);
type = Stem;
},
{
place = (707,-81);
type = Stem;
}
);
layerId = m003;
shapes = (
{
closed = 1;
nodes = (
(380,-24,o),
(580,114,o),
(693,321,c),
(733,118,o),
(898,-26,o),
(1114,-26,cs),
(1314,-26,o),
(1503,98,o),
(1608,276,c),
(1550,290,l),
(1448,130,o),
(1292,34,o),
(1122,34,cs),
(892,34,o),
(728,220,o),
(744,470,c),
(1682,470,l),
(1722,804,o),
(1548,1028,o),
(1262,1028,cs),
(1058,1028,o),
(864,899,o),
(761,714,c),
(710,900,o),
(558,1028,o),
(356,1028,cs),
(299,1028,o),
(237,1017,o),
(176,994,c),
(200,941,l),
(249,959,o),
(300,968,o),
(348,968,cs),
(604,968,o),
(734,768,o),
(693,531,c),
(241,531,ls),
(65,531,o),
(-54,400,o),
(-75,250,cs),
(-99,83,o),
(7,-24,o),
(171,-24,cs)
);
},
{
closed = 1;
nodes = (
(30,36,o),
(-31,138,o),
(-15,250,cs),
(2,375,o),
(99,471,o),
(233,471,cs),
(683,471,l),
(672,417,o),
(653,364,o),
(625,314,cs),
(535,156,o),
(368,36,o),
(180,36,cs)
);
},
{
closed = 1;
nodes = (
(802,772,o),
(1016,968,o),
(1254,968,cs),
(1490,968,o),
(1655,764,o),
(1630,530,c),
(752,530,l)
);
}
);
width = 1816;
},
{
anchors = (
{
name = bottom;
pos = (604,2);
},
{
name = top;
pos = (777,1002);
}
);
hints = (
{
horizontal = 1;
place = (-167,39);
type = Stem;
},
{
horizontal = 1;
place = (261,79);
type = Stem;
},
{
horizontal = 1;
place = (627,-141);
type = Stem;
},
{
horizontal = 1;
place = (887,-401);
type = Stem;
},
{
place = (-61,149);
type = Stem;
}
);
layerId = m004;
shapes = (
{
closed = 1;
nodes = (
(369,-26,o),
(540,61,o),
(624,145,c),
(701,40,o),
(823,-26,o),
(969,-26,cs),
(1169,-26,o),
(1358,98,o),
(1464,276,c),
(1168,347,l),
(1126,303,o),
(1071,274,o),
(1014,274,cs),
(919,274,o),
(871,329,o),
(853,401,c),
(1520,401,l),
(1622,718,o),
(1439,1028,o),
(1117,1028,cs),
(988,1028,o),
(863,976,o),
(762,892,c),
(689,980,o),
(576,1028,o),
(450,1028,cs),
(342,1028,o),
(231,997,o),
(132,935,c),
(263,686,l),
(309,714,o),
(360,728,o),
(412,728,cs),
(487,728,o),
(534,682,o),
(548,621,c),
(287,621,ls),
(94,621,o),
(-74,470,o),
(-99,298,cs),
(-123,126,o),
(0,-26,o),
(196,-26,cs)
);
},
{
closed = 1;
nodes = (
(188,234,o),
(158,277,o),
(165,321,cs),
(171,365,o),
(212,401,o),
(256,401,cs),
(516,401,l),
(492,364,o),
(463,331,o),
(430,305,cs),
(374,260,o),
(306,234,o),
(232,234,cs)
);
},
{
closed = 1;
nodes = (
(914,707,o),
(995,768,o),
(1080,768,cs),
(1166,768,o),
(1231,707,o),
(1248,621,c),
(873,621,l)
);
}
);
width = 1653;
},
{
anchors = (
{
name = bottom;
pos = (630,1);
},
{
name = top;
pos = (791,1001);
}
);
hints = (
{
horizontal = 1;
place = (20,-16.1);
type = Stem;
},
{
horizontal = 1;
place = (464,-105);
type = Stem;
},
{
horizontal = 1;
place = (867,-209);
type = Stem;
},
{
place = (-43,-49);
type = Stem;
},
{
place = (424,-49);
type = Stem;
},
{
place = (920,-32.1);
type = Stem;
},
{
place = (400,11);
type = Stem;
}
);
layerId = "79A30733-E9D0-406C-A133-0F4AF5F1D98D";
shapes = (
{
closed = 1;
nodes = (
(376,-25,o),
(564,93,o),
(665,251,c),
(720,87,o),
(868,-26,o),
(1056,-26,cs),
(1256,-26,o),
(1445,98,o),
(1550,276,c),
(1397,313,l),
(1319,199,o),
(1204,130,o),
(1079,130,cs),
(903,130,o),
(785,264,o),
(788,442,c),
(1617,442,l),
(1682,770,o),
(1504,1028,o),
(1204,1028,cs),
(1030,1028,o),
(864,930,o),
(761,785,c),
(702,932,o),
(565,1028,o),
(394,1028,cs),
(316,1028,o),
(235,1009,o),
(158,970,c),
(225,839,l),
(273,861,o),
(324,872,o),
(374,872,cs),
(557,872,o),
(654,734,o),
(635,567,c),
(259,567,ls),
(77,567,o),
(-62,428,o),
(-85,269,cs),
(-109,100,o),
(4,-25,o),
(181,-25,cs)
);
},
{
closed = 1;
nodes = (
(93,115,o),
(45,194,o),
(57,278,cs),
(70,371,o),
(144,443,o),
(242,443,cs),
(616,443,l),
(600,396,o),
(577,351,o),
(547,310,cs),
(471,198,o),
(343,115,o),
(201,115,cs)
);
},
{
closed = 1;
nodes = (
(847,746,o),
(1008,888,o),
(1184,888,cs),
(1360,888,o),
(1485,741,o),
(1477,566,c),
(800,566,l)
);
}
);
width = 1748;
},
{
anchors = (
{
name = bottom;
pos = (770,1);
},
{
name = top;
pos = (791,1001);
}
);
hints = (
{
horizontal = 1;
place = (161,124);
type = Stem;
},
{
horizontal = 1;
place = (605,36);
type = Stem;
},
{
horizontal = 1;
place = (1008,-68);
type = Stem;
},
{
place = (42,36);
type = Stem;
},
{
place = (509,36);
type = Stem;
},
{
place = (1061,108);
type = Stem;
},
{
place = (541,152);
type = Stem;
}
);
layerId = "6E59A8CF-B173-4F95-974A-A2EBEECFA9BB";
shapes = (
{
closed = 1;
nodes = (
(520,-25,o),
(692,93,o),
(770,251,c),
(849,87,o),
(1012,-26,o),
(1200,-26,cs),
(1400,-26,o),
(1572,98,o),
(1652,276,c),
(1494,313,l),
(1432,199,o),
(1326,130,o),
(1201,130,cs),
(1025,130,o),
(889,264,o),
(866,442,c),
(1695,442,l),
(1715,770,o),
(1500,1028,o),
(1200,1028,cs),
(1026,1028,o),
(873,930,o),
(791,785,c),
(711,932,o),
(561,1028,o),
(390,1028,cs),
(312,1028,o),
(233,1009,o),
(163,970,c),
(248,839,l),
(293,861,o),
(342,872,o),
(391,872,cs),
(575,872,o),
(692,734,o),
(696,567,c),
(320,567,ls),
(137,567,o),
(18,428,o),
(18,269,cs),
(18,100,o),
(148,-25,o),
(325,-25,cs)
);
},
{
closed = 1;
nodes = (
(217,115,o),
(158,194,o),
(158,278,cs),
(158,371,o),
(222,443,o),
(320,443,cs),
(694,443,l),
(685,396,o),
(668,351,o),
(644,310,cs),
(584,198,o),
(467,115,o),
(325,115,cs)
);
},
{
closed = 1;
nodes = (
(882,746,o),
(1023,888,o),
(1200,888,cs),
(1376,888,o),
(1522,741,o),
(1538,566,c),
(861,566,l)
);
}
);
width = 1748;
}
);
metricRight = o;
unicode = 230;
},
{
glyphname = b;
kernLeft = H;
kernRight = o;
lastChange = "2023-12-28 07:56:49 +0000";
layers = (
{
anchors = (
{
name = bottom;
pos = (600,0);
},
{
name = center;
pos = (600,500);
},
{
name = top;
pos = (600,1900);
}
);
hints = (
{
horizontal = 1;
origin = (0,10);
target = (0,7);
type = Stem;
},
{
horizontal = 1;
origin = (0,16);
target = (0,2);
type = Stem;
},
{
horizontal = 1;
origin = (0,5);
target = up;
type = BottomGhost;
},
{
origin = (0,5);
target = (0,6);
type = Stem;
},
{
origin = (0,16);
target = (0,13);
type = Stem;
},
{
origin = (0,5);
target = (0,2);
type = Stem;
}
);
layerId = "10BC12B3-5274-42E3-B5BC-F74F362F0DF4";
shapes = (
{
closed = 1;
nodes = (
(536,1028,o),
(452,978,o),
(390,908,c),
(390,1500,l),
(90,1500,l),
(90,0,l),
(390,0,l),
(390,94,l),
(452,24,o),
(536,-26,o),
(642,-26,cs),
(934,-26,o),
(1170,210,o),
(1170,502,cs),
(1170,792,o),
(934,1028,o),
(642,1028,cs)
);
},
{
closed = 1;
nodes = (
(516,264,o),
(416,370,o),
(416,502,cs),
(416,632,o),
(516,740,o),
(638,740,cs),
(762,740,o),
(862,632,o),
(862,502,cs),
(862,370,o),
(762,264,o),
(638,264,cs)
);
}
);
width = 1210;
},
{
anchors = (
{
name = bottom;
pos = (567,0);
},
{
name = center;
pos = (567,500);
},
{
name = top;
pos = (567,1900);
}
);
hints = (
{
horizontal = 1;
origin = (0,10);
target = (1,11);
type = Stem;
},
{
horizontal = 1;
origin = (0,16);
target = (1,5);
type = Stem;
},
{
horizontal = 1;
origin = (0,5);
target = up;
type = BottomGhost;
},
{
origin = (0,5);
target = (0,6);
type = Stem;
},
{
origin = (1,8);
target = (0,13);
type = Stem;
},
{
origin = (0,5);
target = (1,2);
type = Stem;
}
);
layerId = "9AF1F7D9-E035-453E-B2A8-46DE370997D0";
shapes = (
{
closed = 1;
nodes = (
(374,1028,o),
(232,924,o),
(160,768,c),
(160,1500,l),
(100,1500,l),
(100,0,l),
(160,0,l),
(160,234,l),
(232,78,o),
(374,-26,o),
(568,-26,cs),
(858,-26,o),
(1094,210,o),
(1094,500,cs),
(1094,792,o),
(858,1028,o),
(568,1028,cs)
);
},
{
closed = 1;
nodes = (
(314,34,o),
(164,240,o),
(164,500,cs),
(164,756,o),
(310,968,o),
(568,968,cs),
(818,968,o),
(1034,764,o),
(1034,500,cs),
(1034,244,o),
(826,34,o),
(568,34,cs)
);
}
);
width = 1154;
},
{
anchors = (
{
name = bottom;
pos = (426,0);
},
{
name = center;
pos = (497,500);
},
{
name = top;
pos = (693,1900);
}
);
hints = (
{
horizontal = 1;
origin = (0,10);
target = (1,11);
type = Stem;
},
{
horizontal = 1;
origin = (0,16);
target = (1,5);
type = Stem;
},
{
horizontal = 1;
origin = (0,5);
target = up;
type = BottomGhost;
},
{
origin = (0,5);
target = (0,6);
type = Stem;
},
{
origin = (1,8);
target = (0,13);
type = Stem;
},
{
origin = (0,5);
target = (1,2);
type = Stem;
}
);
layerId = m003;
shapes = (
{
closed = 1;
nodes = (
(378,1028,o),
(221,924,o),
(127,768,c),
(230,1500,l),
(170,1500,l),
(-41,0,l),
(19,0,l),
(52,234,l),
(102,78,o),
(230,-26,o),
(424,-26,cs),
(714,-26,o),
(983,210,o),
(1024,500,cs),
(1065,792,o),
(862,1028,o),
(572,1028,cs)
);
},
{
closed = 1;
nodes = (
(178,34,o),
(57,240,o),
(94,500,cs),
(130,756,o),
(306,968,o),
(564,968,cs),
(814,968,o),
(1001,764,o),
(964,500,cs),
(928,244,o),
(690,34,o),
(432,34,cs)
);
}
);
width = 1154;
},
{
anchors = (
{
name = bottom;
pos = (459,0);
},
{
name = center;
pos = (530,500);
},
{
name = top;
pos = (726,1900);
}
);
hints = (
{
horizontal = 1;
origin = (0,10);
target = (0,7);
type = Stem;
},
{
horizontal = 1;
origin = (0,16);
target = (0,2);
type = Stem;
},
{
horizontal = 1;
origin = (0,5);
target = up;
type = BottomGhost;
},
{
origin = (0,5);
target = (0,6);
type = Stem;
},
{
origin = (0,16);
target = (0,13);
type = Stem;
},
{
origin = (0,5);
target = (0,2);
type = Stem;
}
);
layerId = m004;
shapes = (
{
closed = 1;
nodes = (
(540,1028,o),
(449,978,o),
(377,908,c),
(460,1500,l),
(160,1500,l),
(-51,0,l),
(249,0,l),
(263,94,l),
(315,24,o),
(392,-26,o),
(498,-26,cs),
(790,-26,o),
(1059,210,o),
(1100,502,cs),
(1141,792,o),
(938,1028,o),
(646,1028,cs)
);
},
{
closed = 1;
nodes = (
(413,264,o),
(327,370,o),
(346,502,cs),
(364,632,o),
(479,740,o),
(601,740,cs),
(725,740,o),
(810,632,o),
(792,502,cs),
(773,370,o),
(659,264,o),
(535,264,cs)
);
}
);
width = 1210;
},
{
anchors = (
{
name = bottom;
pos = (439,0);
},
{
name = center;
pos = (510,500);
},
{
name = top;
pos = (706,1900);
}
);
hints = (
{
horizontal = 1;
origin = (0,10);
target = (1,11);
type = Stem;
},
{
horizontal = 1;
origin = (0,16);
target = (1,5);
type = Stem;
},
{
horizontal = 1;
origin = (0,5);
target = up;
type = BottomGhost;
},
{
origin = (0,5);
target = (0,6);
type = Stem;
},
{
origin = (1,8);
target = (0,13);
type = Stem;
},
{
origin = (0,5);
target = (1,2);
type = Stem;
}
);
layerId = "79A30733-E9D0-406C-A133-0F4AF5F1D98D";
shapes = (
{
closed = 1;
nodes = (
(443,1028,o),
(312,946,o),
(227,824,c),
(322,1500,l),
(166,1500,l),
(-45,0,l),
(111,0,l),
(136,178,l),
(187,56,o),
(295,-26,o),
(454,-26,cs),
(744,-26,o),
(1013,210,o),
(1054,501,cs),
(1095,792,o),
(892,1028,o),
(602,1028,cs)
);
},
{
closed = 1;
nodes = (
(272,126,o),
(165,292,o),
(195,501,cs),
(224,706,o),
(375,877,o),
(579,877,cs),
(778,877,o),
(925,711,o),
(895,501,cs),
(866,294,o),
(678,126,o),
(473,126,cs)
);
}
);
width = 1176;
},
{
anchors = (
{
name = bottom;
pos = (580,0);
},
{
name = center;
pos = (580,500);
},
{
name = top;
pos = (580,1900);
}
);
hints = (
{
horizontal = 1;
origin = (0,10);
target = (1,11);
type = Stem;
},
{
horizontal = 1;
origin = (0,16);
target = (1,5);
type = Stem;
},
{
horizontal = 1;
origin = (0,5);
target = up;
type = BottomGhost;
},
{
origin = (0,5);
target = (0,6);
type = Stem;
},
{
origin = (1,8);
target = (0,13);
type = Stem;
},
{
origin = (0,5);
target = (1,2);
type = Stem;
}
);
layerId = "6E59A8CF-B173-4F95-974A-A2EBEECFA9BB";
shapes = (
{
closed = 1;
nodes = (
(439,1028,o),
(320,946,o),
(252,824,c),
(252,1500,l),
(96,1500,l),
(96,0,l),
(252,0,l),
(252,178,l),
(320,56,o),
(439,-26,o),
(598,-26,cs),
(888,-26,o),
(1124,210,o),
(1124,501,cs),
(1124,792,o),
(888,1028,o),
(598,1028,cs)
);
},
{
closed = 1;
nodes = (
(395,126,o),
(265,292,o),
(265,501,cs),
(265,706,o),
(392,877,o),
(596,877,cs),
(796,877,o),
(965,711,o),
(965,501,cs),
(965,294,o),
(800,126,o),
(596,126,cs)
);
}
);
width = 1176.4;
}
);
metricLeft = H;
metricRight = o;
unicode = 98;
},
{
glyphname = c;
kernLeft = o;
kernRight = c;
lastChange = "2023-12-28 07:56:48 +0000";
layers = (
{
anchors = (
{
name = bottom;
pos = (540,0);
},
{
name = top;
pos = (540,1000);
}
);
hints = (
{
horizontal = 1;
origin = (0,21);
target = (0,2);
type = Stem;
},
{
horizontal = 1;
origin = (0,15);
target = (0,8);
type = Stem;
},
{
origin = (0,18);
target = (0,5);
type = Stem;
}
);
layerId = "10BC12B3-5274-42E3-B5BC-F74F362F0DF4";
shapes = (
{
closed = 1;
nodes = (
(634,294,o),
(588,274,o),
(540,274,cs),
(426,274,o),
(340,382,o),
(340,500,cs),
(340,620,o),
(426,728,o),
(540,728,cs),
(588,728,o),
(634,708,o),
(670,672,c),
(940,818,l),
(848,946,o),
(704,1028,o),
(540,1028,cs),
(264,1028,o),
(40,792,o),
(40,500,cs),
(40,210,o),
(264,-26,o),
(540,-26,cs),
(704,-26,o),
(848,56,o),
(940,182,c),
(670,328,l)
);
}
);
width = 950;
},
{
anchors = (
{
name = bottom;
pos = (560,0);
},
{
name = top;
pos = (560,1000);
}
);
hints = (
{
horizontal = 1;
origin = (0,21);
target = (0,2);
type = Stem;
},
{
horizontal = 1;
origin = (0,15);
target = (0,8);
type = Stem;
},
{
origin = (0,18);
target = (0,5);
type = Stem;
}
);
layerId = "9AF1F7D9-E035-453E-B2A8-46DE370997D0";
shapes = (
{
closed = 1;
nodes = (
(828,108,o),
(700,34,o),
(560,34,cs),
(318,34,o),
(120,242,o),
(120,500,cs),
(120,754,o),
(312,968,o),
(560,968,cs),
(688,968,o),
(820,904,o),
(906,790,c),
(958,818,l),
(868,946,o),
(722,1028,o),
(560,1028,cs),
(284,1028,o),
(60,792,o),
(60,500,cs),
(60,210,o),
(284,-26,o),
(560,-26,cs),
(722,-26,o),
(868,56,o),
(958,184,c),
(906,212,l)
);
}
);
width = 988;
},
{
anchors = (
{
name = bottom;
pos = (419,0);
},
{
name = top;
pos = (560,1000);
}
);
hints = (
{
horizontal = 1;
origin = (0,21);
target = (0,2);
type = Stem;
},
{
horizontal = 1;
origin = (0,15);
target = (0,8);
type = Stem;
},
{
origin = (0,18);
target = (0,5);
type = Stem;
}
);
layerId = m003;
shapes = (
{
closed = 1;
nodes = (
(703,108,o),
(564,34,o),
(424,34,cs),
(182,34,o),
(13,242,o),
(50,500,cs),
(85,754,o),
(308,968,o),
(556,968,cs),
(684,968,o),
(807,904,o),
(876,790,c),
(932,818,l),
(860,946,o),
(726,1028,o),
(564,1028,cs),
(288,1028,o),
(31,792,o),
(-10,500,cs),
(-51,210,o),
(140,-26,o),
(416,-26,cs),
(578,-26,o),
(735,56,o),
(843,184,c),
(795,212,l)
);
}
);
width = 987;
},
{
anchors = (
{
name = bottom;
pos = (399,0);
},
{
name = top;
pos = (540,1000);
}
);
hints = (
{
horizontal = 1;
origin = (0,21);
target = (0,2);
type = Stem;
},
{
horizontal = 1;
origin = (0,15);
target = (0,8);
type = Stem;
},
{
origin = (0,18);
target = (0,5);
type = Stem;
}
);
layerId = m004;
shapes = (
{
closed = 1;
nodes = (
(535,294,o),
(486,274,o),
(438,274,cs),
(324,274,o),
(253,382,o),
(270,500,cs),
(287,620,o),
(388,728,o),
(502,728,cs),
(550,728,o),
(593,708,o),
(624,672,c),
(914,818,l),
(840,946,o),
(708,1028,o),
(544,1028,cs),
(268,1028,o),
(11,792,o),
(-30,500,cs),
(-71,210,o),
(120,-26,o),
(396,-26,cs),
(560,-26,o),
(715,56,o),
(825,182,c),
(576,328,l)
);
}
);
width = 950;
},
{
anchors = (
{
name = bottom;
pos = (411,0);
},
{
name = top;
pos = (552,1000);
}
);
hints = (
{
horizontal = 1;
origin = (0,21);
target = (0,2);
type = Stem;
},
{
horizontal = 1;
origin = (0,15);
target = (0,8);
type = Stem;
},
{
origin = (0,18);
target = (0,5);
type = Stem;
}
);
layerId = "79A30733-E9D0-406C-A133-0F4AF5F1D98D";
shapes = (
{
closed = 1;
nodes = (
(636,182,o),
(533,130,o),
(430,130,cs),
(239,130,o),
(109,298,o),
(138,500,cs),
(166,700,o),
(340,872,o),
(534,872,cs),
(630,872,o),
(721,826,o),
(775,743,c),
(925,818,l),
(852,946,o),
(719,1028,o),
(556,1028,cs),
(280,1028,o),
(23,792,o),
(-18,500,cs),
(-59,210,o),
(132,-26,o),
(408,-26,cs),
(571,-26,o),
(727,56,o),
(836,183,c),
(707,258,l)
);
}
);
width = 972.8;
},
{
anchors = (
{
name = bottom;
pos = (552,0);
},
{
name = top;
pos = (552,1000);
}
);
hints = (
{
horizontal = 1;
origin = (0,21);
target = (0,2);
type = Stem;
},
{
horizontal = 1;
origin = (0,15);
target = (0,8);
type = Stem;
},
{
origin = (0,18);
target = (0,5);
type = Stem;
}
);
layerId = "6E59A8CF-B173-4F95-974A-A2EBEECFA9BB";
shapes = (
{
closed = 1;
nodes = (
(750,182,o),
(655,130,o),
(552,130,cs),
(361,130,o),
(208,298,o),
(208,500,cs),
(208,700,o),
(358,872,o),
(552,872,cs),
(648,872,o),
(746,826,o),
(812,743,c),
(951,818,l),
(860,946,o),
(715,1028,o),
(552,1028,cs),
(276,1028,o),
(52,792,o),
(52,500,cs),
(52,210,o),
(276,-26,o),
(552,-26,cs),
(715,-26,o),
(860,56,o),
(951,183,c),
(812,258,l)
);
}
);
width = 972.8;
}
);
metricLeft = o;
metricRight = "=o-30";
unicode = 99;
},
{
glyphname = d;
kernLeft = o;
kernRight = H;
lastChange = "2023-12-28 07:56:48 +0000";
layers = (
{
anchors = (
{
name = bottom;
pos = (600,0);
},
{
name = center;
pos = (600,500);
},
{
name = hbar;
pos = (911,1160);
},
{
name = top;
pos = (600,1900);
},
{
name = topright;
pos = (1240,1102);
}
);
hints = (
{
horizontal = 1;
origin = (0,9);
target = (1,11);
type = Stem;
},
{
horizontal = 1;
origin = (0,3);
target = (1,5);
type = Stem;
},
{
horizontal = 1;
origin = (0,13);
target = up;
type = BottomGhost;
},
{
origin = (0,6);
target = (1,2);
type = Stem;
},
{
origin = (0,13);
target = (0,14);
type = Stem;
},
{
origin = (1,8);
target = (0,14);
type = Stem;
}
);
layerId = "10BC12B3-5274-42E3-B5BC-F74F362F0DF4";
shapes = (
{
closed = 1;
nodes = (
(820,908,l),
(758,978,o),
(674,1026,o),
(566,1026,cs),
(276,1026,o),
(40,790,o),
(40,500,cs),
(40,210,o),
(276,-26,o),
(566,-26,cs),
(674,-26,o),
(758,22,o),
(820,92,c),
(820,0,l),
(1120,0,l),
(1120,1500,l),
(820,1500,l)
);
},
{
closed = 1;
nodes = (
(448,262,o),
(348,368,o),
(348,500,cs),
(348,632,o),
(445,738,o),
(570,738,cs),
(694,738,o),
(794,632,o),
(794,500,cs),
(794,368,o),
(694,262,o),
(570,262,cs)
);
}
);
width = 1210;
},
{
anchors = (
{
name = bottom;
pos = (602,0);
},
{
name = center;
pos = (602,500);
},
{
name = hbar;
pos = (874,1200);
},
{
name = top;
pos = (602,1900);
},
{
name = topright;
pos = (1174,1102);
}
);
hints = (
{
horizontal = 1;
origin = (0,9);
target = (1,11);
type = Stem;
},
{
horizontal = 1;
origin = (0,3);
target = (1,5);
type = Stem;
},
{
horizontal = 1;
origin = (0,13);
target = up;
type = BottomGhost;
},
{
origin = (0,6);
target = (1,2);
type = Stem;
},
{
origin = (0,13);
target = (0,14);
type = Stem;
},
{
origin = (1,8);
target = (0,14);
type = Stem;
}
);
layerId = "9AF1F7D9-E035-453E-B2A8-46DE370997D0";
shapes = (
{
closed = 1;
nodes = (
(994,768,l),
(922,924,o),
(780,1028,o),
(586,1028,cs),
(296,1028,o),
(60,792,o),
(60,500,cs),
(60,210,o),
(296,-26,o),
(586,-26,cs),
(780,-26,o),
(922,78,o),
(994,234,c),
(994,0,l),
(1054,0,l),
(1054,1500,l),
(994,1500,l)
);
},
{
closed = 1;
nodes = (
(336,34,o),
(120,238,o),
(120,500,cs),
(120,758,o),
(330,968,o),
(586,968,cs),
(840,968,o),
(990,762,o),
(990,500,cs),
(990,244,o),
(844,34,o),
(586,34,cs)
);
}
);
width = 1154;
},
{
anchors = (
{
name = bottom;
pos = (461,0);
},
{
name = center;
pos = (532,500);
},
{
name = hbar;
pos = (902,1200);
},
{
name = top;
pos = (728,1900);
},
{
name = topright;
pos = (1188,1102);
}
);
hints = (
{
horizontal = 1;
origin = (0,9);
target = (1,11);
type = Stem;
},
{
horizontal = 1;
origin = (0,3);
target = (1,5);
type = Stem;
},
{
horizontal = 1;
origin = (0,13);
target = up;
type = BottomGhost;
},
{
origin = (0,6);
target = (1,2);
type = Stem;
},
{
origin = (0,13);
target = (0,14);
type = Stem;
},
{
origin = (1,8);
target = (0,14);
type = Stem;
}
);
layerId = m003;
shapes = (
{
closed = 1;
nodes = (
(961,768,l),
(911,924,o),
(784,1028,o),
(590,1028,cs),
(300,1028,o),
(31,792,o),
(-10,500,cs),
(-51,210,o),
(152,-26,o),
(442,-26,cs),
(636,-26,o),
(792,78,o),
(886,234,c),
(853,0,l),
(913,0,l),
(1124,1500,l),
(1064,1500,l)
);
},
{
closed = 1;
nodes = (
(200,34,o),
(13,238,o),
(50,500,cs),
(86,758,o),
(326,968,o),
(582,968,cs),
(836,968,o),
(957,762,o),
(920,500,cs),
(884,244,o),
(708,34,o),
(450,34,cs)
);
}
);
width = 1153;
},
{
anchors = (
{
name = bottom;
pos = (459,0);
},
{
name = center;
pos = (530,500);
},
{
name = hbar;
pos = (933,1160);
},
{
name = top;
pos = (726,1900);
},
{
name = topright;
pos = (1254,1102);
}
);
hints = (
{
horizontal = 1;
origin = (0,9);
target = (1,11);
type = Stem;
},
{
horizontal = 1;
origin = (0,3);
target = (1,5);
type = Stem;
},
{
horizontal = 1;
origin = (0,13);
target = up;
type = BottomGhost;
},
{
origin = (0,6);
target = (1,2);
type = Stem;
},
{
origin = (0,13);
target = (0,14);
type = Stem;
},
{
origin = (1,8);
target = (0,14);
type = Stem;
}
);
layerId = m004;
shapes = (
{
closed = 1;
nodes = (
(807,908,l),
(755,978,o),
(678,1026,o),
(570,1026,cs),
(280,1026,o),
(10,790,o),
(-30,500,cs),
(-71,210,o),
(132,-26,o),
(422,-26,cs),
(530,-26,o),
(621,22,o),
(692,92,c),
(679,0,l),
(979,0,l),
(1190,1500,l),
(890,1500,l)
);
},
{
closed = 1;
nodes = (
(344,262,o),
(259,368,o),
(278,500,cs),
(296,632,o),
(408,738,o),
(533,738,cs),
(657,738,o),
(742,632,o),
(724,500,cs),
(705,368,o),
(590,262,o),
(466,262,cs)
);
}
);
width = 1209;
},
{
anchors = (
{
name = bottom;
pos = (460,0);
},
{
name = center;
pos = (531,500);
},
{
name = hbar;
pos = (914,1184);
},
{
name = top;
pos = (727,1900);
},
{
name = topright;
pos = (1214,1102);
}
);
hints = (
{
horizontal = 1;
origin = (0,9);
target = (1,11);
type = Stem;
},
{
horizontal = 1;
origin = (0,3);
target = (1,5);
type = Stem;
},
{
horizontal = 1;
origin = (0,13);
target = up;
type = BottomGhost;
},
{
origin = (0,6);
target = (1,2);
type = Stem;
},
{
origin = (0,13);
target = (0,14);
type = Stem;
},
{
origin = (1,8);
target = (0,14);
type = Stem;
}
);
layerId = "79A30733-E9D0-406C-A133-0F4AF5F1D98D";
shapes = (
{
closed = 1;
nodes = (
(899,824,l),
(849,946,o),
(742,1027,o),
(582,1027,cs),
(292,1027,o),
(23,791,o),
(-18,500,cs),
(-59,210,o),
(144,-26,o),
(434,-26,cs),
(594,-26,o),
(724,56,o),
(808,177,c),
(783,0,l),
(939,0,l),
(1150,1500,l),
(994,1500,l)
);
},
{
closed = 1;
nodes = (
(258,125,o),
(111,290,o),
(141,500,cs),
(170,708,o),
(359,876,o),
(562,876,cs),
(764,876,o),
(871,710,o),
(842,500,cs),
(812,294,o),
(661,125,o),
(456,125,cs)
);
}
);
width = 1175;
},
{
anchors = (
{
name = bottom;
pos = (601,0);
},
{
name = center;
pos = (601,500);
},
{
name = hbar;
pos = (889,1184);
},
{
name = top;
pos = (601,1900);
},
{
name = topright;
pos = (1200,1102);
}
);
hints = (
{
horizontal = 1;
origin = (0,9);
target = (1,11);
type = Stem;
},
{
horizontal = 1;
origin = (0,3);
target = (1,5);
type = Stem;
},
{
horizontal = 1;
origin = (0,13);
target = up;
type = BottomGhost;
},
{
origin = (0,6);
target = (1,2);
type = Stem;
},
{
origin = (0,13);
target = (0,14);
type = Stem;
},
{
origin = (1,8);
target = (0,14);
type = Stem;
}
);
layerId = "6E59A8CF-B173-4F95-974A-A2EBEECFA9BB";
shapes = (
{
closed = 1;
nodes = (
(924,824,l),
(856,946,o),
(738,1027,o),
(578,1027,cs),
(288,1027,o),
(52,791,o),
(52,500,cs),
(52,210,o),
(288,-26,o),
(578,-26,cs),
(738,-26,o),
(856,56,o),
(924,177,c),
(924,0,l),
(1080,0,l),
(1080,1500,l),
(924,1500,l)
);
},
{
closed = 1;
nodes = (
(381,125,o),
(211,290,o),
(211,500,cs),
(211,708,o),
(376,876,o),
(580,876,cs),
(782,876,o),
(912,710,o),
(912,500,cs),
(912,294,o),
(784,125,o),
(580,125,cs)
);
}
);
width = 1176.4;
}
);
metricLeft = o;
metricRight = H;
unicode = 100;
},
{
glyphname = eth;
kernLeft = o;
kernRight = eth;
lastChange = "2023-12-28 07:56:32 +0000";
layers = (
{
anchors = (
{
name = bottom;
pos = (563,0);
},
{
name = top;
pos = (563,1900);
}
);
hints = (
{
horizontal = 1;
origin = (0,3);
target = (0,1);
type = Stem;
},
{
origin = (0,2);
target = (0,0);
type = Stem;
}
);
layerId = "10BC12B3-5274-42E3-B5BC-F74F362F0DF4";
shapes = (
{
closed = 1;
nodes = (
(876,1450,l),
(736,1592,l),
(298,1160,l),
(440,1018,l)
);
},
{
ref = partialdiff;
}
);
width = 1126;
},
{
anchors = (
{
name = bottom;
pos = (562,0);
},
{
name = top;
pos = (562,1900);
}
);
layerId = "9AF1F7D9-E035-453E-B2A8-46DE370997D0";
shapes = (
{
closed = 1;
nodes = (
(866,1500,l),
(824,1542,l),
(384,1114,l),
(428,1070,l)
);
},
{
ref = partialdiff;
}
);
width = 1124;
},
{
anchors = (
{
name = bottom;
pos = (421,0);
},
{
name = top;
pos = (688,1900);
}
);
layerId = m003;
shapes = (
{
closed = 1;
nodes = (
(936,1500,l),
(900,1542,l),
(400,1114,l),
(438,1070,l)
);
},
{
pos = (-141,0);
ref = partialdiff;
}
);
width = 1124;
},
{
anchors = (
{
name = bottom;
pos = (422,0);
},
{
name = top;
pos = (689,1900);
}
);
hints = (
{
horizontal = 1;
origin = (0,3);
target = (0,1);
type = Stem;
},
{
origin = (0,2);
target = (0,0);
type = Stem;
}
);
layerId = m004;
shapes = (
{
closed = 1;
nodes = (
(939,1450,l),
(819,1592,l),
(320,1160,l),
(443,1018,l)
);
},
{
pos = (-141,0);
ref = partialdiff;
}
);
width = 1126;
},
{
anchors = (
{
name = bottom;
pos = (421,0);
},
{
name = top;
pos = (688,1900);
}
);
hints = (
{
horizontal = 1;
origin = (0,3);
target = (0,1);
type = Stem;
},
{
origin = (0,2);
target = (0,0);
type = Stem;
}
);
layerId = "79A30733-E9D0-406C-A133-0F4AF5F1D98D";
shapes = (
{
closed = 1;
nodes = (
(937,1480,l),
(868,1562,l),
(368,1132,l),
(440,1049,l)
);
},
{
alignment = -1;
pos = (-141,0);
ref = partialdiff;
}
);
width = 1124.8;
},
{
anchors = (
{
name = bottom;
pos = (562,0);
},
{
name = top;
pos = (562,1900);
}
);
hints = (
{
horizontal = 1;
origin = (0,3);
target = (0,1);
type = Stem;
},
{
origin = (0,2);
target = (0,0);
type = Stem;
}
);
layerId = "6E59A8CF-B173-4F95-974A-A2EBEECFA9BB";
shapes = (
{
closed = 1;
nodes = (
(870,1480,l),
(789,1562,l),
(350,1132,l),
(433,1049,l)
);
},
{
alignment = -1;
ref = partialdiff;
}
);
width = 1124.8;
}
);
unicode = 240;
},
{
glyphname = e;
kernLeft = o;
kernRight = o;
lastChange = "2023-12-28 07:56:49 +0000";
layers = (
{
anchors = (
{
name = bottom;
pos = (540,0);
},
{
name = ogonek;
pos = (695,0);
},
{
name = top;
pos = (540,1000);
}
);
hints = (
{
horizontal = 1;
origin = (0,19);
target = (0,6);
type = Stem;
},
{
horizontal = 1;
origin = (0,9);
target = (1,6);
type = Stem;
},
{
horizontal = 1;
origin = (0,13);
target = (1,2);
type = Stem;
}
);
layerId = "10BC12B3-5274-42E3-B5BC-F74F362F0DF4";
shapes = (
{
closed = 1;
nodes = (
(740,-26,o),
(912,98,o),
(993,276,c),
(687,347,l),
(650,302,o),
(598,273,o),
(540,274,cs),
(447,276,o),
(392,330,o),
(364,401,c),
(1031,401,l),
(1091,719,o),
(859,1028,o),
(540,1028,cs),
(264,1028,o),
(40,792,o),
(40,501,cs),
(40,210,o),
(264,-26,o),
(540,-26,cs)
);
},
{
closed = 1;
nodes = (
(382,707,o),
(455,768,o),
(540,768,cs),
(626,768,o),
(699,707,o),
(728,621,c),
(353,621,l)
);
}
);
width = 1080;
},
{
anchors = (
{
name = bottom;
pos = (559,0);
},
{
name = ogonek;
pos = (716,0);
},
{
name = top;
pos = (559,1000);
}
);
hints = (
{
horizontal = 1;
origin = (0,19);
target = (0,6);
type = Stem;
},
{
horizontal = 1;
origin = (0,9);
target = (1,6);
type = Stem;
},
{
horizontal = 1;
origin = (0,13);
target = (1,2);
type = Stem;
},
{
origin = (0,16);
target = (0,9);
type = Stem;
},
{
origin = (1,5);
target = (0,10);
type = Stem;
}
);
layerId = "9AF1F7D9-E035-453E-B2A8-46DE370997D0";
shapes = (
{
closed = 1;
nodes = (
(760,-26,o),
(932,98,o),
(1012,276,c),
(952,290,l),
(872,130,o),
(730,34,o),
(560,34,cs),
(330,34,o),
(140,220,o),
(120,470,c),
(1058,470,l),
(1052,804,o),
(846,1028,o),
(560,1028,cs),
(284,1028,o),
(60,792,o),
(60,500,cs),
(60,210,o),
(284,-26,o),
(560,-26,cs)
);
},
{
closed = 1;
nodes = (
(136,772,o),
(322,968,o),
(560,968,cs),
(796,968,o),
(990,764,o),
(998,530,c),
(120,530,l)
);
}
);
width = 1118;
},
{
anchors = (
{
name = bottom;
pos = (418,0);
},
{
name = ogonek;
pos = (575,0);
},
{
name = top;
pos = (559,1000);
}
);
hints = (
{
horizontal = 1;
origin = (0,19);
target = (0,6);
type = Stem;
},
{
horizontal = 1;
origin = (0,9);
target = (1,6);
type = Stem;
},
{
horizontal = 1;
origin = (0,13);
target = (1,2);
type = Stem;
},
{
origin = (0,16);
target = (0,9);
type = Stem;
},
{
origin = (1,5);
target = (0,10);
type = Stem;
}
);
layerId = m003;
shapes = (
{
closed = 1;
nodes = (
(616,-26,o),
(805,98,o),
(910,276,c),
(852,290,l),
(750,130,o),
(594,34,o),
(424,34,cs),
(194,34,o),
(30,220,o),
(46,470,c),
(984,470,l),
(1024,804,o),
(850,1028,o),
(564,1028,cs),
(288,1028,o),
(31,792,o),
(-10,500,cs),
(-51,210,o),
(140,-26,o),
(416,-26,cs)
);
},
{
closed = 1;
nodes = (
(104,772,o),
(318,968,o),
(556,968,cs),
(792,968,o),
(957,764,o),
(932,530,c),
(54,530,l)
);
}
);
width = 1118;
},
{
anchors = (
{
name = bottom;
pos = (399,0);
},
{
name = ogonek;
pos = (554,0);
},
{
name = top;
pos = (540,1000);
}
);
hints = (
{
horizontal = 1;
origin = (0,19);
target = (0,6);
type = Stem;
},
{
horizontal = 1;
origin = (0,9);
target = (1,6);
type = Stem;
},
{
horizontal = 1;
origin = (0,13);
target = (1,2);
type = Stem;
}
);
layerId = m004;
shapes = (
{
closed = 1;
nodes = (
(596,-26,o),
(785,98,o),
(891,276,c),
(595,347,l),
(552,302,o),
(496,273,o),
(438,274,cs),
(345,276,o),
(298,330,o),
(280,401,c),
(947,401,l),
(1052,719,o),
(863,1028,o),
(544,1028,cs),
(268,1028,o),
(11,792,o),
(-30,501,cs),
(-71,210,o),
(120,-26,o),
(396,-26,cs)
);
},
{
closed = 1;
nodes = (
(341,707,o),
(422,768,o),
(507,768,cs),
(593,768,o),
(658,707,o),
(675,621,c),
(300,621,l)
);
}
);
width = 1080;
},
{
anchors = (
{
name = bottom;
pos = (410,0);
},
{
name = ogonek;
pos = (567,0);
},
{
name = top;
pos = (551,1000);
}
);
hints = (
{
horizontal = 1;
origin = (0,19);
target = (0,6);
type = Stem;
},
{
horizontal = 1;
origin = (0,9);
target = (1,6);
type = Stem;
},
{
horizontal = 1;
origin = (0,13);
target = (1,2);
type = Stem;
},
{
origin = (0,16);
target = (0,9);
type = Stem;
},
{
origin = (1,5);
target = (0,10);
type = Stem;
}
);
layerId = "79A30733-E9D0-406C-A133-0F4AF5F1D98D";
shapes = (
{
closed = 1;
nodes = (
(608,-26,o),
(797,98,o),
(902,276,c),
(749,313,l),
(671,199,o),
(555,130,o),
(430,130,cs),
(254,131,o),
(137,264,o),
(140,442,c),
(969,442,l),
(1035,770,o),
(855,1028,o),
(556,1028,cs),
(280,1028,o),
(23,792,o),
(-18,500,cs),
(-59,210,o),
(132,-26,o),
(408,-26,cs)
);
},
{
closed = 1;
nodes = (
(199,746,o),
(360,888,o),
(536,888,cs),
(712,888,o),
(837,741,o),
(829,566,c),
(152,566,l)
);
}
);
width = 1100;
},
{
anchors = (
{
name = bottom;
pos = (551,0);
},
{
name = ogonek;
pos = (708,0);
},
{
name = top;
pos = (551,1000);
}
);
hints = (
{
horizontal = 1;
origin = (0,19);
target = (0,6);
type = Stem;
},
{
horizontal = 1;
origin = (0,9);
target = (1,6);
type = Stem;
},
{
horizontal = 1;
origin = (0,13);
target = (1,2);
type = Stem;
},
{
origin = (0,16);
target = (0,9);
type = Stem;
},
{
origin = (1,5);
target = (0,10);
type = Stem;
}
);
layerId = "6E59A8CF-B173-4F95-974A-A2EBEECFA9BB";
shapes = (
{
closed = 1;
nodes = (
(752,-26,o),
(924,98,o),
(1004,276,c),
(846,313,l),
(783,199,o),
(677,130,o),
(552,130,cs),
(377,131,o),
(241,264,o),
(218,442,c),
(1047,442,l),
(1068,770,o),
(851,1028,o),
(552,1028,cs),
(276,1028,o),
(52,792,o),
(52,500,cs),
(52,210,o),
(276,-26,o),
(552,-26,cs)
);
},
{
closed = 1;
nodes = (
(234,746,o),
(375,888,o),
(552,888,cs),
(728,888,o),
(874,741,o),
(890,566,c),
(213,566,l)
);
}
);
width = 1100;
}
);
metricLeft = o;
metricRight = o;
unicode = 101;
},
{
glyphname = f;
kernLeft = f;
kernRight = f;
lastChange = "2023-12-28 07:56:32 +0000";
layers = (
{
anchors = (
{
name = bottom;
pos = (331,0);
},
{
name = top;
pos = (331,1900);
}
);
hints = (
{
horizontal = 1;
origin = (0,17);
target = up;
type = BottomGhost;
},
{
horizontal = 1;
origin = (0,14);
target = (0,15);
type = Stem;
},
{
horizontal = 1;
origin = (0,2);
target = (0,9);
type = Stem;
},
{
horizontal = 1;
origin = (0,6);
target = down;
type = TopGhost;
},
{
origin = (0,17);
target = (0,18);
type = Stem;
}
);
layerId = "10BC12B3-5274-42E3-B5BC-F74F362F0DF4";
shapes = (
{
closed = 1;
nodes = (
(394,1206,o),
(414,1224,o),
(438,1224,cs),
(454,1224,o),
(473,1214,o),
(480,1194,c),
(696,1406,l),
(625,1487,o),
(530,1524,o),
(438,1524,cs),
(248,1524,o),
(94,1370,o),
(94,1182,cs),
(94,1000,l),
(0,1000,l),
(0,700,l),
(94,700,l),
(94,0,l),
(394,0,l),
(394,700,l),
(652,700,l),
(652,1000,l),
(394,1000,l),
(394,1182,ls)
);
}
);
width = 696;
},
{
anchors = (
{
name = bottom;
pos = (260,0);
},
{
name = top;
pos = (260,1900);
}
);
hints = (
{
horizontal = 1;
origin = (0,17);
target = up;
type = BottomGhost;
},
{
horizontal = 1;
origin = (0,14);
target = (0,15);
type = Stem;
},
{
horizontal = 1;
origin = (0,2);
target = (0,9);
type = Stem;
},
{
origin = (0,17);
target = (0,18);
type = Stem;
}
);
layerId = "9AF1F7D9-E035-453E-B2A8-46DE370997D0";
shapes = (
{
closed = 1;
nodes = (
(218,1390,o),
(292,1464,o),
(382,1464,cs),
(426,1464,o),
(468,1446,o),
(498,1416,c),
(540,1458,l),
(498,1500,o),
(442,1524,o),
(382,1524,cs),
(258,1524,o),
(158,1424,o),
(158,1300,cs),
(158,1000,l),
(0,1000,l),
(0,940,l),
(158,940,l),
(158,0,l),
(218,0,l),
(218,940,l),
(540,940,l),
(540,1000,l),
(218,1000,l),
(218,1300,ls)
);
}
);
width = 570;
},
{
anchors = (
{
name = bottom;
pos = (119,0);
},
{
name = top;
pos = (386,1900);
}
);
hints = (
{
horizontal = 1;
origin = (0,17);
target = up;
type = BottomGhost;
},
{
horizontal = 1;
origin = (0,14);
target = (0,15);
type = Stem;
},
{
horizontal = 1;
origin = (0,2);
target = (0,9);
type = Stem;
},
{
origin = (0,17);
target = (0,18);
type = Stem;
}
);
layerId = m003;
shapes = (
{
closed = 1;
nodes = (
(273,1390,o),
(357,1464,o),
(447,1464,cs),
(491,1464,o),
(531,1446,o),
(556,1416,c),
(604,1458,l),
(568,1500,o),
(516,1524,o),
(456,1524,cs),
(332,1524,o),
(218,1424,o),
(200,1300,cs),
(158,1000,l),
(0,1000,l),
(-8,940,l),
(150,940,l),
(17,0,l),
(77,0,l),
(210,940,l),
(532,940,l),
(540,1000,l),
(218,1000,l),
(260,1300,ls)
);
}
);
width = 570;
},
{
anchors = (
{
name = bottom;
pos = (190,0);
},
{
name = top;
pos = (457,1900);
}
);
hints = (
{
horizontal = 1;
origin = (0,17);
target = up;
type = BottomGhost;
},
{
horizontal = 1;
origin = (0,14);
target = (0,15);
type = Stem;
},
{
horizontal = 1;
origin = (0,2);
target = (0,9);
type = Stem;
},
{
horizontal = 1;
origin = (0,6);
target = down;
type = TopGhost;
},
{
origin = (0,17);
target = (0,18);
type = Stem;
}
);
layerId = m004;
shapes = (
{
closed = 1;
nodes = (
(423,1206,o),
(445,1224,o),
(469,1224,cs),
(485,1224,o),
(503,1214,o),
(507,1194,c),
(753,1406,l),
(693,1487,o),
(604,1524,o),
(512,1524,cs),
(322,1524,o),
(146,1370,o),
(120,1182,cs),
(94,1000,l),
(0,1000,l),
(-42,700,l),
(52,700,l),
(-47,0,l),
(253,0,l),
(352,700,l),
(610,700,l),
(652,1000,l),
(394,1000,l),
(420,1182,ls)
);
}
);
width = 696;
},
{
anchors = (
{
name = bottom;
pos = (147,0);
},
{
name = top;
pos = (414,1900);
}
);
hints = (
{
horizontal = 1;
origin = (0,17);
target = up;
type = BottomGhost;
},
{
horizontal = 1;
origin = (0,14);
target = (0,15);
type = Stem;
},
{
horizontal = 1;
origin = (0,2);
target = (0,9);
type = Stem;
},
{
origin = (0,17);
target = (0,18);
type = Stem;
}
);
layerId = "79A30733-E9D0-406C-A133-0F4AF5F1D98D";
shapes = (
{
closed = 1;
nodes = (
(333,1316,o),
(392,1368,o),
(456,1368,cs),
(489,1368,o),
(520,1353,o),
(536,1327,c),
(664,1437,l),
(618,1495,o),
(551,1524,o),
(478,1524,cs),
(328,1524,o),
(189,1402,o),
(168,1253,cs),
(132,1000,l),
(0,1000,l),
(-22,844,l),
(111,844,l),
(-9,0,l),
(147,0,l),
(267,844,l),
(563,844,l),
(585,1000,l),
(288,1000,l),
(324,1253,ls)
);
}
);
width = 620.4;
},
{
anchors = (
{
name = bottom;
pos = (288,0);
},
{
name = top;
pos = (288,1900);
}
);
hints = (
{
horizontal = 1;
origin = (0,17);
target = up;
type = BottomGhost;
},
{
horizontal = 1;
origin = (0,14);
target = (0,15);
type = Stem;
},
{
horizontal = 1;
origin = (0,2);
target = (0,9);
type = Stem;
},
{
origin = (0,17);
target = (0,18);
type = Stem;
}
);
layerId = "6E59A8CF-B173-4F95-974A-A2EBEECFA9BB";
shapes = (
{
closed = 1;
nodes = (
(288,1316,o),
(341,1368,o),
(404,1368,cs),
(437,1368,o),
(470,1353,o),
(491,1327,c),
(602,1437,l),
(549,1495,o),
(477,1524,o),
(404,1524,cs),
(254,1524,o),
(132,1402,o),
(132,1253,cs),
(132,1000,l),
(0,1000,l),
(0,844,l),
(132,844,l),
(132,0,l),
(288,0,l),
(288,844,l),
(585,844,l),
(585,1000,l),
(288,1000,l),
(288,1253,ls)
);
}
);
width = 620.4;
}
);
unicode = 102;
},
